<?xml version="1.0" encoding="UTF-8" standalone="no"?>
<svg
   xmlns:dc="http://purl.org/dc/elements/1.1/"
   xmlns:cc="http://creativecommons.org/ns#"
   xmlns:rdf="http://www.w3.org/1999/02/22-rdf-syntax-ns#"
   xmlns:svg="http://www.w3.org/2000/svg"
   xmlns="http://www.w3.org/2000/svg"
   xmlns:sodipodi="http://sodipodi.sourceforge.net/DTD/sodipodi-0.dtd"
   xmlns:inkscape="http://www.inkscape.org/namespaces/inkscape"
   version="1.0"
   width="370"
   height="166"
   viewBox="0 0 3700 1660"
   preserveAspectRatio="xMidYMid meet"
   id="svg2"
   inkscape:version="0.91 r13725"
   sodipodi:docname="princi1.svg">
  <metadata
     id="metadata705">
    <rdf:RDF>
      <cc:Work
         rdf:about="">
        <dc:format>image/svg+xml</dc:format>
        <dc:type
           rdf:resource="http://purl.org/dc/dcmitype/StillImage" />
        <dc:title></dc:title>
      </cc:Work>
    </rdf:RDF>
  </metadata>
  <defs
     id="defs703" />
  <sodipodi:namedview
     pagecolor="#ffffff"
     bordercolor="#666666"
     borderopacity="1"
     objecttolerance="10"
     gridtolerance="10"
     guidetolerance="10"
     inkscape:pageopacity="0"
     inkscape:pageshadow="2"
     inkscape:window-width="1920"
     inkscape:window-height="1052"
     id="namedview701"
     showgrid="false"
     inkscape:zoom="1.4142136"
     inkscape:cx="83.602472"
     inkscape:cy="95.787726"
     inkscape:window-x="1366"
     inkscape:window-y="0"
     inkscape:window-maximized="1"
     inkscape:current-layer="svg2" />
  <!-- generated by www.vectorizer.io -->
  <g
     id="layer1"
     style="fill:#a2a0a1;stroke:none"
     transform="translate(-21.213203,-191.88818)">
    <path
       d="m 460,1758 c 0,-29 5,-60 10,-68 7,-11 10,5 10,53 0,38 -4,67 -10,67 -5,0 -10,-24 -10,-52 z"
       id="path39"
       inkscape:connector-curvature="0" />
    <path
       d="m 405,1790 c -4,-6 1,-7 11,-3 13,5 15,3 9,-7 -5,-9 -4,-11 4,-6 6,4 9,12 6,17 -8,12 -22,12 -30,-1 z"
       id="path41"
       inkscape:connector-curvature="0" />
    <path
       d="m 390,1749 c 0,-5 5,-7 10,-4 6,3 10,8 10,11 0,2 -4,4 -10,4 -5,0 -10,-5 -10,-11 z"
       id="path43"
       inkscape:connector-curvature="0" />
    <path
       d="m 423,1753 c 4,-3 10,-3 14,0 3,4 0,7 -7,7 -7,0 -10,-3 -7,-7 z"
       id="path45"
       inkscape:connector-curvature="0" />
    <path
       d="m 364,1728 c -4,-7 -3,-8 4,-4 12,7 16,16 8,16 -3,0 -8,-5 -12,-12 z"
       id="path49"
       inkscape:connector-curvature="0" />
    <path
       d="m 406,1725 c -3,-8 -1,-15 4,-15 6,0 10,7 10,15 0,8 -2,15 -4,15 -2,0 -6,-7 -10,-15 z"
       id="path51"
       inkscape:connector-curvature="0" />
    <path
       d="m 1162,1724 c -7,-8 -8,-14 -3,-14 10,0 25,19 20,25 -2,1 -10,-3 -17,-11 z"
       id="path53"
       inkscape:connector-curvature="0" />
    <path
       d="m 317,1708 c 4,-19 3,-20 -7,-8 -8,10 -10,11 -8,2 2,-8 7,-13 11,-13 9,1 67,-63 67,-74 0,-4 -8,-4 -17,-1 -10,4 -14,4 -10,0 4,-4 -6,-13 -23,-20 -22,-10 -30,-20 -30,-39 0,-14 5,-25 11,-25 7,0 9,10 5,26 -6,22 -4,25 9,20 11,-4 14,-2 9,6 -5,8 -2,9 9,5 10,-4 17,-2 17,4 0,6 7,8 16,5 8,-3 12,-2 9,4 -3,6 0,10 8,10 10,0 14,-7 11,-22 -4,-21 -4,-22 5,-3 9,19 10,18 10,-4 1,-19 4,-22 13,-13 9,9 8,16 -5,30 -9,10 -14,21 -11,24 3,3 -1,5 -8,5 -7,-1 -14,3 -15,8 -2,6 1,10 6,10 5,0 12,3 15,6 4,4 -4,6 -16,5 -28,-3 -68,31 -68,56 0,10 -4,18 -9,18 -5,0 -7,-10 -4,-22 z"
       id="path55"
       inkscape:connector-curvature="0" />
    <path
       d="m 1233,1703 c 4,-3 10,-3 14,0 3,4 0,7 -7,7 -7,0 -10,-3 -7,-7 z"
       id="path59"
       inkscape:connector-curvature="0" />
    <path
       d="m 1197,1686 c -12,-10 -15,-16 -7,-21 13,-8 23,0 26,20 3,18 4,18 -19,1 z"
       id="path61"
       inkscape:connector-curvature="0" />
    <path
       d="m 3602,1648 c -1,-32 -6,-58 -11,-58 -4,0 -6,-12 -3,-26 2,-14 0,-29 -5,-33 -5,-3 -15,-50 -21,-103 -14,-115 -16.875,-146.75 -5.875,-146.75 4,0 7.875,34.75 5.875,53.75 -3,21 0,35 7,35 6,0 11,12 11,26 0,15 7,74 16,131 8,58 13,121 11,141 -3,26 -4,20 -5,-20 z"
       id="path63"
       inkscape:connector-curvature="0"
       sodipodi:nodetypes="cscccscssccc" />
    <path
       d="m 414,1678 c -4,-7 -3,-8 4,-4 12,7 16,16 8,16 -3,0 -8,-5 -12,-12 z"
       id="path65"
       inkscape:connector-curvature="0" />
    <path
       d="m 450,1680 c 0,-7 3,-10 7,-7 3,4 3,10 0,14 -4,3 -7,0 -7,-7 z"
       id="path67"
       inkscape:connector-curvature="0" />
    <path
       d="m 1100,1680 c 0,-5 5,-10 11,-10 5,0 7,-5 3,-12 -4,-7 -3,-8 5,-4 9,6 9,11 0,22 -14,17 -19,18 -19,4 z"
       id="path69"
       inkscape:connector-curvature="0" />
    <path
       d="m 370,1669 c 0,-5 5,-7 10,-4 6,3 10,8 10,11 0,2 -4,4 -10,4 -5,0 -10,-5 -10,-11 z"
       id="path71"
       inkscape:connector-curvature="0" />
    <path
       d="m 1383,1664 c -3,-8 -1,-20 6,-27 8,-8 11,-4 11,16 0,30 -7,35 -17,11 z"
       id="path73"
       inkscape:connector-curvature="0" />
    <path
       d="m 220,1644 c 0,-6 15,-10 35,-9 19,1 34,6 33,10 -4,12 -68,11 -68,-1 z"
       id="path75"
       inkscape:connector-curvature="0" />
    <path
       d="m 1172,1655 c 4,-4 3,-16 -2,-25 -16,-29 11,-42 81,-39 35,1 64,-2 66,-7 2,-5 -17,-9 -42,-8 -24,0 -42,-3 -39,-8 4,-5 22,-8 43,-7 40,3 68,18 52,28 -7,5 -5,16 4,34 7,15 10,27 4,27 -5,0 -9,-5 -9,-11 0,-5 -5,-7 -11,-3 -7,4 -9,0 -5,-13 6,-18 1,-20 -59,-22 -76,-2 -89,3 -75,29 7,13 7,21 -2,26 -7,4 -10,4 -6,-1 z"
       id="path77"
       inkscape:connector-curvature="0" />
    <path
       d="m 1129,1648 c -5,-18 -4,-50 1,-59 4,-6 9,3 12,20 3,18 1,34 -4,37 -4,3 -8,4 -9,2 z"
       id="path79"
       inkscape:connector-curvature="0" />
    <path
       d="m 1365,1630 c 3,-5 8,-10 11,-10 3,0 2,5 -1,10 -3,6 -8,10 -11,10 -3,0 -2,-4 1,-10 z"
       id="path81"
       inkscape:connector-curvature="0" />
    <path
       d="m 235,1620 c -3,-5 -1,-10 4,-10 6,0 11,5 11,10 0,6 -2,10 -4,10 -3,0 -8,-4 -11,-10 z"
       id="path83"
       inkscape:connector-curvature="0" />
    <path
       d="m 1240,1620 c 0,-7 3,-10 7,-7 3,4 3,10 0,14 -4,3 -7,0 -7,-7 z"
       id="path85"
       inkscape:connector-curvature="0" />
    <path
       d="m 1034,1609 c -3,-6 -1,-16 5,-22 9,-9 10,-7 5,7 -6,15 -4,17 6,11 9,-5 11,-4 6,3 -9,15 -13,15 -22,1 z"
       id="path87"
       inkscape:connector-curvature="0" />
    <path
       d="m 1158,1573 c -22,-6 -31,-32 -13,-39 9,-4 15,-19 15,-37 0,-47 8,-28 12,31 3,28 4,51 4,51 -1,-1 -8,-3 -18,-6 z m 9,-30 c -4,-3 -10,-3 -14,0 -3,4 0,7 7,7 7,0 10,-3 7,-7 z"
       id="path93"
       inkscape:connector-curvature="0" />
    <path
       d="m 1210,1550 c 0,-7 3,-10 7,-7 3,4 3,10 0,14 -4,3 -7,0 -7,-7 z"
       id="path95"
       inkscape:connector-curvature="0" />
    <path
       d="m 470,1546 c 0,-2 7,-7 16,-10 8,-3 12,-2 9,4 -6,10 -25,14 -25,6 z"
       id="path97"
       inkscape:connector-curvature="0" />
    <path
       d="m 457,1529 c 7,-7 15,-10 18,-7 3,3 -2,9 -12,12 -14,6 -15,5 -6,-5 z"
       id="path99"
       inkscape:connector-curvature="0" />
    <path
       d="m 503,1497 c 3,-13 54,-68 64,-68 4,0 16,-8 26,-16 26,-24 26,-11 0,14 -13,12 -23,18 -23,12 0,-6 -4,-7 -10,-4 -5,3 -10,15 -10,27 0,15 5,19 18,14 10,-4 7,1 -8,13 -25,20 -60,24 -57,8 z m 37,-7 c 0,-5 -2,-10 -4,-10 -3,0 -8,5 -11,10 -3,6 -1,10 4,10 6,0 11,-4 11,-10 z"
       id="path103"
       inkscape:connector-curvature="0" />
    <path
       d="m 3330,1393 c -8,-3 -18,-11 -22,-17 -10,-15 -10,-66 0,-66 5,0 7,14 4,30 -4,25 -1,30 17,30 14,0 20,4 15,12 -5,8 -2,9 9,5 10,-3 17,-2 17,3 0,11 -16,12 -40,3 z"
       id="path117"
       inkscape:connector-curvature="0" />
    <path
       d="m 3254,1292 c 4,-7 2,-12 -3,-12 -6,0 -11,-14 -11,-31 0,-57 -22,-124 -53,-156 -27,-28 -28,-32 -10,-30 13,0 19,6 16,14 -3,8 1,12 8,10 8,-2 10,-2 6,1 -4,2 -3,10 4,18 6,8 15,12 19,9 4,-2 16,5 26,18 l 19,22 -22,-19 c -23,-19 -23,-19 -23,3 0,12 4,19 10,16 6,-3 10,2 11,12 0,10 4,42 8,71 5,32 4,55 -2,59 -6,3 -7,1 -3,-5 z"
       id="path127"
       inkscape:connector-curvature="0" />
    <path
       d="M 952.73951,1263.423 C 806.40577,1171.6042 830.68639,1033.3526 952.69666,1061.3259 1022.694,1096.3028 1030.4776,1166.395 1030,1201 c 0,44 -3,51 -26,59 -14,6 -25.07866,13.2247 -26.07866,13.2247 -1,-1 -7.18183,-1.8017 -25.18183,-9.8017 z"
       id="path131"
       inkscape:connector-curvature="0"
       sodipodi:nodetypes="cccccc" />
    <path
       d="m 3425,1260 c 7,-11 -4,-54 -12,-46 -3,2 -18,-11 -35,-30 -34,-38 -49,-44 -41,-14 3,11 1,20 -5,20 -6,0 -13,-14 -17,-30 -5,-21 -19,-39 -46,-56 -45,-28 -48,-34 -16,-27 18,4 19,3 7,-6 -12,-9 -10,-10 10,-7 14,3 31,5 38,5 6,1 11,7 10,14 -2,8 7,11 27,10 17,-1 25,1 18,5 -8,5 -3,14 17,27 17,11 30,24 30,28 0,5 -14,-3 -31,-17 -17,-14 -38,-26 -47,-26 -11,0 6,22 46,58 39,37 62,66 62,80 0,12 -5,22 -11,22 -5,0 -7,-5 -4,-10 z m -104,-133 c -6,-8 -7,-18 -3,-22 4,-5 2,-5 -4,-2 -7,4 -14,-3 -18,-15 -4,-17 -8,-20 -17,-11 -9,9 -5,18 17,37 32,28 42,33 25,13 z"
       id="path133"
       inkscape:connector-curvature="0" />
    <path
       d="m 3300,1249 c 0,-5 5,-7 10,-4 6,3 10,8 10,11 0,2 -4,4 -10,4 -5,0 -10,-5 -10,-11 z"
       id="path135"
       inkscape:connector-curvature="0" />
    <path
       d="m 3483,1197 c -4,-8 -17,-19 -28,-26 -18,-11 -18,-11 5,-5 29,7 50,23 50,35 0,14 -18,11 -27,-4 z"
       id="path139"
       inkscape:connector-curvature="0" />
    <path
       d="m 3285,1170 c -3,-6 1,-7 9,-4 18,7 21,14 7,14 -6,0 -13,-4 -16,-10 z"
       id="path141"
       inkscape:connector-curvature="0" />
    <path
       d="m 3420,1160 c 0,-7 3,-10 7,-7 3,4 3,10 0,14 -4,3 -7,0 -7,-7 z"
       id="path143"
       inkscape:connector-curvature="0" />
    <path
       d="M 1619.6685,1141.6348 C 1535.6685,1136.6348 1461,1115 1445,1098 c -12,-12 65,-37 150,-49 155,-20 405,7 405,44 0,21 -60.375,39.5 -162.375,46.5 -82.9859,18.3142 -141.858,7.8135 -217.9565,2.1348 z"
       id="path145"
       inkscape:connector-curvature="0"
       sodipodi:nodetypes="cccscc" />
    <path
       d="m 2111,1121 c -133.3125,-6.625 -76,-44 78,-63 105,-12 352,-6 391,10 25,10 25,10 -15,28 -64,28 -286,40 -454,25 z"
       id="path151"
       inkscape:connector-curvature="0"
       sodipodi:nodetypes="ccccc" />
    <path
       d="m 2680,1061 c -81.292,-10.6629 -65.4082,-27.5243 76,-62 45,-13 298,-11 329,3 14,6 25,15 25,19 0,33 -285,59 -430,40 z"
       id="path163"
       inkscape:connector-curvature="0"
       sodipodi:nodetypes="cccsc" />
    <path
       d="m 3139,1040 c -3,-20 -4,-25 -12,-36 -4,-7 1,-14 13,-17 11,-3 20,-1 20,4 0,5 -4,9 -9,9 -5,0 -8,11 -5,25 2,14 2,25 -1,25 -3,0 -6,-4 -6,-10 z"
       id="path165"
       inkscape:connector-curvature="0" />
    <path
       d="m 3275,1040 c 3,-5 8,-10 11,-10 3,0 2,5 -1,10 -3,6 -8,10 -11,10 -3,0 -2,-4 1,-10 z"
       id="path167"
       inkscape:connector-curvature="0" />
    <path
       d="m 3176,1030 c 5,-8 9,-18 9,-22 0,-5 4,-8 8,-9 18,-2 16,9 -5,27 -13,11 -18,13 -12,4 z"
       id="path169"
       inkscape:connector-curvature="0" />
    <path
       d="m 3224,1032 c -7,-4 0,-16 20,-31 l 31,-25 -23,25 c -12,14 -19,29 -15,32 8,9 1,9 -13,-1 z"
       id="path171"
       inkscape:connector-curvature="0" />
    <path
       d="m 3261,1024 c -1,-16 19,-30 53,-38 26,-6 28,-5 17,8 -8,9 -9,16 -4,16 5,0 16,-9 26,-20 12,-14 28,-20 54,-18 l 38,1 -35,4 c -19,3 -44,15 -57,29 -12,13 -25,20 -28,14 -9,-14 -52,-12 -58,3 -4,7 -6,8 -6,1 z"
       id="path173"
       inkscape:connector-curvature="0" />
    <path
       d="m 3471,935 c 24,-40 49,-72 49,-60 0,13 -23,49 -47,74 l -24,26 22,-40 z"
       id="path187"
       inkscape:connector-curvature="0" />
    <path
       d="m 3173,945 c 0,-8 4,-12 9,-9 5,3 6,10 3,15 -9,13 -12,11 -12,-6 z"
       id="path191"
       inkscape:connector-curvature="0" />
    <path
       d="m 3234,938 c 3,-13 6,-30 6,-38 1,-12 3,-11 11,3 12,20 3,57 -13,57 -6,0 -8,-10 -4,-22 z"
       id="path193"
       inkscape:connector-curvature="0" />
    <path
       d="m 220,919 c 0,-17 4,-28 10,-24 6,3 10,17 10,31 0,13 -4,24 -10,24 -5,0 -10,-14 -10,-31 z"
       id="path195"
       inkscape:connector-curvature="0" />
    <path
       d="m 284,890 1,-45 -85,-6 -85,-5 93,-2 c 60,-1 91,2 87,8 -3,6 -1,10 4,10 6,0 11,7 11,15 0,8 -4,15 -9,15 -6,0 -12,12 -14,28 -2,15 -4,7 -3,-18 z"
       id="path197"
       inkscape:connector-curvature="0" />
    <path
       d="m 3307,911 c 9,-11 20,-18 25,-15 12,8 -11,34 -28,34 -11,0 -10,-4 3,-19 z"
       id="path203"
       inkscape:connector-curvature="0" />
    <path
       d="m 3370,910 c 0,-7 3,-10 7,-7 3,4 3,10 0,14 -4,3 -7,0 -7,-7 z"
       id="path205"
       inkscape:connector-curvature="0" />
    <path
       d="m 3200,904 c 0,-14 49,-70 50,-56 0,6 -5,12 -11,12 -5,0 -8,4 -5,9 3,4 -3,16 -14,26 -11,10 -20,14 -20,9 z"
       id="path209"
       inkscape:connector-curvature="0" />
    <path
       d="m 3263,862 c 1,-27 -4,-46 -12,-52 -19,-11 -6,-40 16,-39 16,1 16,2 1,6 -20,5 -13,33 9,33 11,0 13,3 5,13 -6,6 -12,28 -15,47 -4,30 -5,29 -4,-8 z"
       id="path213"
       inkscape:connector-curvature="0" />
    <path
       d="m 3351,854 c 0,-11 3,-14 6,-6 3,7 2,16 -1,19 -3,4 -6,-2 -5,-13 z"
       id="path225"
       inkscape:connector-curvature="0" />
    <path
       d="m 335,820 c 11,-5 27,-9 35,-9 9,0 8,4 -5,9 -11,5 -27,9 -35,9 -9,0 -8,-4 5,-9 z"
       id="path235"
       inkscape:connector-curvature="0" />
    <path
       d="m 3513,823 c 4,-3 10,-3 14,0 3,4 0,7 -7,7 -7,0 -10,-3 -7,-7 z"
       id="path241"
       inkscape:connector-curvature="0" />
    <path
       d="m 259,804 c -7,-9 -14,-23 -15,-31 -2,-11 2,-10 16,5 15,16 29,19 67,16 46,-3 47,-3 8,4 -22,4 -45,11 -51,15 -7,4 -18,0 -25,-9 z"
       id="path243"
       inkscape:connector-curvature="0" />
    <path
       d="m 3523,803 c 4,-3 10,-3 14,0 3,4 0,7 -7,7 -7,0 -10,-3 -7,-7 z"
       id="path249"
       inkscape:connector-curvature="0" />
    <path
       d="m 3204,788 c -4,-7 -3,-8 4,-4 12,7 16,16 8,16 -3,0 -8,-5 -12,-12 z"
       id="path253"
       inkscape:connector-curvature="0" />
    <path
       d="m 3283,793 c 4,-3 10,-3 14,0 3,4 0,7 -7,7 -7,0 -10,-3 -7,-7 z"
       id="path255"
       inkscape:connector-curvature="0" />
    <path
       d="m 475,760 c -4,-6 -12,-7 -18,-4 -7,4 -9,4 -5,-1 5,-5 -8,-19 -27,-32 -19,-13 -35,-28 -35,-33 0,-5 12,2 26,15 29,27 50,33 38,13 -4,-8 -3,-10 2,-5 5,5 9,14 9,20 1,7 6,11 13,10 7,-2 12,4 12,12 0,17 -6,19 -15,5 z"
       id="path257"
       inkscape:connector-curvature="0" />
    <path
       d="m 3210,764 c 1,-16 29,-60 29,-44 0,8 -6,24 -14,34 -8,11 -15,16 -15,10 z"
       id="path259"
       inkscape:connector-curvature="0" />
    <path
       d="m 3315,730 c 9,-16 20,-30 25,-30 12,0 13,-119 4,-273 -5,-78 -10,-104 -19,-100 -15,5 -29,-13 -17,-21 5,-3 16,0 25,7 14,10 18,42 23,192 5,165 4,183 -13,215 -24,44 -51,54 -28,10 z"
       id="path261"
       inkscape:connector-curvature="0" />
    <path
       d="m 146,731 c -3,-4 6,-6 21,-3 17,3 24,1 19,-6 -4,-6 2,-8 16,-4 21,5 21,6 2,13 -26,10 -52,11 -58,0 z"
       id="path263"
       inkscape:connector-curvature="0" />
    <path
       d="m 3263,723 c 9,-2 23,-2 30,0 6,3 -1,5 -18,5 -16,0 -22,-2 -12,-5 z"
       id="path273"
       inkscape:connector-curvature="0" />
    <path
       d="m 226,711 c -3,-5 2,-11 12,-13 11,-3 19,0 19,8 0,16 -23,19 -31,5 z"
       id="path275"
       inkscape:connector-curvature="0" />
    <path
       d="m 1390,680 c -23,-7 -23,-8 -3,-9 12,-1 25,4 28,9 3,6 5,10 3,9 -2,-1 -14,-5 -28,-9 z"
       id="path289"
       inkscape:connector-curvature="0" />
    <path
       d="m 267,632 c -21,-21 -34,-41 -31,-45 4,-4 3,-7 -3,-7 -17,0 -24,-30 -12,-51 10,-20 10,-20 -23,-3 -42,21 -79,50 -73,56 3,3 -1,5 -9,5 -11,0 -12,-4 -3,-18 6,-10 13,-17 15,-15 1,2 16,-10 32,-26 41,-41 74,-36 77,12 1,24 10,42 28,57 14,13 21,23 15,23 -6,0 -8,5 -5,10 4,6 10,8 14,6 12,-8 30,9 22,22 -5,8 -18,0 -44,-26 z m 3,-16 c 0,-3 -5,-8 -12,-12 -7,-4 -8,-3 -4,4 7,12 16,16 16,8 z"
       id="path291"
       inkscape:connector-curvature="0" />
    <path
       d="m 220,650 c 0,-7 3,-10 7,-7 3,4 3,10 0,14 -4,3 -7,0 -7,-7 z"
       id="path293"
       inkscape:connector-curvature="0" />
    <path
       d="m 158,643 c 6,-2 18,-2 25,0 6,3 1,5 -13,5 -14,0 -19,-2 -12,-5 z"
       id="path295"
       inkscape:connector-curvature="0" />
    <path
       d="m 343,635 c 0,-8 4,-12 9,-9 5,3 6,10 3,15 -9,13 -12,11 -12,-6 z"
       id="path297"
       inkscape:connector-curvature="0" />
    <path
       d="m 1343,643 c 9,-2 23,-2 30,0 6,3 -1,5 -18,5 -16,0 -22,-2 -12,-5 z"
       id="path299"
       inkscape:connector-curvature="0" />
    <path
       d="m 3295,640 c 3,-5 8,-10 11,-10 3,0 2,5 -1,10 -3,6 -8,10 -11,10 -3,0 -2,-4 1,-10 z"
       id="path301"
       inkscape:connector-curvature="0" />
    <path
       d="m 3415,616 c 21,-19 42,-33 47,-30 12,8 -1,24 -19,24 -9,0 -13,3 -10,7 4,3 -5,12 -19,20 -41,21 -41,16 1,-21 z"
       id="path303"
       inkscape:connector-curvature="0" />
    <path
       d="m 1424,628 c -4,-7 -3,-8 4,-4 12,7 16,16 8,16 -3,0 -8,-5 -12,-12 z"
       id="path307"
       inkscape:connector-curvature="0" />
    <path
       d="m 1295,619 c 4,-5 10,-7 15,-4 12,7 24,-40 15,-54 -3,-6 -1,-11 4,-11 6,0 11,11 11,24 0,20 4,23 23,19 l 22,-5 -21,15 c -24,18 -77,31 -69,16 z"
       id="path309"
       inkscape:connector-curvature="0" />
    <path
       d="m 1402,595 c -7,-8 -9,-15 -4,-15 5,0 15,7 22,15 16,19 -1,19 -18,0 z"
       id="path313"
       inkscape:connector-curvature="0" />
    <path
       d="m 720,574 c 0,-14 4,-23 9,-20 5,3 7,15 4,26 -7,28 -13,25 -13,-6 z"
       id="path315"
       inkscape:connector-curvature="0" />
    <path
       d="m 702,560 c 0,-19 2,-27 5,-17 2,9 2,25 0,35 -3,9 -5,1 -5,-18 z"
       id="path317"
       inkscape:connector-curvature="0" />
    <path
       d="m 1303,583 c 4,-3 10,-3 14,0 3,4 0,7 -7,7 -7,0 -10,-3 -7,-7 z"
       id="path319"
       inkscape:connector-curvature="0" />
    <path
       d="m 740,538 c -5,-13 -9,-19 -9,-14 -1,5 -8,3 -16,-4 -16,-13 -11,-30 9,-30 7,0 17,16 23,35 12,39 7,48 -7,13 z"
       id="path331"
       inkscape:connector-curvature="0" />
    <path
       d="m 290,540 c 0,-5 5,-10 10,-10 6,0 10,5 10,10 0,6 -4,10 -10,10 -5,0 -10,-4 -10,-10 z"
       id="path333"
       inkscape:connector-curvature="0" />
    <path
       d="m 593,538 c -27,-13 -30,-28 -6,-28 9,0 13,3 10,7 -4,3 1,12 11,19 20,16 15,17 -15,2 z"
       id="path335"
       inkscape:connector-curvature="0" />
    <path
       d="m 355,520 c -3,-5 -1,-10 4,-10 6,0 11,5 11,10 0,6 -2,10 -4,10 -3,0 -8,-4 -11,-10 z"
       id="path337"
       inkscape:connector-curvature="0" />
    <path
       d="m 1335,520 c -3,-5 -1,-10 4,-10 6,0 11,5 11,10 0,6 -2,10 -4,10 -3,0 -8,-4 -11,-10 z"
       id="path339"
       inkscape:connector-curvature="0" />
    <path
       d="m 1255,500 c 3,-5 8,-10 11,-10 3,0 2,5 -1,10 -3,6 -8,10 -11,10 -3,0 -2,-4 1,-10 z"
       id="path343"
       inkscape:connector-curvature="0" />
    <path
       d="m 720,470 c 13,-8 12,-10 -4,-10 -24,0 -16,-9 13,-15 18,-3 20,-1 11,16 -6,10 -16,19 -23,19 -7,0 -6,-4 3,-10 z"
       id="path345"
       inkscape:connector-curvature="0" />
    <path
       d="m 1330,460 c -9,-6 -10,-10 -3,-10 6,0 15,5 18,10 8,12 4,12 -15,0 z"
       id="path349"
       inkscape:connector-curvature="0" />
    <path
       d="m 765,439 c -4,-6 -4,-13 -1,-16 3,-4 6,-1 6,6 0,9 5,9 20,1 11,-6 20,-8 20,-6 0,13 -39,26 -45,15 z"
       id="path351"
       inkscape:connector-curvature="0" />
    <path
       d="m 693,423 c 4,-3 10,-3 14,0 3,4 0,7 -7,7 -7,0 -10,-3 -7,-7 z"
       id="path353"
       inkscape:connector-curvature="0" />
    <path
       d="m 659,418 c 0,-2 -2,-11 -4,-21 -3,-15 -1,-16 11,-6 7,6 11,15 8,20 -5,9 -13,12 -15,7 z"
       id="path355"
       inkscape:connector-curvature="0" />
    <path
       d="m 750,400 c 0,-7 3,-10 7,-7 3,4 3,10 0,14 -4,3 -7,0 -7,-7 z"
       id="path357"
       inkscape:connector-curvature="0" />
    <path
       d="m 546,388 c 3,-5 10,-6 15,-3 13,9 11,12 -6,12 -8,0 -12,-4 -9,-9 z"
       id="path359"
       inkscape:connector-curvature="0" />
  </g>
  <g
     id="layer2"
     style="fill:#424142;stroke:none"
     transform="translate(-21.213203,-191.88818)">
    <path
       d="m 422,1776 c 7,-8 15,-12 17,-11 5,6 -10,25 -20,25 -5,0 -4,-6 3,-14 z"
       id="path472"
       inkscape:connector-curvature="0" />
    <path
       d="m 382,1734 c -22,-15 -31,-54 -11,-54 5,0 8,4 5,9 -9,14 5,43 18,38 6,-3 17,2 24,9 18,20 -7,19 -36,-2 z"
       id="path474"
       inkscape:connector-curvature="0" />
    <path
       d="m 3592,1662 c -2,-42 -2,-75 1,-72 8,9 16,150 9,150 -4,0 -9,-35 -10,-78 z"
       id="path476"
       inkscape:connector-curvature="0" />
    <path
       d="m 310,1706 c 0,-8 4,-17 9,-20 5,-4 7,3 4,14 -6,23 -13,26 -13,6 z"
       id="path478"
       inkscape:connector-curvature="0" />
    <path
       d="m 1241,1704 c -18,-8 -31,-17 -29,-19 6,-7 68,18 68,27 0,4 -1,8 -2,7 -2,0 -18,-7 -37,-15 z"
       id="path480"
       inkscape:connector-curvature="0" />
    <path
       d="m 413,1680 c 1,-22 -3,-35 -10,-35 -7,0 -13,-4 -12,-10 0,-6 24,-9 58,-7 52,3 61,1 75,-19 9,-13 16,-19 16,-13 0,20 -36,44 -65,44 -23,0 -26,3 -17,12 7,7 12,21 11,33 0,14 -2,16 -6,5 -15,-40 -27,-43 -40,-9 l -12,34 2,-35 z"
       id="path482"
       inkscape:connector-curvature="0" />
    <path
       d="m 1123,1649 c 8,-14 17,-36 19,-50 2,-19 8,-23 29,-21 33,3 60,-24 38,-40 -12,-8 -12,-9 1,-6 8,3 17,13 20,24 4,16 14,20 46,19 37,0 41,2 41,24 0,20 -1,21 -9,8 -7,-13 -23,-17 -67,-17 -63,0 -88,14 -69,40 8,12 9,12 4,-2 -3,-10 -1,-18 4,-18 6,0 10,5 10,10 0,6 12,8 28,5 l 27,-6 -27,16 c -16,9 -28,20 -28,26 0,6 -9,1 -20,-12 l -20,-24 -21,25 -21,25 15,-26 z"
       id="path484"
       inkscape:connector-curvature="0" />
    <path
       d="m 255,1651 c 21,-5 29,-12 27,-24 -2,-11 6,-18 23,-22 70,-14 80,-15 66,-7 -11,8 -11,10 0,15 8,3 -2,3 -22,0 -30,-4 -38,-1 -52,21 -12,18 -26,26 -45,25 l -27,-1 30,-7 z"
       id="path486"
       inkscape:connector-curvature="0" />
    <path
       d="m 1320,1643 c 0,-15 2,-15 9,-4 8,12 13,12 35,-3 14,-9 26,-12 26,-6 0,10 -41,30 -61,30 -5,0 -9,-8 -9,-17 z"
       id="path488"
       inkscape:connector-curvature="0" />
    <path
       d="m 1045,1609 c -4,-6 -4,-13 -1,-16 3,-4 6,-1 6,5 0,6 8,13 18,15 15,4 15,5 0,6 -9,0 -20,-4 -23,-10 z"
       id="path490"
       inkscape:connector-curvature="0" />
    <path
       d="m 405,1600 c 3,-5 8,-10 11,-10 3,0 2,5 -1,10 -3,6 -8,10 -11,10 -3,0 -2,-4 1,-10 z"
       id="path494"
       inkscape:connector-curvature="0" />
    <path
       d="m 1090,1606 c 0,-2 9,-6 20,-9 11,-3 18,-1 14,4 -5,9 -34,13 -34,5 z"
       id="path496"
       inkscape:connector-curvature="0" />
    <path
       d="m 320,1580 c -8,-5 -12,-11 -10,-14 3,-2 14,2 24,10 22,15 10,19 -14,4 z"
       id="path498"
       inkscape:connector-curvature="0" />
    <path
       d="m 1332,1559 c 0,-13 -2,-42 -6,-64 -5,-32 -3,-29 10,14 9,34 12,57 6,63 -7,7 -10,1 -10,-13 z"
       id="path500"
       inkscape:connector-curvature="0" />
    <path
       d="m 3582,1555 c 0,-16 2,-22 5,-12 2,9 2,23 0,30 -3,6 -5,-1 -5,-18 z"
       id="path502"
       inkscape:connector-curvature="0" />
    <path
       d="m 455,1540 c 3,-5 8,-10 11,-10 3,0 2,5 -1,10 -3,6 -8,10 -11,10 -3,0 -2,-4 1,-10 z"
       id="path504"
       inkscape:connector-curvature="0" />
    <path
       d="m 485,1530 c 3,-5 8,-10 11,-10 3,0 2,5 -1,10 -3,6 -8,10 -11,10 -3,0 -2,-4 1,-10 z"
       id="path506"
       inkscape:connector-curvature="0" />
    <path
       d="m 1084,1511 c -21,-16 -54,-45 -73,-65 -45,-46 -74,-51 -228,-37 -121,12 -190,32 -208,61 -3,5 -10,10 -16,10 -20,0 -7,-34 38,-98 95,-136 102,-303 18,-430 -28,-43 -91,-92 -117,-92 -9,0 -18,-5 -20,-10 -4,-14 -109,-41 -131,-34 -11,3 -26,12 -35,20 -47,41 -82,65 -82,56 0,-6 17,-21 38,-34 l 37,-23 -95,-6 -95,-5 83,-2 c 64,-2 81,-5 76,-14 -5,-9 -2,-9 9,1 11,9 17,10 17,2 0,-6 13,-11 29,-11 16,0 55,-12 87,-26 l 59,-26 -25,-17 c -13,-9 -32,-24 -42,-33 -9,-9 -33,-20 -53,-24 -44,-8 -51,-19 -24,-38 19,-13 21,-21 15,-59 -4,-25 -3,-48 1,-50 13,-8 15,94 3,108 -14,17 18,22 171,30 111,5 126,4 144,-12 26,-24 45,-67 45,-103 0,-48 20,-31 62,51 170.81152,128.10745 151.01335,142.20292 355,88 80,-20 109,-24 118,-15 7,6 10,13 6,16 -31,24 -55,160 -31,175 6,3 10,17 10,30 0,14 9,48 20,77 11,29 20,60 20,69 0,32 148,40 221,12 59,-22 375,-25 462,-4 49,12 71,12 135,2 42,-7 178,-16 302,-20 124,-4 232,-11 239,-15 43,-27 145,-39 322,-40 220,-1 224,-2 234,-95 7,-54 40,-149 50,-139 2,2 -4,22 -15,44 -11,21 -20,59 -21,84 -1,25 -8,54 -14,66 -12,19 -11,20 15,16 15,-2 30,0 34,6 9,15 -24,74 -39,68 -7,-2 -21,4 -31,15 -9,11 -25,17 -34,14 -9,-3 -52,4 -96,16 -67,17 -103,20 -244,17 -140,-2 -169,0 -190,14 -14,9 -54,22 -90,29 -86,17 -402,17 -458,1 -35,-11 -50,-10 -95,3 -40,12 -94,15 -234,14 -101,-1 -195,-1 -210,-1 -24,-1 -130,12 -238,28 -26,4 -34,14 -63,75 -27,57 -36,92 -43,172 -9,90 -18,116 -40,117 -3,0 -24,-13 -45,-29 z m 68,-88 c 3,-90 7,-105 42,-178 22,-44 40,-81 41,-83 2,-2 45,-7 97,-12 123,-12 133,-15 107,-41 -15,-15 -39,-21 -99,-26 l -80,-6 -9,-36 c -5,-20 -13,-52 -16,-71 -4,-19 -10,-39 -14,-45 -38,-61 -41,-158 -6,-209 23,-34 23,-37 6,-31 -10,3 -45,10 -76,15 -31,5 -62,13 -69,18 -151.5452,96.05063 -212.94494,99.7843 -323,-115 l -28,-58 -3,38 c -2,27 -13,47 -39,74 l -36,36 -121,-7 -121,-7 34,29 c 46,38 47,57 3,78 l -37,18 33,7 c 19,4 39,12 45,18 6,6 19,11 28,11 22,0 139,115 139,135 0,9 6,26 14,38 23,37 37,143 25,201 -12,63 -66,174 -96,199 -13,10 -23,23 -23,30 0,6 6,4 13,-5 22,-28 80,-39 240,-45 l 157,-6 40,43 c 35,38 104,89 122,90 3,0 8,-44 10,-97 z m 698,-288 c 93,-6 150,-22 150,-42 0,-37 -250,-64 -405,-44 -89,12 -164,38 -148,51 27,22 232,53 298,44 11,-2 58,-5 105,-9 z m 575,-14 c 57,-4 117,-15 140,-25 40,-18 40,-18 15,-28 -14,-6 -86,-12 -161,-15 -196,-8 -386,18 -376,52 7,20 218,29 382,16 z m 189,-66 c -4,-8 -16,-15 -28,-15 -20,0 -20,1 4,14 14,8 26,14 27,15 1,1 0,-6 -3,-14 z m 346,5 c 91,-11 150,-27 150,-39 0,-4 -11,-13 -25,-19 -31,-14 -284,-16 -329,-3 -93,27 -118,37 -120,46 -3,22 191,31 324,15 z m 230,-45 c 14,5 18,1 16,-20 -1,-17 -6,-23 -16,-20 -8,2 -27,7 -42,11 -16,3 -25,10 -22,15 3,5 11,6 17,3 9,-5 9,-4 0,6 -6,7 -9,19 -6,27 4,11 9,9 20,-7 9,-13 21,-19 33,-15 z"
       id="path508"
       inkscape:connector-curvature="0"
       sodipodi:nodetypes="scccsccscccscccccscsscccccccccccscccccssscccscccscscccccsccccccccccccsccccsccsccccsccccccccccccssscccscccccccscccccccccccscsccsccccccccsccccc" />
    <path
       d="m 918,1258 c -36,-36 -68,-85 -74,-116 -8,-41 36,-92 79,-92 36,0 102,55 118,97 15,41 11,98 -9,116 -27,25 -86,22 -114,-5 z m 86,2 c 23,-8 26,-15 26,-59 0,-49 -22,-90 -70,-128 -38,-31 -91,-6 -105,47 -11,46 63,137 122,150 1,0 13,-4 27,-10 z"
       id="path510"
       inkscape:connector-curvature="0" />
    <path
       d="m 523,1493 c 4,-3 10,-3 14,0 3,4 0,7 -7,7 -7,0 -10,-3 -7,-7 z"
       id="path512"
       inkscape:connector-curvature="0" />
    <path
       d="m 3456,1419 c -3,-13 -10,-47 -16,-76 -7,-29 -10,-58 -8,-64 2,-7 11,26 20,72 9,46 15,86 13,88 -2,2 -6,-7 -9,-20 z"
       id="path514"
       inkscape:connector-curvature="0" />
    <path
       d="m 3343,1383 c 4,-3 10,-3 14,0 3,4 0,7 -7,7 -7,0 -10,-3 -7,-7 z"
       id="path516"
       inkscape:connector-curvature="0" />
    <path
       d="m 3312,1345 c 0,-16 2,-22 5,-12 2,9 2,23 0,30 -3,6 -5,-1 -5,-18 z"
       id="path518"
       inkscape:connector-curvature="0" />
    <path
       d="m 3562,1340 c 0,-19 2,-27 5,-17 2,9 2,25 0,35 -3,9 -5,1 -5,-18 z"
       id="path520"
       inkscape:connector-curvature="0" />
    <path
       d="m 3302,1285 c 0,-16 2,-22 5,-12 2,9 2,23 0,30 -3,6 -5,-1 -5,-18 z"
       id="path522"
       inkscape:connector-curvature="0" />
    <path
       d="m 3545,1273 c -3,-15 -14,-37 -23,-48 -17,-20 -17,-20 5,-2 20,17 39,64 30,74 -3,2 -8,-9 -12,-24 z"
       id="path524"
       inkscape:connector-curvature="0" />
    <path
       d="m 3421,1253 c -1,-6 -4,-20 -7,-30 -5,-17 -5,-17 6,0 6,10 9,23 6,30 -3,9 -5,9 -5,0 z"
       id="path526"
       inkscape:connector-curvature="0" />
    <path
       d="m 3307,1243 c -4,-3 -7,-16 -7,-28 0,-27 -55,-83 -63,-63 -4,8 -6,6 -6,-6 -1,-10 -12,-31 -26,-48 -14,-16 -25,-35 -25,-41 0,-7 6,-3 12,8 6,11 34,43 63,72 35,34 54,62 57,82 5,33 5,34 -5,24 z"
       id="path528"
       inkscape:connector-curvature="0" />
    <path
       d="m 3354,1168 -19,-23 23,19 c 21,18 27,26 19,26 -2,0 -12,-10 -23,-22 z"
       id="path530"
       inkscape:connector-curvature="0" />
    <path
       d="m 3444,1174 c -18,-14 -18,-14 6,-3 31,14 36,19 24,19 -6,0 -19,-7 -30,-16 z"
       id="path532"
       inkscape:connector-curvature="0" />
    <path
       d="m 3293,1110 c -18,-17 -36,-30 -42,-30 -5,0 -17,-7 -26,-16 -14,-15 -13,-19 19,-54 29,-32 36,-49 42,-100 4,-33 10,-63 14,-65 5,-3 7,3 5,12 -13,64 -14,83 -5,78 12,-8 -9,44 -27,66 -20,24 -16,28 20,25 17,-2 21,-1 9,1 -23,4 -23,5 -5,26 16,19 16,20 1,8 -10,-7 -18,-11 -18,-7 0,9 22,47 39,69 21,26 10,20 -26,-13 z m -17,-50 c 0,-10 -2,-17 -4,-15 -3,2 -13,0 -23,-5 -11,-7 -20,-7 -24,-1 -3,6 7,17 22,25 15,8 28,15 28,16 1,0 1,-9 1,-20 z"
       id="path534"
       inkscape:connector-curvature="0" />
    <path
       d="m 3384,1129 c -3,-6 -22,-18 -41,-26 -19,-8 -33,-16 -30,-19 7,-7 60,21 76,40 8,9 11,16 8,16 -3,0 -9,-5 -13,-11 z"
       id="path536"
       inkscape:connector-curvature="0" />
    <path
       d="m 3335,993 c 4,-10 14,-34 21,-53 7,-19 13,-27 14,-17 0,21 -26,87 -36,87 -3,0 -3,-8 1,-17 z"
       id="path538"
       inkscape:connector-curvature="0" />
    <path
       d="m 3409,980 c 28,-4 51,-15 63,-29 10,-13 18,-19 18,-15 -1,29 -46,54 -92,53 -29,-1 -28,-2 11,-9 z"
       id="path540"
       inkscape:connector-curvature="0" />
    <path
       d="m 287,923 c 8,-50 13,-55 13,-10 0,20 -4,38 -9,42 -6,3 -7,-10 -4,-32 z"
       id="path542"
       inkscape:connector-curvature="0" />
    <path
       d="m 3250,860 c 0,-29 3,-50 7,-46 7,7 5,87 -3,95 -2,2 -4,-20 -4,-49 z"
       id="path546"
       inkscape:connector-curvature="0" />
    <path
       d="m 3335,885 c 4,-11 12,-67 18,-125 10,-103 19,-130 40,-130 6,0 4,6 -5,13 -10,8 -18,45 -25,119 -6,58 -16,114 -23,125 -11,17 -11,17 -5,-2 z"
       id="path548"
       inkscape:connector-curvature="0" />
    <path
       d="m 3506,865 c 8,-37 14,-45 14,-19 0,10 -5,26 -10,34 -8,11 -9,7 -4,-15 z"
       id="path550"
       inkscape:connector-curvature="0" />
    <path
       d="m 3530,794 c 0,-6 7,-19 16,-30 14,-18 14,-18 3,6 -14,31 -19,36 -19,24 z"
       id="path554"
       inkscape:connector-curvature="0" />
    <path
       d="m 3258,783 c 7,-3 16,-2 19,1 4,3 -2,6 -13,5 -11,0 -14,-3 -6,-6 z"
       id="path556"
       inkscape:connector-curvature="0" />
    <path
       d="m 3300,770 c 6,-11 13,-20 16,-20 2,0 0,9 -6,20 -6,11 -13,20 -16,20 -2,0 0,-9 6,-20 z"
       id="path558"
       inkscape:connector-curvature="0" />
    <path
       d="m 234,768 c -4,-7 -3,-8 4,-4 12,7 16,16 8,16 -3,0 -8,-5 -12,-12 z"
       id="path560"
       inkscape:connector-curvature="0" />
    <path
       d="m 170,720 c 14,-4 34,-8 45,-8 16,0 15,2 -5,8 -14,4 -34,8 -45,8 -16,0 -15,-2 5,-8 z"
       id="path562"
       inkscape:connector-curvature="0" />
    <path
       d="m 3240,718 c 0,-4 11,-8 25,-8 18,0 25,-5 25,-19 0,-11 3,-26 6,-34 3,-10 -2,-17 -13,-20 -15,-4 -16,-5 -1,-6 23,-1 28,10 21,51 -4,30 -10,37 -34,40 -16,3 -29,1 -29,-4 z"
       id="path564"
       inkscape:connector-curvature="0" />
    <path
       d="m 257,686 c 4,-17 0,-25 -14,-29 -16,-4 -16,-5 2,-5 11,0 29,3 40,8 17,7 17,9 3,9 -11,1 -18,9 -18,21 0,11 -4,20 -9,20 -4,0 -6,-11 -4,-24 z"
       id="path566"
       inkscape:connector-curvature="0" />
    <path
       d="m 3337,516 c -4,-104 -5,-191 -3,-193 6,-6 18,274 14,332 -1,28 -6,-35 -11,-139 z"
       id="path568"
       inkscape:connector-curvature="0" />
    <path
       d="m 1364,665 16,-25 -34,0 c -24,0 -42,7 -56,23 -16,16 -20,18 -15,4 6,-13 3,-16 -11,-11 -18,5 -18,5 0,-10 13,-10 39,-16 73,-16 54,0 60,4 43,30 -7,11 -4,17 13,22 18,5 16,6 -12,7 -33,1 -33,1 -17,-24 z"
       id="path570"
       inkscape:connector-curvature="0" />
    <path
       d="m 147,633 c 6,-16 22,-16 53,2 24,13 24,13 -16,12 -29,-1 -40,-6 -37,-14 z"
       id="path574"
       inkscape:connector-curvature="0" />
    <path
       d="m 269,623 c -13,-14 -18,-23 -11,-19 8,5 12,-2 12,-23 0,-23 5,-31 18,-31 10,0 13,3 6,8 -13,8 -25,62 -14,62 4,0 10,7 14,15 8,21 3,19 -25,-12 z"
       id="path576"
       inkscape:connector-curvature="0" />
    <path
       d="m 1424,618 c -4,-7 -3,-8 4,-4 12,7 16,16 8,16 -3,0 -8,-5 -12,-12 z"
       id="path578"
       inkscape:connector-curvature="0" />
    <path
       d="m 1310,613 c 0,-6 -9,-14 -19,-18 -13,-4 -22,-19 -26,-48 -4,-23 -12,-51 -17,-62 -9,-19 -8,-19 5,-2 8,10 18,35 22,55 9,49 39,70 48,35 4,-15 5,-15 6,2 0,11 -4,27 -9,35 -6,9 -10,10 -10,3 z"
       id="path580"
       inkscape:connector-curvature="0" />
    <path
       d="m 1370,600 c 8,-5 22,-10 30,-10 13,0 13,1 0,10 -8,5 -22,10 -30,10 -13,0 -13,-1 0,-10 z"
       id="path582"
       inkscape:connector-curvature="0" />
    <path
       d="m 100,596 c 0,-2 8,-10 18,-17 15,-13 16,-12 3,4 -13,16 -21,21 -21,13 z"
       id="path584"
       inkscape:connector-curvature="0" />
    <path
       d="m 3460,547 5,-52 3,44 c 2,24 0,47 -5,52 -4,4 -6,-15 -3,-44 z"
       id="path586"
       inkscape:connector-curvature="0" />
    <path
       d="m 1331,534 c 0,-11 3,-14 6,-6 3,7 2,16 -1,19 -3,4 -6,-2 -5,-13 z"
       id="path600"
       inkscape:connector-curvature="0" />
    <path
       d="m 600,530 c -13,-8 -12,-10 3,-10 12,0 17,-8 17,-29 0,-28 1,-29 36,-21 38,9 39,7 18,-45 -7,-18 -6,-18 9,-6 9,7 17,19 17,26 0,8 8,16 18,18 16,4 16,5 -1,6 -14,1 -16,5 -7,20 10,19 9,19 -17,5 -45,-23 -63,-18 -63,16 0,32 -6,36 -30,20 z"
       id="path602"
       inkscape:connector-curvature="0" />
    <path
       d="m 1338,486 c -4,-17 -1,-23 9,-19 15,6 18,29 4,37 -5,3 -11,-5 -13,-18 z"
       id="path606"
       inkscape:connector-curvature="0" />
    <path
       d="m 734,437 c 3,-10 6,-26 6,-35 1,-15 2,-15 11,2 9,14 7,22 -6,35 -17,15 -17,15 -11,-2 z"
       id="path610"
       inkscape:connector-curvature="0" />
    <path
       d="m 770,431 c 0,-10 30,-24 37,-17 3,2 -5,9 -16,16 -12,6 -21,7 -21,1 z"
       id="path612"
       inkscape:connector-curvature="0" />
    <path
       d="m 702,388 c -2,-36 0,-38 28,-38 22,0 30,-5 30,-17 0,-15 2,-16 10,-3 16,25 12,30 -24,30 -32,0 -35,3 -39,33 -4,31 -4,31 -5,-5 z"
       id="path614"
       inkscape:connector-curvature="0" />
    <path
       d="m 557,388 c 5,-10 74,-10 90,0 6,4 -13,7 -42,7 -29,0 -51,-3 -48,-7 z"
       id="path618"
       inkscape:connector-curvature="0" />
  </g>
  <path
     style="fill:#000000"
     d="m 1085.0237,1333.5497 c -19.6159,-13.1398 -42.156,-32.3902 -95.0484,-81.1763 -21.51821,-19.8476 -32.82144,-29.0079 -36.85348,-29.8665 -3.19869,-0.681 -10.56789,-2.9137 -16.37601,-4.9614 -18.79622,-6.6265 -37.63253,-8.2373 -82.4018,-7.0463 -100.62362,2.6767 -206.42484,17.8964 -255.22052,36.714 -21.43825,8.2675 -31.84145,14.8779 -44.44024,28.2383 -8.08832,8.5773 -12.49448,11.866 -15.89775,11.866 -18.61851,0 -8.30739,-27.751 33.9943,-91.4913 44.61703,-67.2291 66.24953,-119.7345 76.2566,-185.0867 3.92055,-25.6035 4.36984,-77.7154 0.8882,-103.0125 -6.98356,-50.7411 -27.23787,-104.8797 -55.04046,-147.1201 -26.35462,-40.0405 -83.32957,-86.7739 -112.68606,-92.4302 -5.66582,-1.0916 -11.95991,-2.3431 -13.98685,-2.781 -2.02694,-0.4379 -7.48365,-4.3439 -12.126,-8.6801 -6.16472,-5.7582 -12.87229,-9.501 -24.87608,-13.8808 -33.38167,-12.1799 -81.00942,-21.9799 -98.60536,-20.2891 -11.94654,1.1479 -26.87091,8.82 -43.45502,22.3388 -7.63619,6.2248 -17.22619,14.0127 -21.31111,17.3065 -4.11137,3.3151 -9.56513,5.9886 -12.21612,5.9886 -3.53938,0 -7.9217,3.3283 -16.79469,12.7552 -6.60313,7.0153 -15.56562,14.5805 -19.91664,16.8116 -25.79522,13.2268 6.98072,-17.9731 40.61454,-38.6616 13.89881,-8.5493 25.00334,-15.8114 24.67672,-16.138 -0.5141,-0.5141 -56.63072,-4.2279 -138.4579,-9.1633 l -23.95474,-1.4448 46.92499,-1.3075 c 47.15114,-1.3137 75.07562,-3.8298 81.66898,-7.3584 2.71671,-1.4539 3.29831,-3.1573 2.47818,-7.2579 -1.25629,-6.2814 0.6057,-6.844 5.33944,-1.6133 5.22905,5.7781 15.39868,11.4715 18.41966,10.3123 1.49448,-0.5735 2.71723,-2.7677 2.71723,-4.876 0,-5.2804 12.91354,-10.9311 25.10048,-10.9833 20.70815,-0.089 60.51537,-12.9154 114.69919,-36.9583 34.31363,-15.2259 36.47426,-15.4636 31.50497,-3.4667 -3.60784,8.7101 -13.2939,15.7121 -40.78799,29.4853 -14.23243,7.1298 -25.44832,13.3921 -24.92419,13.9163 0.5241,0.5241 9.94105,2.9741 20.92648,5.4445 28.86804,6.4917 41.2439,11.0088 55.10465,20.1125 6.83346,4.4883 16.34189,8.9358 21.44236,10.0297 23.2021,4.9759 80.90286,52.4917 121.42365,99.9907 18.04993,21.1583 21.53116,26.9288 25.42104,42.1381 1.94835,7.618 7.73751,22.1021 12.86481,32.1868 15.2955,30.0845 24.07976,67.5258 27.96889,119.2121 4.41196,58.635 -4.01375,101.4794 -33.38755,169.7744 -21.9531,51.0417 -45.33142,89.5111 -67.32397,110.7827 -17.67755,17.098 -24.93683,29.5978 -19.23538,33.1215 0.972,0.601 7.60502,-4.2651 14.74004,-10.8129 10.11575,-9.2832 16.14951,-13.1301 27.39755,-17.4678 33.50971,-12.9227 85.2905,-19.31 195.64253,-24.1329 98.50462,-4.3051 150.04518,-5.8469 156.33584,-4.6768 16.21809,3.0168 23.12235,7.9112 47.46969,33.6509 27.3704,28.9358 60.588,57.2709 91.1231,77.7293 20.3568,13.6391 37.5169,21.7776 39.4211,18.6965 3.0471,-4.9303 7.3575,-53.4725 10.322,-116.2425 3.6092,-76.4221 7.1854,-88.7353 53.0341,-182.6011 24.0573,-49.2524 26.1834,-52.109 43.6461,-58.6427 10.3478,-3.8716 21.6512,-5.3887 104.0791,-13.969 87.6556,-9.1245 102.0235,-13.338 94.7468,-27.7854 -1.4904,-2.959 -7.0414,-9.5587 -12.3355,-14.6659 -5.2942,-5.1072 -10.455,-10.7348 -11.4684,-12.5057 -1.5525,-2.7126 -8.809,-3.9101 -46.0668,-7.6023 -24.3233,-2.4105 -57.906,-5.3042 -74.6283,-6.4305 -45.5089,-3.0652 -41.3065,-1.4364 -46.782,-18.1326 -5.5923,-17.0521 -13.8451,-49.9771 -20.4233,-81.4795 -6.8352,-32.7328 -11.2753,-46.5441 -20.405,-63.4717 -4.4026,-8.163 -10.6658,-22.7193 -13.9182,-32.3472 l -5.9136,-17.5054 -0.171,-55.2802 -0.171,-55.2801 5.6147,-13.8201 c 3.0882,-7.601 11.1703,-22.4628 17.9602,-33.0261 13.0332,-20.2762 15.7413,-29.1969 8.1994,-27.0094 -11.0468,3.204 -41.0549,9.3958 -76.9316,15.8738 -54.6642,9.8704 -67.7271,13.9398 -91.0761,28.3723 -30.7836,19.0279 -59.4405,25.7499 -109.77517,25.7499 -42.84232,0 -75.50733,-6.421 -109.11733,-21.4492 -10.94278,-4.8929 -13.83994,-7.3117 -22.41778,-18.7166 -25.83921,-34.355 -65.44634,-104.5029 -88.72504,-157.14016 -2.52647,-5.71283 -5.02285,-9.95773 -5.54748,-9.4331 -0.5246,0.5246 -1.80534,10.80983 -2.84601,22.85596 -2.39641,27.7391 -4.1927,35.6512 -11.43299,50.3583 -17.54765,35.6443 -60.71588,55.639 -135.41789,62.723 -33.27021,3.155 -104.04877,2.0094 -160.25245,-2.5936 -5.32072,-0.4358 -9.67403,-0.1791 -9.67403,0.5704 0,0.7495 9.17894,9.1492 20.39766,18.6661 21.13252,17.9269 44.09578,41.0101 44.09578,44.3261 0,2.5953 -20.25106,-11.7725 -47.59525,-33.7681 -25.50786,-20.5183 -41.31436,-28.9309 -64.80776,-34.4922 -26.11316,-6.1814 -34.15949,-9.0373 -38.51001,-13.6682 -3.96639,-4.222 -4.02352,-4.6938 -1.22407,-10.1073 1.61507,-3.1232 7.48071,-9.0355 13.03475,-13.1386 17.99946,-13.2969 20.35246,-20.0627 17.2977,-49.7378 -2.71006,-26.32638 -0.2688,-63.67754 3.56758,-54.58299 7.22311,17.12333 6.10661,83.93969 -1.67109,100.00619 -4.55943,9.4186 -3.9215,12.3032 3.57862,16.1816 23.38576,12.0933 241.73035,25.9235 282.06984,17.8667 16.41736,-3.2789 24.73808,-7.9883 37.39075,-21.1622 7.76193,-8.0818 13.44969,-16.5936 19.87792,-29.7478 11.33857,-23.2024 16.25151,-41.061 17.74232,-64.49358 0.6448,-10.1347 1.86095,-20.29243 2.70261,-22.57274 4.91279,-13.31029 22.8086,7.00326 48.29484,54.81952 5.67193,10.6414 11.9306,20.3471 13.9082,21.5682 1.97757,1.2211 8.8493,9.911 15.2705,19.3108 29.07352,42.5601 65.99496,70.3558 110.63967,83.2934 25.90452,7.5068 65.81286,12.8458 85.17061,11.3943 60.8872,-4.5657 114.0349,-15.398 172.4217,-35.1423 21.4727,-7.2613 54.3858,-13.8188 69.3584,-13.8188 8.2762,0 10.7319,0.8636 16.2617,5.7189 3.5825,3.1454 6.5135,6.8696 6.5135,8.2761 0,1.4064 -3.0276,6.503 -6.7281,11.3258 -11.8743,15.4756 -21.2693,40.6598 -29.2486,78.4039 -9.5618,45.2303 -9.2974,73.741 0.831,89.5695 7.4696,11.6736 13.0338,25.2245 13.0338,31.7423 0,11.6626 6.3716,35.7168 21.3345,80.5427 11.1453,33.3888 16.443,52.3539 18.6023,66.5941 l 3.0192,19.9103 17.6788,0.976 c 9.7233,0.537 25.5562,2.2804 35.1841,3.8751 23.1114,3.8279 77.3861,3.8678 106.2963,0.08 25.2286,-3.3072 32.094,-4.811 55.8589,-12.2356 19.6774,-6.1476 52.8675,-11.3329 91.2123,-14.2501 48.4742,-3.6879 143.6244,-6.0502 196.2446,-4.8721 94.6305,2.1185 134.4026,5.5128 186.3986,15.9079 45.3495,9.0664 60.0958,9.3039 114.3294,1.8411 73.4634,-10.1089 167.6192,-16.5392 325.7806,-22.2489 91.5544,-3.3052 163.8563,-7.2761 203.6153,-11.1829 16.7445,-1.6453 22.6315,-3.1011 33.853,-8.3716 39.2203,-18.4209 104.0151,-28.489 212.1437,-32.9637 14.6953,-0.6081 74.8125,-1.8695 133.5938,-2.8031 112.023,-1.7791 136.5737,-3.4724 158.1939,-10.9109 13.1307,-4.5176 20.2628,-9.521 27.1767,-19.0653 7.2115,-9.9552 10.0787,-20.4453 14.6391,-53.5601 4.3933,-31.9008 9.7074,-55.6382 19.2392,-85.9393 11.395,-36.2244 24.2136,-64.4415 29.2922,-64.4809 3.3125,-0.026 -0.757,13.4159 -12.3723,40.8665 -11.4214,26.9926 -17.9673,48.827 -20.614,68.7599 -0.673,5.0673 -2.8089,18.2921 -4.7467,29.3883 -1.9379,11.0963 -3.0912,21.5363 -2.5633,23.2001 1.2899,4.0637 -5.7167,26.6201 -11.2407,36.188 -7.917,13.7129 -7.5236,13.999 17.2231,12.522 17.6394,-1.0528 22.9497,-0.7577 28.5614,1.5869 6.3642,2.6592 6.8935,3.4569 6.8935,10.391 0,10.4035 -5.842,26.0063 -15.0009,40.0637 -9.8249,15.0798 -16.7594,20.3962 -26.5256,20.3359 -9.1929,-0.06 -17.3329,4.0332 -28.3241,14.2313 -13.5665,12.5876 -18.1662,14.1938 -42.3873,14.8017 -22.4246,0.563 -43.6388,4.3445 -91.3774,16.2896 -36.9843,9.2542 -67.2414,13.8849 -104.111,15.9339 -41.9778,2.3328 -246.9096,0.521 -264.4235,-2.338 -21.5108,-3.5113 -28.7424,-2.9284 -37.7676,3.0442 -35.2389,23.32 -90.5041,41.2181 -145.5783,47.1468 -98.7167,10.6267 -339.0316,10.5694 -409.0733,-0.1 -6.5875,-1.0032 -18.1963,-3.6327 -25.7974,-5.8433 -22.7962,-6.6296 -45.6995,-5.5665 -81.0776,3.7634 -46.8669,12.3598 -73.6614,13.7131 -302.1982,15.263 -104.8941,0.711 -193.2042,1.7885 -196.2446,2.3935 -3.0404,0.605 -20.4537,2.8207 -38.6961,4.9235 -18.2425,2.1029 -50.5814,6.2053 -71.8643,9.1165 -21.2828,2.9112 -46.1589,5.8435 -55.2801,6.5161 -26.3873,1.946 -33.1546,3.7616 -44.0677,11.8236 -12.0971,8.9367 -21.7923,23.9144 -39.478,60.9884 -29.5411,61.9257 -37.9025,93.6503 -46.3636,175.9106 -6.2049,60.326 -11.4431,88.3076 -19.5519,104.4434 -9.3251,18.5561 -17.0087,18.858 -42.6595,1.6757 l 0,0 z M 1797.6993,946.72 c 80.464,-6.812 92.7856,-8.2639 122.5377,-14.4394 27.7155,-5.7527 46.8317,-13.4982 54.296,-21.9994 6.6228,-7.5431 6.8494,-9.6706 1.7237,-16.1868 -13.7954,-17.5381 -81.2511,-32.5767 -183.1641,-40.8349 -44.7735,-3.628 -143.6917,-4.1799 -180.5819,-1.0075 -93.2042,8.0151 -190.9739,35.1612 -188.5289,52.3457 2.1231,14.9216 101.8552,36.5142 221.697,47.9988 21.6658,2.0763 88.6824,-0.514 152.0205,-5.8765 z m 594.2618,-15.8454 c 48.5309,-3.8148 95.4225,-10.4619 123.0826,-17.4475 23.4311,-5.9176 54.3115,-18.5682 59.6057,-24.4182 0.193,-14.2827 -32.3986,-17.3753 -44.0266,-18.9546 -81.3697,-10.6553 -239.6429,-13.8364 -329.3792,-6.6201 -90.5999,7.2858 -154.9413,20.7899 -173.0964,36.3301 -10.2909,8.8087 -10.1902,14.3478 0.346,18.9946 13.3354,5.8814 52.3298,11.3626 104.5716,14.6989 41.3732,2.6422 214.3797,0.916 258.8955,-2.5832 l 7e-4,0 z m 518.7123,-58.936 c 102.5547,-10.5668 175.5796,-27.8514 178.4075,-42.2279 1.5899,-8.0823 -21.3473,-20.8472 -43.7599,-24.3529 -57.0072,-8.917 -226.1501,-10.4327 -289.4321,-2.5937 -30.4947,3.7776 -121.7853,33.0414 -135.8971,43.5629 -7.5405,5.622 -7.5575,8.9056 -0.07,13.4591 10.2847,6.2546 48.2169,12.5702 92.6641,15.4285 29.1939,1.8774 170.801,-0.465 198.0873,-3.276 z M 3130.67,845.6541 c 18.5524,-21.9915 23.2293,-24.5642 38.7983,-21.3427 14.1183,2.9214 15.7633,1.3257 15.7633,-15.2911 0,-14.8616 -3.359,-25.878 -8.4909,-27.8473 -1.7212,-0.6605 -6.5265,-0.1976 -10.6786,1.0286 -4.1521,1.2262 -17.7931,5.056 -30.3133,8.5108 -24.6852,6.8115 -31.5948,10.1979 -31.5948,15.4848 0,5.3494 4.7377,8.0163 12.8641,7.2413 7.8365,-0.747 9.1002,0.297 4.7382,3.9174 -4.495,3.7306 -8.976,17.875 -7.6939,24.2859 2.5156,12.5782 8.2189,13.9561 16.6076,4.0123 z"
     id="path4035"
     inkscape:connector-curvature="0"
     sodipodi:nodetypes="csccssssssssssssssssssscscsssssscssssssssssssscssssssssssscscssssssccccssssssssssssssssssssssssssssssssssssscsssssssccscsssssssssssssscscscssssscssssssscssssssssssscccsscsssssscsccsssscccccsssssccsssssssccss" />
  <path
     style="fill:#000000"
     d="m 950.52652,1087.5198 c -18.04346,-1.4086 -35.34027,-7.524 -47.76787,-16.8884 -16.03655,-12.0839 -47.03989,-51.2381 -62.70186,-79.1862 -12.27148,-21.898 -17.72178,-37.7399 -17.69927,-51.4449 0.014,-8.6786 1.32198,-15.3056 4.76206,-24.1324 11.94681,-30.6536 41.5075,-54.6498 70.64139,-57.3438 19.72381,-1.8238 50.31236,13.9573 80.46699,41.5143 12.11384,11.0702 21.10984,21.9599 32.63784,39.5081 6.0632,9.2295 8.6157,14.625 11.2985,23.8828 11.5654,39.9097 6.6754,89.1813 -10.5391,106.1917 -3.9447,3.8979 -12.3712,9.5086 -17.4493,11.6184 -12.6068,5.2378 -28.22346,7.4847 -43.64938,6.2804 z m 23.33203,-15.9057 c 23.41625,-8.7199 22.20465,-8.4525 26.37785,-12.9799 6.6016,-7.1618 7.9513,-13.5546 8.412,-39.8416 0.397,-22.6527 -0.372,-31.2143 -4.1212,-45.8752 -4.0584,-15.8707 -10.1355,-29.3238 -19.8376,-43.9151 -7.42816,-11.1717 -13.91945,-18.8221 -25.77138,-30.3735 -19.23094,-18.7433 -29.79014,-25.9996 -43.24604,-29.719 -6.36257,-1.7587 -21.35249,-1.6155 -28.19865,0.269 -11.21712,3.0882 -22.4538,9.7833 -31.43886,18.732 -11.69423,11.6468 -21.35224,30.4752 -23.27544,45.3756 -2.77963,21.5358 13.54046,57.1258 40.27195,87.8231 5.23868,6.0159 18.47155,19.3299 24.39948,24.5491 16.50866,14.5349 36.54567,22.306 52.39802,27.0177 24.02987,-1.0622 0,0 24.02987,-1.0622 z"
     id="path4037"
     inkscape:connector-curvature="0"
     sodipodi:nodetypes="ssscsssssssscsscssscsssscc" />
  <path
     style="fill:#000000"
     d="m 3304.4846,945.0804 c -4.0171,-2.425 -15.0042,-11.6692 -31.3443,-26.372 -22.1748,-19.9529 -35.011,-29.1737 -42.9963,-30.8863 -9.0823,-1.9478 -22.5326,-11.1466 -29.8689,-20.4276 -3.7542,-4.7495 -5.0172,-8.8769 -4.1205,-13.4657 0.896,-4.5851 9.254,-15.926 23.525,-31.9207 16.9379,-18.9837 23.5085,-27.7884 29.5431,-39.5884 8.0538,-15.7483 10.9697,-27.5106 15.9891,-64.4977 4.8575,-35.7936 8.6417,-54.5455 12.5226,-62.0534 2.1077,-4.0776 3.1759,-1.5531 3.5818,8.4652 0.311,7.6702 -0.118,11.7208 -2.7385,25.8868 -6.0113,32.494 -7.3547,48.3131 -4.4545,52.4538 0.78,1.1131 1.8735,1.8528 2.4307,1.6438 4.8534,-1.8205 4.9906,-1.776 4.9906,1.6181 0,4.7265 -4.6136,17.7508 -10.9474,30.9049 -6.6968,13.9078 -12.1493,22.8073 -21.4402,34.9945 -7.3256,9.6093 -10.4721,15.7228 -9.5643,18.5831 1.4289,4.5018 10.0165,5.553 33.555,4.1073 l 10.6066,-0.652 -8.3969,1.8073 c -16.976,3.6538 -16.8219,5.7753 2.0499,28.2218 5.109,6.0767 9.1548,11.1838 8.9907,11.3491 -0.164,0.165 -4.0081,-2.3752 -8.5421,-5.6455 -8.9342,-6.4439 -14.1214,-9.1893 -17.4199,-9.2197 -1.9676,-0.02 -2.0725,0.226 -1.6064,3.7371 1.1756,8.8548 21.1851,43.7582 37.741,65.8332 8.8326,11.777 11.7887,16.1434 11.2763,16.6559 -0.17,0.17 -1.6833,-0.52 -3.3622,-1.5334 z m -49.538,-71.8959 c -0.03,-7.6479 -0.506,-14.7544 -1.1215,-16.7938 l -1.067,-3.5355 -4.8724,0.291 c -5.6708,0.339 -12.6511,-1.7552 -22.298,-6.6889 -8.7392,-4.4693 -15.7745,-5.025 -19.8804,-1.5701 -3.7017,3.1148 -3.6696,6.1124 0.124,11.6178 4.182,6.0685 12.3571,11.9392 29.381,21.099 8.1315,4.3752 15.617,8.6149 16.6345,9.4216 1.3412,1.0633 2.0292,1.1848 2.5019,0.442 0.359,-0.564 0.627,-6.9909 0.598,-14.2829 z"
     id="path4039"
     inkscape:connector-curvature="0" />
  <path
     style="fill:#000000"
     d="m 3287.9036,1052.592 c -5.3798,-5.3839 -6.9458,-9.9791 -8.2765,-24.286 -1.1749,-12.6324 -3.1666,-19.0955 -8.7442,-28.3758 -5.867,-9.7618 -10.4697,-15.7337 -18.8798,-24.496 -11.822,-12.3172 -22.8452,-19.6066 -29.6494,-19.6066 -3.8793,0 -5.5893,1.2834 -8.2436,6.1872 -2.1919,4.0495 -3.2136,2.6017 -4.1183,-5.8363 -0.854,-7.9688 -1.9339,-11.2709 -6.9126,-21.1475 -4.8101,-9.542 -12.7953,-21.5198 -21.6298,-32.4447 -13.0095,-16.0876 -20.8574,-29.3312 -21.6739,-36.5752 -0.777,-6.8949 3.3521,-4.2999 10.008,6.2895 10.0376,15.9698 27.6124,36.0187 66.2461,75.572 36.9887,37.8693 51.0558,59.0308 54.7531,82.3664 2.4673,15.5729 3.2249,23.6982 2.3545,25.2535 -0.727,1.2984 -1.4242,0.912 -5.2336,-2.9005 z"
     id="path4041"
     inkscape:connector-curvature="0" />
  <path
     style="fill:#000000"
     d="m 3282.5273,1110.0342 c -1.0186,-3.6689 -1.3471,-27.6877 -0.426,-31.1258 1.4301,-5.3364 3.655,0.76 4.4568,12.2122 0.627,8.9495 -0.246,18.5721 -1.8875,20.8171 -1.0676,1.46 -1.2563,1.2925 -2.1436,-1.9035 z"
     id="path4043"
     inkscape:connector-curvature="0" />
  <path
     style="fill:#000000"
     d="m 3292.594,1170.8696 c -0.976,-2.3476 -1.6501,-23.1657 -0.935,-28.8885 0.69,-5.5257 1.4248,-6.1185 3.1306,-2.5267 1.4199,2.99 2.3012,25.0391 1.1723,29.329 -0.914,3.4745 -2.4061,4.3986 -3.3678,2.0862 z"
     id="path4045"
     inkscape:connector-curvature="0" />
  <path
     style="fill:#000000"
     d="m 3441.2221,1244.7132 c -3.2325,-5.0182 -5.7758,-15.2149 -15.5071,-62.1695 -2.9218,-14.0979 -6.5465,-31.4 -8.0549,-38.4489 -3.8612,-18.0436 -6.1034,-33.167 -6.7619,-45.6087 -0.664,-12.5372 0.308,-14.5654 3.2455,-6.7719 9.464,25.1121 32.9431,150.5302 28.9313,154.542 -0.287,0.287 -1.1211,-0.407 -1.8529,-1.543 z"
     id="path4047"
     inkscape:connector-curvature="0" />
  <path
     style="fill:#000000"
     d="m 3546.8491,1151.1658 c 0,-1.2153 0.201,-1.7125 0.446,-1.1048 0.245,0.608 0.245,1.602 0,2.2097 -0.245,0.608 -0.446,0.111 -0.446,-1.1049 z"
     id="path4051"
     inkscape:connector-curvature="0" />
  <path
     style="fill:#000000"
     d="m 3532.752,1103.0281 c -2.4293,-3.0883 -5.8144,-11.8157 -8.5042,-21.9249 -5.3904,-20.2587 -14.2453,-37.6112 -26.8956,-52.7057 -3.0134,-3.5957 -5.2945,-6.7221 -5.0691,-6.9476 0.501,-0.501 12.6936,9.3852 17.0359,13.8129 11.5443,11.7712 23.7037,35.4124 27.2513,52.9839 2.3482,11.6305 0.211,19.9038 -3.8183,14.7814 z"
     id="path4053"
     inkscape:connector-curvature="0" />
  <path
     style="fill:#000000"
     d="m 3400.5214,1065.7988 c -0.295,-0.769 -0.541,-2.6583 -0.547,-4.1985 -0.01,-3.2781 -4.1214,-21.462 -7.4152,-32.8141 -1.2633,-4.3542 -2.2957,-8.3317 -2.2942,-8.8388 0,-1.3045 6.6803,8.738 9.6702,14.5458 5.5035,10.6906 6.8258,21.1664 3.6166,28.653 -1.9028,4.439 -2.2337,4.7287 -3.0304,2.6526 z"
     id="path4055"
     inkscape:connector-curvature="0" />
  <path
     style="fill:#000000"
     d="m 3442.5693,994.2928 c -3.5317,-1.6925 -8.2935,-4.3568 -10.5817,-5.9206 -6.905,-4.7191 -19.7467,-15.0431 -19.2854,-15.5045 0.518,-0.518 25.6669,10.84 35.0124,15.8131 6.5362,3.4781 10.6066,6.5326 10.6066,7.9595 0,0.401 -2.0994,0.73 -4.6653,0.73 -3.5083,0 -6.2579,-0.763 -11.0866,-3.0773 z"
     id="path4057"
     inkscape:connector-curvature="0" />
  <path
     style="fill:#000000"
     d="m 3343.3237,986.1006 c -10.0953,-10.2351 -24.6561,-26.825 -24.6561,-28.0922 0,-1.0678 26.3785,21.8164 32.9247,28.5632 7.1429,7.3618 8.686,10.7985 4.8486,10.7985 -1.3935,0 -5.3779,-3.4231 -13.1172,-11.2695 z"
     id="path4059"
     inkscape:connector-curvature="0" />
  <path
     style="fill:#000000"
     d="m 3372.0459,946.1901 c -1.5116,-0.922 -4.097,-3.3458 -5.7453,-5.3867 -6.9099,-8.5562 -8.3929,-9.9671 -15.252,-14.5102 -7.76,-5.14 -20.5778,-11.7481 -36.9259,-19.037 -12.7486,-5.6841 -21.5296,-11.289 -21.5296,-13.7424 0,-9.458 49.2705,14.5357 69.6492,33.9177 7.2379,6.8839 13.8778,15.8838 13.8778,18.8104 0,2.0488 -0.643,2.0406 -4.0742,-0.05 z"
     id="path4061"
     inkscape:connector-curvature="0" />
  <path
     style="fill:#000000"
     d="m 3362.4199,795.8815 c -8.0328,-0.8329 -5.1214,-1.7062 23.556,-7.0655 36.4618,-6.8141 49.766,-13.3549 69.1003,-33.9717 5.7503,-6.1318 11.0722,-11.1487 11.8264,-11.1487 2.1384,0 0.971,6.9991 -2.2638,13.5693 -5.3932,10.9551 -19.4455,22.3888 -36.3696,29.5923 -19.2313,8.1856 -42.7947,11.4148 -65.8493,9.0243 z"
     id="path4063"
     inkscape:connector-curvature="0" />
  <path
     style="fill:#000000"
     d="m 3482.5103,687.7899 c 1.2141,-11.7999 9.4745,-43.0895 12.4498,-47.1584 2.0037,-2.7402 2.6526,-0.7413 2.991,9.2132 0.384,11.3085 -1.6603,21.2786 -6.5214,31.7999 -2.9963,6.4851 -6.838,11.6696 -8.6472,11.6696 -0.503,0 -0.612,-2.222 -0.272,-5.5243 z"
     id="path4065"
     inkscape:connector-curvature="0" />
  <path
     style="fill:#000000"
     d="m 3509.5865,602.9122 c 0,-5.0857 3.6157,-13.793 8.9979,-21.6683 4.568,-6.6839 15.0366,-19.7532 15.473,-19.3169 0.497,0.4973 -11.118,26.3551 -15.3448,34.16 -3.612,6.6699 -7.0888,11.4905 -8.2872,11.4905 -0.461,0 -0.839,-2.0994 -0.839,-4.6653 z"
     id="path4067"
     inkscape:connector-curvature="0" />
  <path
     style="fill:#000000"
     d="m 3311.5665,816.1178 c -1.5624,-2.9193 0.111,-8.5285 9.6516,-32.3599 4.8317,-12.0685 10.4394,-26.3179 12.4614,-31.6654 4.7524,-12.5681 9.1563,-21.7397 11.4243,-23.7922 1.7656,-1.5978 1.8209,-1.5851 2.655,0.6087 3.8985,10.2538 -18.1044,71.7523 -30.6331,85.62 -3.5369,3.915 -4.2112,4.1077 -5.5592,1.5888 z"
     id="path4069"
     inkscape:connector-curvature="0" />
  <path
     style="fill:#000000"
     d="m 3310.7259,705.0257 c 0.01,-0.3646 1.0042,-3.8449 2.2154,-7.734 2.8218,-9.0612 5.8195,-24.481 9.1928,-47.2878 1.4741,-9.9658 3.8666,-25.6868 5.3168,-34.9357 3.2982,-21.0355 6.8,-52.0502 8.031,-71.1303 1.5555,-24.1084 6.2453,-56.036 10.6462,-72.4784 5.7671,-21.5465 13.0324,-31.6628 23.3541,-32.5188 4.8546,-0.4026 4.8701,-0.3959 4.8701,2.1035 0,1.8759 -1.1764,3.6287 -4.6706,6.9596 -6.3114,6.0163 -8.2764,9.0053 -11.2107,17.052 -6.1995,17.001 -10.9638,46.256 -17.3085,106.2825 -5.574,52.735 -14.8082,105.6213 -20.8345,119.3243 -1.6947,3.8533 -8.5928,15.026 -9.2772,15.026 -0.186,0 -0.332,-0.2983 -0.325,-0.6629 z"
     id="path4071"
     inkscape:connector-curvature="0" />
  <path
     style="fill:#000000"
     d="m 3231.7493,714.4371 c -2.7411,-10.1525 -2.9279,-69.2847 -0.263,-83.2683 1.959,-10.2798 3.9396,-11.8638 5.7658,-4.6113 4.4915,17.8374 1.79,80.8081 -3.7944,88.4452 -1.0532,1.4403 -1.178,1.399 -1.7085,-0.5656 z"
     id="path4073"
     inkscape:connector-curvature="0" />
  <path
     style="fill:#000000"
     d="m 3272.7057,595.6964 c 0,-3.4708 4.0022,-13.2485 8.6136,-21.0438 4.313,-7.2908 11.1634,-15.6887 12.7979,-15.6887 4.9409,0 -12.7729,34.3298 -19.5987,37.9829 -1.6042,0.8586 -1.8128,0.7147 -1.8128,-1.2504 z"
     id="path4075"
     inkscape:connector-curvature="0" />
  <path
     style="fill:#000000"
     d="m 3236.0974,596.2527 c -6.6277,-1.5617 -0.898,-5.5545 8.766,-6.109 5.1822,-0.2973 6.6741,-0.049 9.1856,1.5319 2.7633,1.7389 2.8862,1.9991 1.5675,3.3179 -1.5637,1.5637 -14.6456,2.4076 -19.5191,1.2592 z"
     id="path4077"
     inkscape:connector-curvature="0" />
  <path
     style="fill:#000000"
     d="m 3222.4817,529.3934 c -3.752,-1.704 -3.5507,-4.5641 0.487,-6.9153 3.5361,-2.0593 14.634,-4.1009 22.5143,-4.142 17.0782,-0.089 23.6798,-5.8098 23.6909,-20.5306 0.01,-6.6152 2.2904,-20.054 5.037,-29.6184 2.115,-7.3652 2.2285,-8.4914 1.201,-11.9206 -1.8058,-6.0274 -5.8133,-9.0704 -16.219,-12.3157 -8.9008,-2.776 -8.9831,-2.8267 -5.9325,-3.6525 1.7015,-0.4606 6.6734,-0.6819 11.0486,-0.492 10.086,0.438 14.5011,2.6166 17.4566,8.6139 3.5527,7.2092 2.4515,30.3788 -2.5653,53.9752 -3.5062,16.4911 -9.1414,22.5703 -24.1721,26.0771 -9.241,2.1559 -28.6195,2.7043 -32.5463,0.9209 z"
     id="path4079"
     inkscape:connector-curvature="0" />
  <path
     style="fill:#000000"
     d="m 3325.5451,465.7142 c -1.9844,-5.6 -8.2196,-108.33682 -10.4068,-171.47337 -2.6224,-75.69664 -3.6318,-164.40747 -1.8355,-161.30873 4.2262,7.29042 11.9752,161.91492 13.6874,273.12 0.457,29.6779 -0.344,62.7679 -1.4451,59.6621 z"
     id="path4081"
     inkscape:connector-curvature="0" />
  <path
     style="fill:#000000"
     d="m 3439.2854,397.4716 c -0.381,-0.8713 -0.873,-7.3206 -1.095,-14.3318 -0.317,-10.0407 0.227,-19.42513 2.5638,-44.19418 l 2.9668,-31.44654 1.4871,21.2132 c 1.8384,26.22429 1.977,48.93272 0.354,58.03212 -1.7659,9.9017 -4.5551,14.6684 -6.2768,10.7272 z"
     id="path4085"
     inkscape:connector-curvature="0" />
  <path
     style="fill:#000000"
     d="m 3579.0992,1544.5559 c -3.7474,-9.3658 -6.2877,-34.299 -8.156,-80.0534 -1.4519,-35.5546 -1.3468,-63.4571 0.245,-65.0488 2.6147,-2.6148 7.0834,29.281 10.1042,72.1199 1.4295,20.2731 1.5995,72.7122 0.243,75.0028 -0.867,1.4643 -1.1286,1.2474 -2.4362,-2.0205 z"
     id="path4089"
     inkscape:connector-curvature="0" />
  <path
     style="fill:#000000"
     d="m 3562.5723,1380.5336 c -1.3472,-3.3601 -1.4961,-29.1667 -0.186,-32.2617 l 0.935,-2.2098 1.0845,2.6517 c 2.9379,7.1835 3.2181,29.0408 0.421,32.8492 -1.1166,1.5202 -1.2583,1.4555 -2.2546,-1.0294 z"
     id="path4091"
     inkscape:connector-curvature="0" />
  <path
     style="fill:#000000"
     d="m 3542.5803,1167.5052 c -1.1333,-4.0854 -0.921,-38.1614 0.245,-39.3263 4.1145,-4.1104 5.5063,33.2512 1.4979,40.2102 -0.952,1.653 -1.0537,1.6016 -1.7431,-0.884 z"
     id="path4093"
     inkscape:connector-curvature="0" />
  <path
     style="fill:#000000"
     d="m 3324.8599,1197.5995 c -3.513,-0.882 -4.8495,-3.016 -3.5107,-5.6049 0.995,-1.9233 5.5151,-3.2823 9.2285,-2.7745 4.521,0.618 7.203,3.4438 5.8156,6.1267 -0.85,1.6439 -2.8828,2.3703 -6.9034,2.4668 -1.8964,0.05 -3.9799,-0.05 -4.63,-0.214 z"
     id="path4095"
     inkscape:connector-curvature="0" />
  <path
     style="fill:#000000"
     d="m 1095.1959,1470.7725 c 0,-0.594 2.2817,-5.0379 5.0705,-9.8751 7.6773,-13.316 15.9685,-33.2498 18.9231,-45.4949 7.2392,-30.0028 5.288,-28.2075 31.6261,-29.0983 18.1812,-0.615 19.1599,-0.786 27.1927,-4.74 9.041,-4.4509 16.5449,-11.9753 17.8448,-17.8937 1.6845,-7.6695 -1.4113,-13.2268 -11.9072,-21.3747 l -4.375,-3.3963 4.375,0.728 c 10.1643,1.6909 19.3798,11.3569 24.5836,25.7853 3.1573,8.7543 7.8631,13.752 15.0373,15.9699 2.6147,0.808 17.1291,1.8638 32.2541,2.3453 30.9139,0.984 34.4063,1.8673 37.5985,9.5071 2.0166,4.8265 2.4945,27.4909 0.604,28.6591 -0.645,0.399 -2.1916,-0.767 -3.4375,-2.5902 -5.9456,-8.7 -12.4217,-14.32 -19.2224,-16.6812 -18.6292,-6.4682 -75.3118,-6.8044 -100.5428,-0.596 -16.5414,4.0699 -26.875,12.092 -26.875,20.8633 0,4.0721 5.8084,15.6736 10.7906,21.5527 l 3.1779,3.75 -0.602,-3.75 c -0.331,-2.0625 -1.3372,-6.971 -2.236,-10.9077 -2.0636,-9.0385 -0.69,-13.9197 4.0729,-14.4751 2.817,-0.328 3.837,0.586 7.1917,6.4497 5.9461,10.3926 12.436,11.6777 35.3708,7.0039 6.8935,-1.4049 13.0325,-2.388 13.6422,-2.1848 0.61,0.203 -6.1715,4.7358 -15.0691,10.0725 -18.4129,11.0437 -29.2608,20.244 -31.3565,26.5942 -0.785,2.3773 -1.861,4.3223 -2.392,4.3223 -3.0117,0 -12.7413,-9.2923 -24.0673,-22.9855 -7.0941,-8.5768 -13.2434,-15.4919 -13.6651,-15.3669 -0.422,0.125 -7.3647,8.1024 -15.4287,17.7274 -16.726,19.9638 -18.1795,21.5693 -18.1795,20.0804 z"
     id="path4097"
     inkscape:connector-curvature="0" />
  <path
     style="fill:#000000"
     d="m 1312.8182,1378.6305 c -0.755,-2.1651 -1.3723,-7.4782 -1.3723,-11.8069 0,-12.5706 -2.3965,-38.1763 -5.7104,-61.0139 -1.6866,-11.6229 -2.8578,-21.3411 -2.6028,-21.5962 0.638,-0.637 10.1106,29.214 13.163,41.4786 7.0413,28.2922 8.4224,47.717 3.8095,53.5814 -3.4227,4.3511 -5.6135,4.1578 -7.287,-0.643 z"
     id="path4099"
     inkscape:connector-curvature="0" />
  <path
     style="fill:#000000"
     d="m 1302.7523,1463.6093 c -1.3238,-2.1768 -2.7712,-6.1143 -3.2165,-8.75 -0.905,-5.3574 0.318,-14.7922 1.918,-14.7922 0.571,0 2.2306,1.9294 3.6881,4.2876 3.6595,5.9212 10.8335,11.9679 14.16,11.9349 3.5712,-0.04 11.93,-3.8452 18.7863,-8.5624 8.4116,-5.7874 19.7973,-11.1639 24.6077,-11.6202 3.6688,-0.348 4.4362,0.01 4.7542,2.2431 0.88,6.1669 -25.2884,21.599 -45.2667,26.6949 -13.9431,3.5565 -16.5105,3.3668 -19.4311,-1.4357 z"
     id="path4101"
     inkscape:connector-curvature="0" />
  <path
     style="fill:#000000"
     d="m 1234.3421,1517.6813 c -25.9795,-10.9563 -42.8962,-20.3926 -42.8962,-23.9279 0,-5.7256 41.0605,7.5975 59.0625,19.1644 6.5092,4.1824 7.1875,5.0325 7.1875,9.0087 0,2.707 -0.599,4.3705 -1.5625,4.3382 -0.859,-0.03 -10.6655,-3.8913 -21.7913,-8.5834 z"
     id="path4103"
     inkscape:connector-curvature="0" />
  <path
     style="fill:#000000"
     d="m 1230.1959,1420.0671 c -4.0674,-7.6001 10.504,-13.8161 23.75,-10.1316 4.9989,1.3905 3.668,3.9549 -4.375,8.4294 -9.0194,5.0176 -17.2153,5.7377 -19.375,1.7022 z"
     id="path4105"
     inkscape:connector-curvature="0" />
  <path
     style="fill:#000000"
     d="m 1070.3271,1415.8501 c -1.8937,-2.2817 1.6652,-4.5779 12.3688,-7.9799 11.2895,-3.5883 14.8392,-4.2726 17.6063,-3.3944 5.5722,1.7686 -0.06,8.4436 -9.5303,11.2936 -7.6786,2.3109 -18.5583,2.3539 -20.4448,0.08 z"
     id="path4107"
     inkscape:connector-curvature="0" />
  <path
     style="fill:#000000"
     d="m 1034.6538,1424.3399 c -8.4985,-3.1127 -13.2079,-9.2394 -13.2079,-17.1827 0,-4.3072 2.6383,-7.9248 4.8035,-6.5866 0.64,0.395 1.5536,2.8344 2.031,5.4202 1.4509,7.8588 8.0044,13.0266 20.978,16.5422 3.2656,0.885 5.9375,2.0984 5.9375,2.6965 0,1.7401 -15.1544,1.0838 -20.5421,-0.89 z"
     id="path4109"
     inkscape:connector-curvature="0" />
  <path
     style="fill:#000000"
     d="m 390.15977,1520.3528 c -0.013,-1.1394 1.34026,-26.113 2.17554,-40.1562 0.3856,-6.483 0.1049,-10.4175 -0.9554,-13.3897 -0.3466,-0.972 -1.05996,-3.1025 -1.58526,-4.7353 -2.00249,-6.2245 -4.54565,-9.0533 -8.15218,-9.068 -1.91887,-0.01 -5.27377,-0.775 -6.80485,-1.556 -1.96602,-1.003 -3.96378,-2.9975 -4.55625,-4.5489 -0.6736,-1.7637 -0.4909,-4.5386 0.3607,-5.4811 4.46501,-4.941 28.49915,-6.9045 60.91219,-4.9763 35.25804,2.0975 48.93263,0.765 58.67132,-5.7148 3.04749,-2.0279 7.6963,-6.7176 10.55805,-10.651 8.08632,-11.1145 11.5281,-15.2263 14.25901,-17.0352 1.59332,-1.0554 3.0511,-1.2616 3.35318,-0.474 0.376,0.98 0.1775,3.8285 -0.4332,6.216 -3.45775,13.5197 -22.30221,28.8744 -43.90838,35.777 -7.61407,2.4326 -12.02775,3.0875 -23.28125,3.4549 -9.23376,0.301 -13.80078,0.824 -16.10201,1.8417 -3.9721,1.7571 -3.52865,4.4165 1.68181,10.0862 4.95994,5.397 7.98812,11.1261 9.87567,18.6838 1.16428,4.6619 1.41993,7.047 1.41411,13.1934 -0.011,11.6364 -1.07642,15.4401 -3.27428,11.6897 -0.4433,-0.756 -1.97478,-4.3072 -3.40322,-7.8906 -6.94883,-17.4316 -12.1455,-25.9408 -17.71734,-29.0108 -2.29943,-1.2669 -5.02208,-1.303 -7.31849,-0.1 -3.20474,1.6832 -6.65842,6.0369 -9.83076,12.3929 -2.76297,5.5357 -4.0629,8.9742 -13.01211,34.4184 -2.27503,6.4683 -2.91573,8.0076 -2.92665,7.0312 z"
     id="path4111"
     inkscape:connector-curvature="0" />
  <path
     style="fill:#000000"
     d="m 393.89804,1558.1046 c -8.5558,-1.4438 -22.66397,-8.4103 -33.61328,-16.5978 -7.26984,-5.4362 -12.43071,-11.8335 -16.56123,-20.529 -3.42782,-7.2162 -5.02316,-13.9938 -4.73976,-20.1363 0.1851,-4.0123 0.8168,-6.2918 2.36842,-8.5471 4.00921,-5.8271 14.40901,-5.1096 14.4245,0.995 0.003,1.0827 -0.3431,2.1334 -1.39899,4.2507 -2.00959,4.0296 -2.48107,6.0988 -2.4565,10.7813 0.022,4.2415 0.4802,6.866 1.96203,11.2455 0.4952,1.4634 1.06891,3.5045 1.27498,4.5357 0.7632,3.8194 3.12559,7.0303 7.64608,10.3922 3.99626,2.9721 9.65051,5.0514 12.55269,4.6162 1.93581,-0.29 3.2145,-1.4908 3.44879,-3.2379 l 0.1816,-1.3545 1.12719,0.209 c 3.51352,0.65 8.36919,2.9445 12.12235,5.7273 3.23584,2.3992 5.5007,4.7053 7.59115,7.7292 4.63354,6.7027 3.54491,10.2272 -3.11756,10.0934 -1.11719,-0.02 -2.38281,-0.1 -2.8125,-0.173 z"
     id="path4113"
     inkscape:connector-curvature="0" />
  <path
     style="fill:#000000"
     d="m 291.48902,1526.9126 c -2.28776,-1.6024 -3.33039,-12.5281 -1.81414,-19.0103 1.18595,-5.0701 3.12408,-8.8248 6.08278,-11.7839 3.32263,-3.3231 5.09377,-3.7745 6.48323,-1.6523 0.4735,0.723 0.5626,1.5357 0.5584,5.0924 -0.006,4.7516 -0.5725,7.5041 -3.12433,15.1693 -2.28711,6.8701 -4.44645,10.987 -6.35145,12.1094 -1.11896,0.659 -1.00748,0.655 -1.83451,0.08 z"
     id="path4115"
     inkscape:connector-curvature="0" />
  <path
     style="fill:#000000"
     d="m 396.18409,1597.6944 c -5.19661,-2.0938 5.36559,-17.0772 16.15145,-22.9123 2.23989,-1.2118 4.36365,-1.8777 5.09417,-1.5974 0.8029,0.308 1.25265,1.9023 1.07758,3.8196 -0.6389,6.9968 -10.24971,18.0936 -17.65051,20.3794 -2.15182,0.665 -3.56151,0.758 -4.67269,0.311 z"
     id="path4117"
     inkscape:connector-curvature="0" />
  <path
     style="fill:#000000"
     d="m 220.14804,1466.6094 c -5.07031,-0.226 -10.625,-0.436 -12.34375,-0.465 l -3.125,-0.05 7.1875,-1.6956 c 3.95313,-0.933 11.40625,-2.6936 16.5625,-3.9136 5.15625,-1.22 11.28121,-2.8369 13.61103,-3.5931 9.69366,-3.1463 15.42926,-7.0885 17.92104,-12.3176 l 0.9679,-2.0313 0,-7.1875 c 0,-6.8254 0.036,-7.2655 0.7138,-8.7358 2.64728,-5.7419 9.32356,-10.022 19.91119,-12.7649 3.02232,-0.783 32.10517,-6.5444 44.53125,-8.8218 15.82022,-2.8994 26.53241,-4.2766 28.19716,-3.6252 1.30923,0.512 0.8309,1.1065 -2.85106,3.5414 -6.0854,4.0243 -9.53447,7.2187 -9.90039,9.1692 -0.4175,2.2254 1.20533,3.7082 7.22726,6.6039 1.96736,0.946 3.57703,1.8322 3.57703,1.9693 0,0.902 -7.73023,0.547 -17.8125,-0.818 -12.37979,-1.6756 -15.69186,-2.007 -21.94112,-2.1959 -7.44177,-0.225 -10.75927,0.101 -15.09013,1.4844 -7.51387,2.3993 -12.60311,7.0967 -20.625,19.0371 -8.00886,11.9209 -14.33812,18.0886 -22.95762,22.3716 -8.3201,4.1342 -14.66622,4.8939 -33.76113,4.0412 z"
     id="path4119"
     inkscape:connector-curvature="0" />
  <path
     style="fill:#000000"
     d="m 316.71054,1396.5664 c -7.94895,-2.3472 -19.12476,-8.6295 -24.09984,-13.5474 -3.23587,-3.1987 -4.66171,-6.0499 -4.01116,-8.0211 0.4105,-1.2438 1.66273,-1.5382 4.43802,-1.0432 5.45968,0.974 12.1277,4.5666 21.56326,11.619 6.15137,4.5977 9.60972,8.2451 9.60972,10.1351 0,1.8088 -3.08427,2.1615 -7.5,0.858 z"
     id="path4121"
     inkscape:connector-curvature="0" />
  <path
     style="fill:#000000"
     d="m 381.57661,1417.518 c -0.6697,-0.67 -0.6164,-1.9525 0.1775,-4.2733 1.54417,-4.5137 3.89285,-8.1974 7.34342,-11.5176 6.29935,-6.0614 9.40909,-3.7451 5.64373,4.2036 -0.765,1.6149 -1.99636,3.8331 -2.73635,4.9292 -3.38605,5.0155 -8.68666,8.3998 -10.42834,6.6581 z"
     id="path4123"
     inkscape:connector-curvature="0" />
  <path
     style="fill:#000000"
     d="m 431.60272,1357.4376 c -0.6908,-0.763 -0.6517,-1.8454 0.1514,-4.1929 2.47376,-7.2309 9.2046,-14.9231 13.05795,-14.9231 2.55358,0 2.05858,3.8844 -1.25786,9.871 -2.64351,4.7718 -6.4088,8.5877 -9.34059,9.4661 -1.59696,0.479 -2.00942,0.444 -2.61093,-0.221 z"
     id="path4125"
     inkscape:connector-curvature="0" />
  <path
     style="fill:#000000"
     d="m 461.57661,1347.518 c -0.6697,-0.67 -0.6164,-1.9525 0.1775,-4.2733 2.47376,-7.2309 9.20459,-14.9231 13.05795,-14.9231 2.88506,0 1.60417,5.7075 -2.80422,12.4953 -3.21069,4.9437 -8.67707,8.4553 -10.43127,6.7011 z"
     id="path4127"
     inkscape:connector-curvature="0" />
  <path
     style="fill:#000000"
     d="m 505.14803,1307.5986 c -2.10253,-0.489 -2.88396,-0.903 -3.72577,-1.9735 -1.30223,-1.6555 -0.5102,-3.9597 1.78888,-5.204 1.92108,-1.0397 4.89742,-1.6062 7.03555,-1.339 2.38575,0.298 5.36402,1.7691 5.97538,2.9513 0.6129,1.1853 0.6276,2.8254 0.033,3.6745 -1.24896,1.7831 -7.2095,2.7977 -11.10697,1.8907 z"
     id="path4129"
     inkscape:connector-curvature="0" />
  <path
     style="fill:#000000"
     d="m 267.43472,763.2833 c -0.2561,-0.1035 -0.7603,-0.5457 -1.12046,-0.9826 -2.23244,-2.7083 -2.63436,-11.405 -1.15987,-25.0968 0.9621,-8.9335 4.36905,-27.9405 6.63445,-37.0126 1.73372,-6.9429 3.1278,-10.1371 4.23827,-9.711 1.75318,0.6728 2.74118,12.8109 2.52596,31.033 -0.1187,10.0498 -0.2918,12.7088 -1.28004,19.6681 -1.66605,11.732 -4.95248,20.6692 -8.09504,22.0138 -0.8018,0.3431 -1.07778,0.357 -1.74327,0.088 z"
     id="path4131"
     inkscape:connector-curvature="0" />
  <path
     style="fill:#000000"
     d="m 223.52995,587.7299 c -3.37899,-1.2053 -8.33933,-7.0388 -11.78991,-13.8651 -0.6965,-1.3779 -1.04518,-2.3495 -1.05561,-2.9415 l -0.016,-0.8839 0.9179,0.018 c 1.70191,0.032 6.93036,2.9442 10.65875,5.9359 4.22171,3.3876 6.98335,7.4659 6.56513,9.6952 -0.343,1.8283 -2.99957,2.8555 -5.28067,2.0419 z"
     id="path4133"
     inkscape:connector-curvature="0" />
  <path
     style="fill:#000000"
     d="m 138.85332,535.8948 c -1.94454,-0.089 -3.83384,-0.2321 -4.19844,-0.3176 -2.68034,-0.6289 -2.51556,-1.2065 0.783,-2.7447 6.53829,-3.0488 23.34169,-7.6272 37.33447,-10.1724 9.88379,-1.7978 15.0683,-2.3401 22.31806,-2.3345 5.91938,0.01 8.56918,0.2509 9.42416,0.8761 0.3885,0.2841 0.3872,0.3125 -0.036,0.7809 -2.23539,2.4749 -22.03421,8.3216 -38.446,11.3532 -12.02922,2.222 -19.39729,2.9158 -27.17942,2.559 z"
     id="path4135"
     inkscape:connector-curvature="0" />
  <path
     style="fill:#000000"
     d="m 238.41332,517.4251 c -1.03565,-0.8715 -1.73727,-2.2476 -2.32283,-4.5559 -1.37645,-5.4261 -1.26383,-13.6614 0.2894,-21.1639 1.0406,-5.0263 1.18793,-10.7876 0.356,-13.9212 -1.20443,-4.5366 -3.94913,-7.8597 -8.43223,-10.2091 -2.46731,-1.2931 -4.72082,-2.0796 -9.93618,-3.468 -5.4658,-1.4551 -8.25108,-2.4331 -8.25108,-2.8972 0,-0.623 3.28568,-0.8827 11.26134,-0.8902 9.4017,-0.01 14.80183,0.5202 23.87303,2.3388 8.83025,1.7704 14.59075,3.6806 24.27284,8.0491 4.62194,2.0853 7.32599,3.8281 7.32599,4.7216 0,0.8675 -2.82189,1.4703 -6.89242,1.4724 -8.28695,0 -14.24442,2.8932 -17.96682,8.7122 -2.18879,3.4216 -2.90771,6.2506 -3.31697,13.0522 -0.4298,7.1435 -1.25274,10.9459 -3.15053,14.5574 -2.04186,3.8856 -5.23941,5.7754 -7.10957,4.2018 z"
     id="path4137"
     inkscape:connector-curvature="0" />
  <path
     style="fill:#000000"
     d="m 272.98344,456.0097 c -2.92097,-1.759 -7.67675,-6.2046 -15.23761,-14.2438 -13.05252,-13.8784 -19.56839,-21.5198 -22.47729,-26.3597 -2.32539,-3.8691 -1.93033,-5.022 1.14342,-3.3368 0.79,0.4331 1.97392,0.9777 2.631,1.2103 3.42861,1.2136 5.89468,-0.2725 7.51554,-4.5289 1.46225,-3.8399 1.9489,-7.5742 2.21999,-17.0348 0.295,-10.2956 0.4049,-12.2 0.9013,-15.6225 1.40778,-9.70557 4.47072,-14.71988 10.26555,-16.80563 2.03936,-0.734 4.18697,-1.04899 7.15265,-1.04899 4.27161,0 7.62253,0.7234 8.79867,1.89958 1.26263,1.26263 0.2203,3.28463 -2.91404,5.65304 -1.0938,0.8265 -2.46325,2.02231 -3.0432,2.65732 -4.27534,4.68128 -9.05526,15.35328 -12.10365,27.02368 -3.82851,14.6569 -4.51258,27.0487 -1.72093,31.1743 0.5957,0.8804 1.9956,1.6398 3.02268,1.6398 3.2373,0 10.12493,7.5418 13.42007,14.6946 2.05083,4.4518 3.98202,11.8591 3.4422,13.203 -0.3524,0.8773 -1.36715,0.8186 -3.01637,-0.1746 z"
     id="path4139"
     inkscape:connector-curvature="0" />
  <path
     style="fill:#000000"
     d="m 596.05986,346.84838 c -4.31165,-0.9163 -9.94692,-3.91017 -20.46875,-10.87467 -3.47531,-2.30034 -5.4515,-4.09107 -5.72725,-5.18976 -0.1484,-0.5913 0.229,-1.15589 1.04025,-1.55621 1.17384,-0.5793 3.30444,-0.8236 8.53149,-0.9785 3.9131,-0.1159 5.17586,-0.2083 6.48051,-0.4742 7.72721,-1.5747 11.46784,-7.65163 12.64599,-20.54431 0.094,-1.03125 0.2337,-5.8125 0.3099,-10.625 0.1722,-10.87885 0.4074,-13.63241 1.42692,-16.71028 1.03876,-3.13581 2.63707,-4.75105 5.52661,-5.58515 1.11763,-0.3226 1.57265,-0.3605 4.29687,-0.3573 1.67578,0.002 3.67969,0.093 4.45313,0.202 5.40925,0.7635 10.75941,1.8518 22.89062,4.65626 6.17616,1.42779 11.91066,2.58099 15.15625,3.04789 3.12914,0.4501 7.35433,0.4946 8.94671,0.094 7.14427,-1.79668 6.69229,-9.04155 -1.98588,-31.83194 -0.8344,-2.19141 -2.98212,-7.67578 -4.77262,-12.1875 -3.61962,-9.12081 -5.13401,-13.21264 -5.70893,-15.4254 -0.4134,-1.59111 -0.5026,-3.14502 -0.198,-3.4496 0.5156,-0.5156 1.82336,-0.056 4.03125,1.41618 3.11496,2.07725 10.10637,7.62542 12.54561,9.95582 6.07755,5.80635 11.30088,13.77157 12.77756,19.4849 0.1736,0.6717 0.3797,2.13529 0.4581,3.25248 0.1785,2.546 0.5764,4.10412 1.55614,6.09375 2.26318,4.59618 7.10199,8.75693 12.50636,10.75385 0.8164,0.3017 3.20703,0.9832 5.3125,1.51462 7.29006,1.83986 10.46875,2.95563 10.46875,3.6747 0,0.6521 -2.98529,1.1512 -9.76562,1.63255 -5.42824,0.3854 -7.64461,0.6521 -9.65497,1.16211 -7.39706,1.87641 -7.72665,6.42757 -1.27955,17.66842 1.81256,3.16028 5.36799,10.29386 5.99647,12.03125 1.28489,3.55201 0.8525,4.66485 -1.6198,4.16835 -2.2016,-0.4422 -7.23944,-2.77941 -15.39528,-7.14249 -28.12987,-15.04854 -46.20216,-19.82197 -56.50843,-14.92558 -1.8387,0.8735 -2.85996,1.56898 -4.23921,2.8867 -5.08358,4.85683 -7.36366,12.97549 -7.37581,26.26301 -0.013,14.19497 -1.5174,22.52213 -4.67968,25.90262 -1.99115,2.12854 -4.45483,2.745 -7.97812,1.99628 z"
     id="path4141"
     inkscape:connector-curvature="0" />
  <path
     style="fill:#000000"
     d="m 709.34661,257.78788 c -0.4393,-0.8209 0.075,-2.78546 2.78657,-10.63527 1.74717,-5.05873 3.62856,-12.87086 4.92946,-20.46875 1.0688,-6.24228 1.54321,-10.41848 1.80976,-15.931 0.089,-1.84409 0.2694,-4.37534 0.4005,-5.625 0.903,-8.60758 2.19379,-8.09808 8.46029,3.33949 0.9928,1.81205 2.24646,4.03292 2.78593,4.93526 6.30652,10.54869 6.2723,17.39265 -0.1305,26.09375 -2.50912,3.40979 -5.37946,6.42728 -9.87564,10.38191 -6.06857,5.33763 -8.52479,7.31341 -9.84375,7.91833 -0.8028,0.3682 -1.12203,0.3661 -1.32263,-0.009 l 0,0 z"
     id="path4143"
     inkscape:connector-curvature="0" />
  <path
     style="fill:#000000"
     d="m 682.10779,223.50857 c -0.3378,-0.8803 -0.6397,-6.45266 -0.9666,-17.84033 -0.1307,-4.55469 -0.3557,-10.56641 -0.5,-13.35938 -0.3271,-6.33183 -0.367,-16.37697 -0.075,-18.90625 1.10932,-9.61375 4.05699,-13.03482 12.44698,-14.44597 2.70162,-0.4544 4.74667,-0.5662 12.96875,-0.7087 4.55469,-0.079 9.26562,-0.2198 10.46875,-0.313 9.46104,-0.7326 15.18825,-2.59661 18.55162,-6.03806 1.15101,-1.17773 1.59,-1.77589 2.22042,-3.02554 1.24679,-2.47141 1.47694,-3.80353 1.64668,-9.53125 0.224,-7.55887 0.7924,-10.15625 2.22263,-10.15625 0.6989,0 1.21895,0.3463 2.39741,1.59658 1.33543,1.41681 2.30034,2.76185 4.79544,6.68467 5.04877,7.9377 7.69421,13.0424 8.82618,17.03125 0.5601,1.97377 0.6527,4.32277 0.2258,5.72831 -1.42474,4.69067 -7.29091,6.82724 -20.72992,7.55024 -1.71875,0.092 -7.76563,0.2358 -13.4375,0.3185 -5.67188,0.083 -11.15625,0.2209 -12.1875,0.3071 -8.97443,0.75 -13.60127,2.28328 -16.96667,5.6227 -3.90223,3.87212 -5.88349,9.91286 -7.86792,23.98878 -0.2181,1.54687 -0.7856,5.79375 -1.26107,9.43751 -1.40563,10.77111 -2.12329,15.29447 -2.54654,16.05079 -0.1242,0.2219 -0.1494,0.2228 -0.2318,0.008 l 0,0 z"
     id="path4145"
     inkscape:connector-curvature="0" />
  <path
     style="fill:#000000"
     d="m 577.15361,202.98346 c -3.99391,-0.057 -11.42161,-0.3486 -15.39062,-0.6042 -14.21509,-0.9152 -23.25025,-2.53758 -25.59432,-4.5957 -0.7055,-0.6194 -0.738,-1.08693 -0.1363,-1.95735 3.17839,-4.59768 20.21197,-7.34975 43.69939,-7.06037 20.39029,0.2512 36.6385,2.68022 44.66227,6.67674 1.3909,0.6928 1.77055,0.9628 2.17847,1.54946 0.3675,0.5286 0.3422,0.6909 -0.2054,1.31462 -2.15597,2.45551 -14.89416,4.1702 -34.36967,4.6265 -6.02604,0.1412 -8.00877,0.1479 -14.84375,0.05 z"
     id="path4147"
     inkscape:connector-curvature="0" />
  <path
     style="fill:#000000"
     d="m 1335.6581,496.0364 c -4.874,-1.2737 -3.0104,-5.7812 12.365,-29.9062 5.7461,-9.0161 10.4475,-16.7505 10.4475,-17.1875 0,-0.437 -10.8506,-0.7946 -24.1124,-0.7946 -36.802,0 -46.1323,3.2949 -67.8691,23.9674 -7.2499,6.8949 -13.5396,12.1782 -13.977,11.7407 -0.438,-0.4375 0.535,-4.6311 2.1603,-9.3192 1.6257,-4.6881 2.6004,-9.4497 2.1662,-10.5814 -1.0612,-2.7654 -6.3094,-2.6368 -17.3593,0.4253 -4.9279,1.3656 -9.164,2.2785 -9.4138,2.0288 -0.922,-0.9219 15.2861,-13.5393 21.3201,-16.5969 16.4158,-8.3186 48.0849,-12.2172 84.5891,-10.4135 32.7239,1.6169 36.118,5.2776 23.9239,25.8033 -5.3099,8.9379 -6.1468,12.5497 -3.8862,16.7736 1.6008,2.9912 8.4213,6.5419 17.8083,9.2707 3.9324,1.1432 7.1499,2.5163 7.1499,3.0513 0,1.8547 -39.1239,3.3555 -45.3125,1.7382 z"
     id="path4149"
     inkscape:connector-curvature="0" />
  <path
     style="fill:#000000"
     d="m 1413.5632,437.7798 c -3.4934,-1.326 -8.7842,-7.6246 -12.0324,-14.3243 -1.0709,-2.2088 -1.1538,-3.3728 -0.249,-3.5006 0.803,-0.1134 3.179,0.9029 5.823,2.491 6.9108,4.1507 11.6403,9.2732 11.6488,12.6166 0,1.2546 -0.367,1.9304 -1.3309,2.4287 -0.853,0.441 -3.0288,0.6037 -3.8591,0.2886 z"
     id="path4151"
     inkscape:connector-curvature="0" />
  <path
     style="fill:#000000"
     d="m 1341.4253,417.6796 c -1.438,-0.2384 -2.2188,-0.6993 -2.2188,-1.3097 0,-1.5399 8.3619,-7.792 14.4191,-10.7811 7.139,-3.5229 15.3254,-6.1983 21.7771,-7.1171 2.1868,-0.3114 10.5676,-0.1575 11.7858,0.2165 2.5326,0.7775 1.3339,2.357 -5.501,7.2488 -5.2281,3.7417 -11.5902,6.8595 -18.7782,9.2024 -6.887,2.2448 -10.0913,2.8008 -15.9403,2.766 -2.3856,-0.014 -4.8803,-0.1158 -5.5437,-0.2258 z"
     id="path4153"
     inkscape:connector-curvature="0" />
  <path
     style="fill:#000000"
     d="m 1325.8377,312.22795 c -0.958,-0.4433 -2.1875,-1.48132 -3.2151,-2.71388 -1.2542,-1.50422 -3.158,-5.39871 -4.0695,-8.32462 -0.968,-3.10609 -2.8793,-12.6714 -3.2263,-16.14421 -0.556,-5.56711 0.497,-9.31343 2.9528,-10.50226 3.1612,-1.53031 9.3914,0.6567 13.7106,4.81288 1.9528,1.87911 3.2238,3.66626 4.4425,6.24663 4.5737,9.68364 2.007,20.82935 -5.9779,25.95931 -1.0725,0.689 -1.5366,0.8488 -2.6283,0.9049 -0.805,0.041 -1.5862,-0.052 -1.9888,-0.2387 z"
     id="path4157"
     inkscape:connector-curvature="0" />
  <path
     style="fill:#000000"
     d="m 1312.0732,355.93429 c -1.7929,-1.25585 -2.5647,-6.03066 -2.2298,-13.79608 0.265,-6.13685 0.738,-8.73335 1.8025,-9.88845 1.0321,-1.11995 2.0742,-0.3349 3.4485,2.59769 3.443,7.34722 3.0963,16.98267 -0.738,20.51734 -1.0766,0.9924 -1.5208,1.10319 -2.2828,0.5695 z"
     id="path4159"
     inkscape:connector-curvature="0" />
  <path
     style="fill:#000000"
     d="m 1290.2189,425.4012 c -0.709,-0.3424 -1.136,-1.6394 -1.374,-4.1679 -0.171,-1.8156 -0.352,-2.5344 -0.963,-3.8189 -2.5271,-5.3115 -10.3329,-11.4179 -18.6553,-14.5938 -4.0188,-1.5337 -6.794,-3.299 -9.5748,-6.0907 -7.4983,-7.5277 -12.4354,-20.1623 -15.4606,-39.56567 -2.3134,-14.83799 -7.7312,-36.7102 -13.027,-52.59106 -2.3353,-7.00278 -3.0611,-8.84691 -5.8709,-14.91553 -3.4348,-7.41847 -4.7692,-10.93806 -4.147,-10.93806 0.986,0 11.3021,12.94809 14.1955,17.81645 7.0089,11.79289 14.2184,30.81845 17.6572,46.59655 0.477,2.18761 1.2228,5.61818 1.6579,7.62349 3.1709,14.61543 8.4978,27.41483 15.1035,36.29073 3.1994,4.299 7.3584,8.115 10.6522,9.7737 2.6153,1.3171 4.3618,1.7263 6.9573,1.6302 2.154,-0.08 2.3839,-0.1357 4.1524,-1.0121 2.1581,-1.0694 4.2343,-2.9843 5.7904,-5.3406 2.0462,-3.0982 3.0789,-5.6961 5.0839,-12.7882 2.0246,-7.1612 2.9459,-9.44188 3.6406,-9.0125 0.992,0.6131 1.9261,13.1058 1.3725,18.3553 -1.0064,9.543 -3.7776,19.7873 -7.2053,26.6359 -2.0239,4.0438 -5.5428,8.4826 -7.7103,9.7258 -1.2137,0.6961 -1.5254,0.7491 -2.275,0.3869 z"
     id="path4163"
     inkscape:connector-curvature="0" />
  <path
     style="fill:#000000"
     d="m 166.17434,455.0849 c -15.7202,-0.3665 -27.91096,-2.0599 -34.45059,-4.7854 -2.6551,-1.1065 -5.22599,-3.1668 -5.85918,-4.6955 -1.56159,-3.77 3.03639,-11.7962 8.19551,-14.306 2.95906,-1.4395 4.87301,-1.7469 9.6576,-1.551 9.69422,0.3969 19.03847,4.3011 43.39416,18.1307 6.26765,3.5589 8.2256,5.12 7.62188,6.0771 -0.1793,0.2842 -0.7371,0.6509 -1.23954,0.8148 -0.883,0.288 -19.34926,0.5012 -27.31984,0.3154 z"
     id="path4165"
     inkscape:connector-curvature="0" />
  <path
     style="fill:#000000"
     d="m 79.927987,407.2257 c -0.4712,-0.3816 -0.7434,-1.0272 -0.8566,-2.0324 -0.1381,-1.2248 -0.032,-1.6759 0.6296,-2.6755 1.80147,-2.7222 8.29861,-8.7166 14.44211,-13.3246 1.89062,-1.4181 5.05469,-3.9414 7.031253,-5.6072 4.84882,-4.0866 7.5,-5.8275 7.5,-4.9247 0,0.425 -1.796,3.1122 -4.19045,6.2699 -8.645593,11.4014 -17.066013,20.1586 -21.262163,22.1125 -1.89998,0.8847 -2.39231,0.9119 -3.29374,0.182 z"
     id="path4167"
     inkscape:connector-curvature="0" />
</svg>
