<?xml version="1.0" encoding="UTF-8" standalone="no"?>
<svg
   xmlns:dc="http://purl.org/dc/elements/1.1/"
   xmlns:cc="http://creativecommons.org/ns#"
   xmlns:rdf="http://www.w3.org/1999/02/22-rdf-syntax-ns#"
   xmlns:svg="http://www.w3.org/2000/svg"
   xmlns="http://www.w3.org/2000/svg"
   xmlns:sodipodi="http://sodipodi.sourceforge.net/DTD/sodipodi-0.dtd"
   xmlns:inkscape="http://www.inkscape.org/namespaces/inkscape"
   viewBox="0 0 198.64531 259.09552"
   height="259.09552"
   width="198.64531"
   xml:space="preserve"
   version="1.1"
   id="svg2"
   inkscape:version="0.91 r13725"
   sodipodi:docname="icolor_azl.svg"><sodipodi:namedview
     pagecolor="#ffffff"
     bordercolor="#666666"
     borderopacity="1"
     objecttolerance="10"
     gridtolerance="10"
     guidetolerance="10"
     inkscape:pageopacity="0"
     inkscape:pageshadow="2"
     inkscape:window-width="1366"
     inkscape:window-height="691"
     id="namedview206"
     showgrid="false"
     fit-margin-top="0"
     fit-margin-left="0"
     fit-margin-right="0"
     fit-margin-bottom="0"
     inkscape:zoom="1.9735132"
     inkscape:cx="175.5736"
     inkscape:cy="28.289647"
     inkscape:window-x="0"
     inkscape:window-y="0"
     inkscape:window-maximized="1"
     inkscape:current-layer="svg2" /><metadata
     id="metadata8"><rdf:RDF><cc:Work
         rdf:about=""><dc:format>image/svg+xml</dc:format><dc:type
           rdf:resource="http://purl.org/dc/dcmitype/StillImage" /><dc:title></dc:title></cc:Work></rdf:RDF></metadata><defs
     id="defs6"><clipPath
       id="clipPath16"
       clipPathUnits="userSpaceOnUse"><path
         id="path18"
         d="m 0,270.587 223.272,0 L 223.272,0 0,0 0,270.587 Z"
         inkscape:connector-curvature="0" /></clipPath></defs><g
     transform="matrix(1.25,0,0,-1.25,-39.940819,324.62807)"
     id="g10"><g
       id="g12"><g
         clip-path="url(#clipPath16)"
         id="g14"><g
           transform="translate(186.6699,223.9199)"
           id="g20"><path
             id="path22"
             style="fill:#231f20;fill-opacity:1;fill-rule:nonzero;stroke:none"
             d="m 0,0 c 0,0 -0.555,0.35 -1.033,0.648 0.394,0.315 0.765,0.666 1.062,1.084 0.68,0.94 1.03,2.045 1.03,3.18 0,0.299 -0.02,0.606 -0.079,0.906 -0.236,1.446 -1.023,2.709 -2.214,3.561 -1.989,1.426 -4.696,1.351 -6.604,-0.174 l -0.017,-0.004 0.013,0 C -7.857,9.191 -7.873,9.186 -7.887,9.178 -8.018,9.074 -8.078,8.922 -8.078,8.77 c 0,-0.112 0.033,-0.217 0.096,-0.309 0.168,-0.229 0.488,-0.277 0.718,-0.123 0.723,0.486 1.682,0.473 2.391,-0.031 0.939,-0.678 1.156,-1.993 0.486,-2.936 -0.66,-0.916 -1.931,-1.113 -2.955,-0.467 0,0 -6.699,4.801 -7.461,5.344 0.547,0.76 5.467,7.621 5.467,7.621 0.129,0.17 1.318,1.672 3.455,0.154 0.539,-0.398 0.846,-0.861 0.908,-1.394 0.069,-0.682 -0.275,-1.471 -1.004,-2.275 -0.128,-0.137 -0.175,-0.34 -0.105,-0.522 0.062,-0.18 0.217,-0.312 0.404,-0.342 0.1,-0.013 2.492,-0.375 4.365,2.137 1.813,2.43 -0.078,5.85 -0.154,5.992 -0.015,0.02 -2.058,4.108 -0.83,8.994 0.051,0.207 -0.027,0.424 -0.207,0.551 -0.176,0.119 -0.398,0.125 -0.58,0.018 -4.223,-2.733 -8.744,-2.123 -8.807,-2.114 -0.279,0.051 -4.013,0.682 -5.705,-1.771 -1.767,-2.58 -0.66,-4.731 -0.609,-4.824 0.084,-0.164 0.264,-0.274 0.451,-0.274 0.19,0 0.367,0.102 0.461,0.268 0.531,0.953 1.16,1.535 1.826,1.687 0.52,0.117 1.059,-0.023 1.606,-0.42 0.795,-0.57 1.244,-1.185 1.341,-1.836 0.016,-0.089 0.024,-0.183 0.024,-0.271 0,-0.65 -0.346,-1.127 -0.389,-1.186 0,0 -4.928,-6.878 -5.47,-7.642 -0.766,0.549 -7.452,5.346 -7.452,5.346 -0.588,0.462 -0.898,1.121 -0.898,1.769 0,0.41 0.127,0.82 0.379,1.178 0.33,0.459 0.818,0.762 1.377,0.851 0.547,0.092 1.101,-0.043 1.558,-0.369 0.715,-0.511 1.034,-1.392 0.799,-2.25 -0.078,-0.271 0.074,-0.551 0.346,-0.633 0.267,-0.086 0.543,0.057 0.642,0.313 0.006,0.023 0.018,0.045 0.018,0.064 l 0,0.002 c 0.221,0.598 0.332,1.219 0.332,1.836 0,1.731 -0.824,3.412 -2.291,4.469 -2.459,1.758 -5.887,1.188 -7.644,-1.264 -0.299,-0.416 -0.508,-0.879 -0.684,-1.359 -0.455,0.367 -0.949,0.768 -0.949,0.768 -2.76,1.982 -6.332,3.189 -7.524,1.546 -0.217,-0.3 -0.316,-0.654 -0.316,-1.039 0,-1.691 1.941,-3.978 4.195,-5.591 0,0 0.555,-0.346 1.031,-0.651 -0.394,-0.314 -0.759,-0.66 -1.066,-1.084 -0.686,-0.965 -1.023,-2.08 -1.023,-3.187 0,-1.709 0.798,-3.391 2.291,-4.459 2.072,-1.483 4.859,-1.35 6.779,0.32 0.199,0.164 0.236,0.447 0.109,0.664 -0.133,0.213 -0.4,0.309 -0.64,0.213 -0.578,-0.221 -1.518,-0.01 -2.141,0.486 -0.945,0.764 -1.162,2.033 -0.5,2.951 0.32,0.456 0.807,0.754 1.361,0.85 0.551,0.09 1.114,-0.037 1.571,-0.363 l 1.31,-0.938 c 0,0 5.065,-3.627 6.02,-4.316 -2.483,-1.824 -6.424,-1.805 -6.461,-1.805 -0.149,0 -0.291,-0.06 -0.385,-0.164 -0.103,-0.105 -0.154,-0.246 -0.146,-0.392 0.189,-2.969 -2.348,-7.012 -3.747,-9.016 l -88.642,0 -4.545,6.074 c 0.621,0.752 1.447,1.77 1.447,1.77 l 0.395,0.506 c 0.508,0.652 0.683,1.818 -0.465,2.947 -0.404,0.396 -1.012,0.609 -1.633,0.57 -0.562,-0.033 -1.043,-0.267 -1.353,-0.664 l -0.032,-0.033 -0.806,1.121 -1.028,1.43 -0.845,1.156 c 0.39,0.482 1.123,1.394 1.123,1.394 0.238,0.299 0.359,0.688 0.359,1.122 0,0.083 0,0.175 -0.01,0.267 -0.076,0.643 -0.41,1.262 -0.879,1.623 -0.47,0.381 -1.113,0.557 -1.707,0.488 -0.367,-0.041 -0.693,-0.175 -0.957,-0.39 0.356,2.049 -0.636,4.029 -3.076,7.209 -1.205,1.586 -1.849,3.312 -2.912,6.822 -0.074,0.221 -0.275,0.369 -0.508,0.367 -0.232,0 -0.435,-0.15 -0.5,-0.373 -0.535,-1.836 -0.83,-3.185 -0.99,-4.181 -2.562,5.337 -7.398,8.757 -7.623,8.918 -0.176,0.123 -0.408,0.126 -0.586,0.009 -0.152,-0.097 -0.232,-0.265 -0.232,-0.435 0,-0.035 0.002,-0.073 0.011,-0.11 0.008,-0.041 0.508,-2.429 0.508,-5.152 0,-1.961 -0.256,-4.102 -1.144,-5.678 -0.905,-1.592 -1.248,-3.025 -1.346,-4.205 -0.201,0.785 -0.358,1.596 -0.443,2.231 -0.032,0.22 -0.206,0.402 -0.43,0.437 -0.221,0.043 -0.442,-0.064 -0.551,-0.265 -1.471,-2.752 -1.937,-5.098 -1.937,-6.979 0,-1.148 0.177,-2.105 0.406,-2.893 -0.279,0.379 -0.528,0.754 -0.697,1.061 -0.129,0.215 -0.385,0.318 -0.618,0.238 -0.232,-0.07 -0.388,-0.299 -0.365,-0.539 0.404,-4.385 1.758,-7.396 4.018,-8.955 0.935,-0.646 1.884,-0.945 2.715,-1.064 -0.348,-0.219 -0.625,-0.561 -0.76,-0.993 -0.178,-0.576 -0.123,-1.244 0.154,-1.777 0.275,-0.521 0.822,-0.963 1.436,-1.158 0.515,-0.16 1.015,-0.135 1.427,0.082 0,0 1.036,0.553 1.575,0.846 l 0.992,-1.045 1.211,-1.283 0.945,-0.999 -0.027,-0.015 c -1.004,-0.526 -1.166,-1.938 -0.682,-2.875 0.268,-0.52 0.783,-0.938 1.387,-1.127 0.521,-0.168 1.035,-0.137 1.459,0.084 l 0.625,0.318 1.951,1.055 5.564,-6.07 0,-63.754 c 0.008,-13.955 5.457,-27.082 15.315,-36.94 0.467,-0.463 0.943,-0.908 1.42,-1.351 l -0.508,-0.729 c -4.258,-5.941 -6.49,-12.828 -5.096,-13.818 0.244,-0.176 0.557,-0.231 0.942,-0.17 2.045,0.342 6.752,4.215 10.506,9.451 l 0.263,0.381 c 8.613,-5.893 18.783,-9.074 29.444,-9.074 10.156,0 19.867,2.898 28.209,8.267 4.498,-5.785 10.025,-10.082 11.675,-8.906 1.561,1.137 -0.925,8.227 -4.836,14.137 0.653,0.588 1.284,1.191 1.907,1.812 9.873,9.858 15.314,22.985 15.326,36.94 l 0,65.74 0.367,0.516 c 0.023,0.025 0.303,0.455 0.303,0.455 0,0.002 0.031,0.058 0.043,0.06 1.004,1.487 4.564,6.405 7.957,7.324 0.136,0.043 0.258,0.137 0.322,0.264 0.039,0.078 0.059,0.158 0.059,0.24 0,0.057 -0.008,0.118 -0.024,0.18 -0.019,0.029 -0.736,2.072 -0.736,4.324 0,0.795 0.135,1.598 0.379,2.364 0.978,-0.7 7.318,-5.243 7.318,-5.243 0.563,-0.412 0.869,-1.06 0.869,-1.715 0,-0.419 -0.123,-0.847 -0.39,-1.216 -0.657,-0.922 -1.932,-1.121 -2.955,-0.465 -0.676,0.424 -1.178,1.242 -1.145,1.861 0.012,0.252 -0.16,0.481 -0.412,0.533 -0.24,0.059 -0.5,-0.074 -0.592,-0.308 -0.971,-2.358 -0.199,-5.041 1.869,-6.526 2.457,-1.759 5.889,-1.189 7.647,1.268 0.306,0.412 0.515,0.869 0.691,1.352 0.449,-0.37 0.942,-0.77 0.942,-0.77 2.277,-1.633 4.724,-2.527 6.236,-2.275 0.574,0.097 1.019,0.349 1.287,0.734 0.221,0.303 0.322,0.652 0.322,1.029 C 4.199,-3.906 2.256,-1.619 0,0"
             inkscape:connector-curvature="0" /></g><g
           transform="translate(36.5469,229.2402)"
           id="g24"><path
             id="path26"
             style="fill:#ed1c24;fill-opacity:1;fill-rule:nonzero;stroke:none"
             d="m 0,0 c -1.602,1.115 -2.664,3.17 -3.223,6.039 0.496,-0.557 1.078,-1.066 1.684,-1.248 0.213,-0.062 0.449,0.022 0.578,0.207 0.066,0.09 0.092,0.193 0.092,0.293 0,0.119 -0.033,0.229 -0.108,0.318 -0.082,0.112 -1.298,1.723 -1.298,4.602 0,1.391 0.312,3.088 1.134,5.037 0.307,-1.393 0.87,-3.246 1.746,-3.893 0.19,-0.142 0.454,-0.134 0.637,0.012 0.119,0.098 0.19,0.25 0.19,0.408 0,0.069 -0.014,0.141 -0.039,0.207 -0.032,0.059 -0.354,0.834 -0.354,2.09 0,1.137 0.264,2.67 1.258,4.42 0.992,1.774 1.285,4.108 1.285,6.217 0,1.568 -0.158,2.994 -0.301,3.986 1.819,-1.523 5.557,-5.072 7.039,-9.699 0.09,-0.26 0.354,-0.406 0.621,-0.338 0.233,0.061 0.395,0.274 0.395,0.51 0,0.027 0,0.064 -0.004,0.098 -0.008,0.002 -0.019,0.101 -0.019,0.32 0,0.527 0.093,1.75 0.667,4.041 0.827,-2.531 1.473,-4.022 2.559,-5.447 2.029,-2.651 2.943,-4.317 2.943,-5.823 0,-1.328 -0.709,-2.537 -1.962,-4.183 C 14.252,6.793 12.842,5.436 10.957,3.873 8.377,1.734 6.33,0.385 4.072,-0.875 3.479,-0.98 1.695,-1.174 0,0"
             inkscape:connector-curvature="0" /></g><g
           transform="translate(42.3496,225.3926)"
           id="g28"><path
             id="path30"
             style="fill:#c29438;fill-opacity:1;fill-rule:nonzero;stroke:none"
             d="m 0,0 c 0,0 -0.252,-0.135 -0.574,-0.305 -0.547,-0.289 -1.303,-0.701 -1.303,-0.701 -0.172,-0.084 -0.396,-0.088 -0.644,-0.012 -0.354,0.11 -0.674,0.37 -0.823,0.645 -0.146,0.289 -0.174,0.674 -0.078,0.98 0.043,0.151 0.145,0.35 0.342,0.45 0.59,0.312 1.152,0.613 1.707,0.922 2.369,1.314 4.49,2.703 7.162,4.916 1.951,1.615 3.402,3.007 4.705,4.429 0.938,1.033 1.807,2.076 2.711,3.227 0.143,0.181 0.356,0.242 0.504,0.26 0.33,0.035 0.693,-0.073 0.945,-0.272 l 0.004,0 c 0.252,-0.189 0.442,-0.568 0.485,-0.93 0.027,-0.255 -0.02,-0.47 -0.129,-0.617 0,0 -0.547,-0.678 -0.934,-1.166 -0.232,-0.279 -0.398,-0.5 -0.398,-0.5 C 13.654,11.299 13.631,11.268 13.6,11.238 13.164,10.715 12.719,10.205 12.258,9.697 12.23,9.668 12.199,9.637 12.168,9.604 11.959,9.381 11.754,9.156 11.545,8.936 11.496,8.885 11.447,8.84 11.4,8.787 11.199,8.582 10.99,8.369 10.773,8.158 10.748,8.133 10.717,8.105 10.691,8.076 9.691,7.092 8.609,6.125 7.348,5.082 6.74,4.572 6.15,4.098 5.576,3.66 5.541,3.633 5.506,3.604 5.467,3.576 5.293,3.441 5.127,3.316 4.951,3.193 4.793,3.072 4.637,2.951 4.479,2.84 4.365,2.752 4.246,2.674 4.137,2.59 3.947,2.463 3.762,2.334 3.582,2.207 3.424,2.102 3.275,2.002 3.121,1.895 3,1.813 2.865,1.73 2.74,1.648 1.861,1.078 0.969,0.539 0,0"
             inkscape:connector-curvature="0" /></g><g
           transform="translate(45.4785,222.6934)"
           id="g32"><path
             id="path34"
             style="fill:#c29438;fill-opacity:1;fill-rule:nonzero;stroke:none"
             d="m 0,0 -1.203,1.287 -0.813,0.852 c 2.45,1.398 4.495,2.828 6.871,4.8 2.42,2.008 4.25,3.797 6.04,5.889 0.339,-0.474 0.685,-0.947 0.685,-0.947 l 1.027,-1.43 c 0,0 0.684,-0.943 0.991,-1.365 C 13.465,8.924 13.334,8.756 13.203,8.594 13.131,8.504 13.063,8.422 12.992,8.33 12.91,8.229 12.832,8.125 12.752,8.021 12.662,7.91 12.564,7.801 12.471,7.688 12.414,7.613 12.348,7.539 12.289,7.465 12.135,7.281 11.984,7.102 11.828,6.924 L 11.82,6.916 C 11.727,6.809 11.631,6.701 11.537,6.596 L 11.514,6.576 C 11.42,6.473 11.328,6.371 11.234,6.268 11.227,6.252 11.207,6.24 11.195,6.234 11.107,6.131 11.01,6.035 10.912,5.934 10.898,5.916 10.879,5.9 10.867,5.885 10.773,5.791 10.68,5.689 10.58,5.594 10.555,5.57 10.533,5.551 10.506,5.525 10.416,5.434 10.313,5.338 10.219,5.242 10.188,5.211 10.152,5.186 10.121,5.15 10.033,5.064 9.939,4.979 9.834,4.883 9.793,4.844 9.75,4.801 9.699,4.758 9.609,4.676 9.518,4.592 9.42,4.508 9.365,4.453 9.299,4.396 9.238,4.344 9.148,4.266 9.066,4.193 8.975,4.113 8.885,4.033 8.787,3.953 8.695,3.869 8.637,3.813 8.559,3.754 8.496,3.697 8.33,3.555 8.15,3.408 7.969,3.254 7.779,3.102 7.609,2.955 7.434,2.822 7.326,2.727 7.221,2.643 7.109,2.559 7.051,2.514 6.992,2.463 6.93,2.418 6.818,2.326 6.709,2.242 6.598,2.156 6.551,2.121 6.504,2.084 6.465,2.049 6.334,1.959 6.217,1.867 6.107,1.781 6.068,1.758 6.043,1.736 6.008,1.713 5.895,1.625 5.775,1.537 5.658,1.451 5.631,1.439 5.604,1.416 5.576,1.4 5.465,1.314 5.352,1.234 5.229,1.152 5.203,1.137 5.186,1.123 5.168,1.109 5.053,1.029 4.934,0.953 4.82,0.879 4.805,0.863 4.785,0.852 4.762,0.838 4.65,0.766 4.541,0.691 4.426,0.617 L 4.371,0.582 C 4.258,0.512 4.146,0.443 4.037,0.377 4.018,0.367 3.998,0.354 3.979,0.342 3.867,0.273 3.754,0.205 3.645,0.141 3.631,0.131 3.611,0.121 3.596,0.111 3.482,0.045 3.363,-0.021 3.252,-0.084 L 3.211,-0.113 C 3.096,-0.18 2.975,-0.246 2.857,-0.313 2.846,-0.318 2.834,-0.322 2.818,-0.33 2.699,-0.396 2.574,-0.465 2.443,-0.535 c 0,0 -0.005,-0.002 -0.007,-0.004 C 2.207,-0.662 1.969,-0.787 1.73,-0.912 1.559,-1.006 1.389,-1.09 1.207,-1.184 1.188,-1.193 1.176,-1.203 1.154,-1.213 0.795,-0.84 0,0 0,0"
             inkscape:connector-curvature="0" /></g><g
           transform="translate(49.6582,219.2109)"
           id="g36"><path
             id="path38"
             style="fill:#c29438;fill-opacity:1;fill-rule:nonzero;stroke:none"
             d="m 0,0 c -0.783,-0.416 -1.705,-0.92 -1.705,-0.92 l -0.633,-0.314 c -0.178,-0.092 -0.404,-0.104 -0.658,-0.02 -0.326,0.108 -0.637,0.346 -0.775,0.608 -0.25,0.486 -0.204,1.248 0.236,1.476 l 0.566,0.289 0.076,0.043 c 2.637,1.363 4.229,2.184 7.311,4.746 3.121,2.592 4.234,3.996 6.062,6.33 l 0.022,0.018 0.137,0.182 0.084,0.105 -0.002,0 0.205,0.273 c 0.119,0.151 0.342,0.247 0.605,0.262 0.328,0.022 0.647,-0.084 0.842,-0.275 0.414,-0.414 0.543,-0.77 0.543,-1.039 0,-0.262 -0.121,-0.44 -0.184,-0.52 l -0.386,-0.502 c 0,0 -0.692,-0.844 -1.266,-1.554 C 10.662,8.668 10.297,8.229 10.297,8.229 9.402,7.186 8.494,6.266 7.346,5.248 6.912,4.867 6.465,4.48 5.988,4.084 L 5.941,4.055 C 5.484,3.674 5.027,3.303 4.576,2.955 3.328,1.986 2.254,1.26 1.086,0.588 1.086,0.588 0.578,0.316 0,0"
             inkscape:connector-curvature="0" /></g><g
           transform="translate(55.9453,213.8965)"
           id="g40"><path
             id="path42"
             style="fill:#c29438;fill-opacity:1;fill-rule:nonzero;stroke:none"
             d="m 0,0 c -1.408,1.525 -3.762,4.111 -4.619,5.035 1.617,0.938 3.049,1.967 4.949,3.531 1.906,1.577 3.188,2.805 4.424,4.241 C 5.555,11.752 7.52,9.123 8.676,7.568 L 0,7.568 0,0 Z"
             inkscape:connector-curvature="0" /></g><g
           transform="translate(77.666,105.6426)"
           id="g44"><path
             id="path46"
             style="fill:#ed1c24;fill-opacity:1;fill-rule:nonzero;stroke:none"
             d="m 0,0 c -4.207,-5.879 -8.973,-9.154 -9.943,-9.035 -0.03,0.08 -0.053,0.174 -0.053,0.336 0,1.517 1.461,6.607 5.359,12.031 0,0 0.198,0.285 0.43,0.623 C -2.775,2.672 -1.279,1.484 0.275,0.381 0.121,0.17 0,0 0,0"
             inkscape:connector-curvature="0" /></g><g
           transform="translate(147.4531,97.0273)"
           id="g48"><path
             id="path50"
             style="fill:#c29438;fill-opacity:1;fill-rule:nonzero;stroke:none"
             d="m 0,0 c 0,-0.182 -0.023,-0.293 -0.063,-0.379 -0.929,-0.158 -5.56,2.949 -9.964,8.604 1.716,1.168 3.384,2.451 4.974,3.83 C -1.408,6.533 0,1.557 0,0"
             inkscape:connector-curvature="0" /></g><g
           transform="translate(189.7012,217.8984)"
           id="g52"><path
             id="path54"
             style="fill:#ed1c24;fill-opacity:1;fill-rule:nonzero;stroke:none"
             d="m 0,0 c -0.115,-0.154 -0.32,-0.26 -0.607,-0.307 -1.034,-0.17 -3.116,0.412 -5.461,2.088 L -7.543,2.98 C -7.688,3.098 -7.887,3.137 -8.066,3.078 -8.236,3.016 -8.373,2.871 -8.414,2.693 -8.527,2.059 -8.775,1.48 -9.152,0.965 c -1.426,-1.996 -4.207,-2.451 -6.194,-1.028 -1.193,0.856 -1.849,2.2 -1.849,3.59 0,0.016 0.004,0.026 0.004,0.041 0.279,-0.373 0.605,-0.705 0.955,-0.92 1.496,-0.959 3.373,-0.64 4.361,0.733 1.006,1.404 0.684,3.371 -0.721,4.39 l -7.912,5.665 c -0.123,0.089 -0.281,0.121 -0.43,0.08 -0.154,-0.041 -0.279,-0.147 -0.341,-0.291 -0.496,-1.088 -0.666,-2.299 -0.666,-3.44 0,-1.787 0.41,-3.408 0.642,-4.181 -3.336,-1.221 -6.51,-5.329 -7.886,-7.331 l 0,5.293 -4.682,0 c 1.439,2.133 3.439,5.61 3.514,8.536 1.349,0.054 4.968,0.396 7.197,2.474 0.101,0.094 0.164,0.238 0.164,0.379 0,0.012 0,0.024 -0.006,0.033 -0.006,0.157 -0.088,0.299 -0.211,0.391 l -6.598,4.732 -1.31,0.93 c -0.688,0.492 -1.524,0.688 -2.354,0.545 -0.822,-0.139 -1.548,-0.59 -2.033,-1.275 -0.39,-0.54 -0.578,-1.161 -0.578,-1.786 0,-0.949 0.434,-1.896 1.281,-2.576 0.332,-0.269 0.719,-0.472 1.119,-0.605 -1.314,-0.44 -2.787,-0.272 -3.974,0.578 -1.988,1.426 -2.447,4.205 -1.02,6.191 0.377,0.533 0.85,0.955 1.412,1.272 0.151,0.092 0.237,0.267 0.245,0.449 0,0.186 -0.11,0.365 -0.256,0.461 l -1.617,1.012 c -3.008,2.152 -4.139,4.461 -3.635,5.177 0.508,0.698 3.072,0.362 6.07,-1.791 l 1.473,-1.193 c 0.144,-0.113 0.349,-0.16 0.519,-0.1 0.172,0.061 0.311,0.2 0.346,0.381 0.129,0.641 0.381,1.225 0.752,1.74 1.424,1.993 4.201,2.45 6.189,1.024 0.823,-0.588 1.377,-1.43 1.649,-2.359 -0.096,0.089 -0.178,0.185 -0.28,0.259 -0.681,0.489 -1.507,0.686 -2.333,0.549 -0.831,-0.131 -1.559,-0.588 -2.059,-1.273 -0.979,-1.377 -0.688,-3.26 0.699,-4.369 l 7.928,-5.684 c 0.113,-0.08 0.258,-0.111 0.389,-0.088 0.134,0.024 0.263,0.096 0.337,0.211 l 5.778,8.055 c 0.117,0.158 0.736,1.052 0.554,2.238 -0.142,0.928 -0.736,1.779 -1.759,2.52 -0.793,0.564 -1.639,0.765 -2.444,0.585 -0.675,-0.146 -1.297,-0.578 -1.838,-1.224 -0.011,0.107 -0.027,0.205 -0.027,0.326 0,0.654 0.178,1.504 0.826,2.436 1.326,1.933 4.641,1.339 4.672,1.337 0.004,-0.005 0.016,-0.005 0.024,-0.005 0.187,-0.026 4.277,-0.586 8.521,1.685 -0.141,-0.818 -0.223,-1.617 -0.223,-2.355 0,-3.561 1.278,-6.108 1.346,-6.244 0.02,-0.032 0.822,-1.475 0.822,-2.987 0,-0.654 -0.154,-1.316 -0.576,-1.887 -0.803,-1.076 -1.691,-1.478 -2.359,-1.636 0.373,0.623 0.574,1.24 0.574,1.836 0,0.099 0,0.197 -0.016,0.291 -0.084,0.824 -0.543,1.56 -1.337,2.127 -0.981,0.705 -1.959,0.986 -2.893,0.828 -1.275,-0.215 -1.986,-1.184 -2.014,-1.227 l -5.761,-8.039 c -0.086,-0.113 -0.114,-0.254 -0.09,-0.39 0.015,-0.135 0.097,-0.256 0.213,-0.334 l 7.869,-5.643 c 1.558,-0.99 3.431,-0.674 4.418,0.703 0.398,0.549 0.584,1.192 0.584,1.822 0,0.985 -0.453,1.948 -1.303,2.565 -0.115,0.074 -0.244,0.109 -0.361,0.178 0.97,0.037 1.951,-0.204 2.777,-0.797 0.967,-0.694 1.605,-1.719 1.801,-2.885 C -2.885,10.5 -3.152,9.324 -3.852,8.359 -4.219,7.838 -4.691,7.414 -5.254,7.094 -5.414,7 -5.502,6.826 -5.502,6.645 -5.51,6.461 -5.406,6.281 -5.246,6.184 L -3.639,5.178 C -0.635,3.016 0.508,0.707 0,0"
             inkscape:connector-curvature="0" /></g><g
           transform="translate(161.6973,59.2168)"
           id="g56"><path
             id="path58"
             style="fill:#231f20;fill-opacity:1;fill-rule:nonzero;stroke:none"
             d="m 0,0 0.043,-0.02 c 0.023,-0.009 0.055,-0.019 0.086,-0.033 0.705,-0.435 1.428,-0.777 1.85,-0.965 1.998,-1.128 5.017,-2.968 7.185,-4.322 0.195,-0.121 4.828,-3.078 8.44,-0.187 6.496,5.191 1.31,23.172 0.357,26.234 0.471,0.621 0.898,1.25 1.275,1.904 2.412,4.168 0.909,6.157 0.147,6.823 0.004,-0.004 0.012,-0.01 0.015,-0.016 L 8.469,40.008 C 8.346,40.148 8.195,40.295 8.014,40.455 7.857,40.586 7.68,40.707 7.496,40.832 7.113,41.084 6.656,41.303 6.145,41.369 5.398,41.475 4.682,41.25 4.025,40.713 2.344,39.342 1.727,35.238 1.514,33.096 -3.443,29.229 -12.375,24.473 -28.311,20.791 l -2.05,4.428 c -0.698,1.385 -2.256,2.271 -3.998,2.271 l -1.153,-0.136 c -0.011,-0.008 -0.213,-0.065 -0.213,-0.065 -4.777,-1.238 -10.451,-1.898 -16.38,-1.898 l -1.385,0.005 c -0.02,0 -1.401,-0.005 -1.401,-0.005 -5.937,0 -11.615,0.66 -16.412,1.912 0.024,-0.006 -0.166,0.043 -0.166,0.043 -0.015,0.008 -1.179,0.144 -1.179,0.144 -1.717,0 -3.282,-0.886 -3.975,-2.256 l -1.967,-4.226 c -15.353,3.65 -24.031,8.299 -28.89,12.09 -0.215,2.138 -0.831,6.246 -2.514,7.617 -0.664,0.535 -1.381,0.76 -2.121,0.654 -0.516,-0.066 -0.975,-0.287 -1.362,-0.545 -0.164,-0.103 -0.322,-0.219 -0.449,-0.328 -0.25,-0.209 -0.439,-0.4 -0.576,-0.557 l -10.857,-10.517 c -0.768,-0.674 -2.25,-2.662 0.15,-6.809 0.377,-0.652 0.811,-1.287 1.281,-1.908 -0.951,-3.072 -6.136,-21.043 0.36,-26.232 3.611,-2.891 8.246,0.068 8.443,0.197 2.158,1.346 9.258,5.424 9.369,5.498 0.629,0.428 1.199,0.926 1.467,1.441 0.795,1.6 0.34,3.075 0.326,3.139 -0.053,0.137 -0.148,0.246 -0.287,0.299 -0.137,0.051 -0.287,0.037 -0.412,-0.033 l -5.053,-3.022 c -1.392,2.791 0.434,6.494 0.877,7.307 8.244,-4.133 17.02,-6.699 21.147,-7.563 4.892,-1.031 5.755,2.526 5.763,2.561 l 1.004,2.779 0.272,0.746 c 0.047,-0.013 0.097,-0.027 0.142,-0.041 7.299,-2.32 16.211,-3.599 25.313,-3.607 l 1.086,0.008 0.613,0.006 0.605,-0.006 1.09,-0.008 c 9.114,0.008 18.026,1.285 25.336,3.607 0.311,0.102 0.608,0.203 0.914,0.303 0.106,-0.17 0.221,-0.381 0.356,-0.611 l 1.177,-3.229 c -0.007,0.004 0.049,-0.232 0.221,-0.568 0.483,-0.953 1.897,-2.705 5.522,-1.942 C -14.154,2.6 -5.375,5.166 2.875,9.297 3.316,8.473 5.139,4.785 3.746,1.994 L -1.314,5.01 C -1.441,5.084 -1.598,5.098 -1.729,5.045 -1.857,4.992 -1.961,4.883 -2.004,4.746 -2.027,4.684 -2.477,3.207 -1.678,1.609 -1.414,1.094 -0.846,0.598 -0.209,0.168 -0.164,0.09 -0.092,0.029 0,0"
             inkscape:connector-curvature="0" /></g><g
           transform="translate(56.9121,63.0527)"
           id="g60"><path
             id="path62"
             style="fill:#c29438;fill-opacity:1;fill-rule:nonzero;stroke:none"
             d="m 0,0 c 0,-0.076 0.018,-0.123 0.018,-0.211 0,-0.435 -0.077,-1.006 -0.372,-1.584 C -0.555,-2.203 -1.09,-2.631 -1.707,-3.018 -2.176,-3.162 -3.563,-3.486 -4.41,-2.631 -2.678,-1.594 -0.609,-0.369 0,0"
             inkscape:connector-curvature="0" /></g><g
           transform="translate(50.5078,63.5762)"
           id="g64"><path
             id="path66"
             style="fill:#c29438;fill-opacity:1;fill-rule:nonzero;stroke:none"
             d="M 0,0 C 0,-0.959 0.184,-1.938 0.652,-2.852 0.754,-3.035 0.854,-3.217 0.963,-3.395 0.986,-3.422 1.09,-3.566 1.09,-3.566 1.117,-3.602 1.145,-3.621 1.168,-3.645 1.602,-4.184 2.152,-4.459 2.695,-4.58 L 2.711,-4.586 C 2.271,-4.84 1.793,-5.117 1.305,-5.41 c -2.444,-1.434 -5.26,-3.176 -5.75,-3.485 -0.053,-0.029 -4.272,-2.712 -7.344,-0.25 -2.145,1.707 -2.857,5.09 -2.857,8.85 0,6.09 1.869,13.139 2.617,15.733 C -8.877,11.641 -4.215,8.402 0.787,5.75 1.129,5.471 1.361,5.287 1.436,5.232 0.994,4.414 0,2.279 0,0"
             inkscape:connector-curvature="0" /></g><g
           transform="translate(74.1992,61.8789)"
           id="g68"><path
             id="path70"
             style="fill:#c29438;fill-opacity:1;fill-rule:nonzero;stroke:none"
             d="m 0,0 c -4.313,0.902 -13.789,3.689 -22.311,8.182 -2.326,1.228 -4.584,2.58 -6.642,4.064 -1.035,0.818 -2.059,1.631 -2.994,2.377 -1.481,1.305 -2.797,2.691 -3.864,4.162 -0.386,0.535 -0.759,1.08 -1.082,1.641 -0.795,1.359 -1.177,2.588 -1.177,3.595 0,0.854 0.269,1.547 0.841,2.04 0.012,0.003 7.827,7.582 10.272,9.949 0.215,0.209 0.393,0.379 0.519,0.5 0.02,-0.201 0.028,-0.406 0.118,-0.574 l 0.209,-0.368 0.105,-0.177 c 1.043,-1.662 2.889,-3.866 6.123,-6.276 C -14.736,25.291 -6.066,20.959 8.5,17.479 L 3.088,5.834 3.006,5.648 C 2.979,5.566 2.959,5.475 2.943,5.367 2.797,4.309 3.422,2.463 3.875,1.313 3.9,1.242 3.988,0.996 4.068,0.84 3.463,0.176 2.289,-0.482 0,0"
             inkscape:connector-curvature="0" /></g><g
           transform="translate(79.9199,66.709)"
           id="g72"><path
             id="path74"
             style="fill:#c29438;fill-opacity:1;fill-rule:nonzero;stroke:none"
             d="m 0,0 c -0.059,-0.139 -0.127,-0.322 -0.186,-0.521 -0.521,-1.44 -0.877,-2.409 -0.877,-2.409 0,-0.008 -0.007,-0.037 -0.015,-0.058 -0.342,1.056 -0.799,2.781 -0.799,3.232 0,0.07 0.004,0.127 0.016,0.174 0.154,0.244 1.019,0.576 1.459,0.424 C -0.189,0.77 0.023,0.699 0.229,0.633 0.152,0.416 0.074,0.205 0,0"
             inkscape:connector-curvature="0" /></g><g
           transform="translate(136.5762,68.4453)"
           id="g76"><path
             id="path78"
             style="fill:#c29438;fill-opacity:1;fill-rule:nonzero;stroke:none"
             d="m 0,0 c -0.211,-0.074 -0.424,-0.139 -0.629,-0.213 -0.373,-0.121 -0.744,-0.244 -1.117,-0.361 -7.197,-2.28 -15.967,-3.53 -24.936,-3.537 l -1.074,0.007 -0.621,0.006 -0.625,-0.006 -1.07,-0.007 c -8.961,0.007 -17.723,1.256 -24.92,3.527 -0.074,0.02 -0.145,0.049 -0.213,0.07 -0.309,0.096 -0.602,0.196 -0.897,0.293 -0.22,0.075 -0.437,0.145 -0.648,0.221 -0.313,0.107 -0.732,0.104 -1.146,0.02 0.031,0.064 0.068,0.146 0.107,0.236 0.726,1.56 3.053,6.574 4.851,10.437 0.137,0.297 0.268,0.588 0.401,0.87 1.06,2.281 1.849,3.982 1.849,3.982 0.561,1.09 1.795,1.771 3.161,1.771 l 0.955,-0.115 0.127,-0.039 c 4.906,-1.277 10.658,-1.949 16.675,-1.949 l 1.401,0.012 1.385,-0.012 c 6.011,0 11.773,0.672 16.656,1.945 0.035,0.014 0.154,0.043 0.154,0.043 l 0.936,0.115 c 1.381,0 2.613,-0.681 3.14,-1.738 0,0 0.858,-1.826 1.975,-4.232 C -3.678,10.383 -3.189,9.32 -2.684,8.254 -1.07,4.787 0.596,1.205 1.035,0.256 1.102,0.119 1.139,0.035 1.143,0.02 0.85,0.082 0.543,0.102 0.273,0.066 0.178,0.051 0.084,0.027 0,0"
             inkscape:connector-curvature="0" /></g><g
           transform="translate(138.0332,65.2305)"
           id="g80"><path
             id="path82"
             style="fill:#c29438;fill-opacity:1;fill-rule:nonzero;stroke:none"
             d="M 0,0 -0.85,2.355 C -0.379,2.34 0.225,2.07 0.318,1.877 L 0.322,1.863 C 0.33,1.852 0.342,1.846 0.342,1.838 0.346,1.809 0.348,1.768 0.348,1.727 0.348,1.379 0.217,0.746 0,0"
             inkscape:connector-curvature="0" /></g><g
           transform="translate(143.2266,61.8789)"
           id="g84"><path
             id="path86"
             style="fill:#c29438;fill-opacity:1;fill-rule:nonzero;stroke:none"
             d="m 0,0 c -3.955,-0.834 -4.619,1.738 -4.65,1.848 0,0 -0.004,0.017 -0.016,0.048 0.33,0.901 0.66,1.997 0.719,2.856 0.5,0.148 0.965,0.322 1.043,0.348 0.181,0.05 0.658,0.152 1.293,0.339 0.132,0.038 0.215,0.094 0.187,0.161 -0.012,0.052 -0.084,0.082 -0.187,0.046 -0.151,-0.046 -0.348,-0.085 -0.534,-0.08 -0.212,0.006 -0.4,0.192 -0.628,0.887 l -1.209,3.709 0.039,0.008 C -3.703,10.072 -2.344,9.264 -0.977,8.594 0.336,7.928 1.896,7.154 2.672,6.787 2.807,6.725 2.967,6.668 3.129,6.711 3.211,6.736 3.262,6.848 3.211,7.053 l -1.582,5.804 c -0.141,0.522 -0.109,0.706 0.131,0.862 0.117,0.068 0.195,0.092 0.299,0.117 0.113,0.029 0.16,0.098 0.136,0.146 -0.023,0.075 -0.117,0.059 -0.252,0.024 -0.48,-0.143 -0.845,-0.276 -0.955,-0.305 -0.201,-0.064 -0.74,-0.195 -1.259,-0.342 -0.141,-0.048 -0.243,-0.086 -0.217,-0.168 0.011,-0.048 0.05,-0.082 0.177,-0.043 0.141,0.04 0.377,0.102 0.536,0.092 0.259,-0.015 0.398,-0.15 0.574,-0.707 L 2.098,8.49 2.047,8.482 C 1.865,8.559 0.178,9.471 -0.684,9.91 c -1.83,0.922 -3.734,1.947 -3.892,2.037 -0.217,0.106 -0.397,0.207 -0.512,0.172 -0.105,-0.031 -0.129,-0.181 -0.074,-0.361 L -3.668,6.297 C -3.436,5.5 -3.404,5.242 -3.643,5.102 -3.73,5.053 -3.84,5.008 -3.939,4.973 c 0,0.152 -0.004,0.3 -0.032,0.427 0,0.006 0.004,0.01 0.004,0.016 0,0.02 -0.01,0.041 -0.015,0.061 0,0.023 -0.004,0.058 -0.016,0.084 -0.004,0.015 -0.004,0.027 -0.008,0.043 -0.004,0.009 -0.015,0.021 -0.021,0.035 0.006,-0.008 0.009,-0.008 0.017,-0.02 0,0 -0.101,0.213 -0.109,0.215 0,0 -0.004,0.018 -0.012,0.029 -0.064,0.137 -0.457,1 -0.457,1 L -9.432,17.26 c 15.129,3.515 24.061,7.949 29.319,11.859 3.234,2.404 5.068,4.608 6.111,6.272 l 0.148,0.226 0.182,0.326 c 0.086,0.166 0.092,0.37 0.117,0.565 0.119,-0.117 0.299,-0.287 0.51,-0.498 2.445,-2.362 10.275,-9.946 10.279,-9.949 0.563,-0.491 0.836,-1.19 0.836,-2.038 0,-1.009 -0.394,-2.242 -1.177,-3.599 C 36.566,19.863 36.197,19.32 35.805,18.783 34.738,17.314 33.434,15.93 31.947,14.621 31.014,13.873 29.973,13.057 28.934,12.227 26.879,10.75 24.625,9.396 22.303,8.172 13.787,3.684 4.307,0.902 0,0"
             inkscape:connector-curvature="0" /></g><g
           transform="translate(165.75,59.9258)"
           id="g88"><path
             id="path90"
             style="fill:#c29438;fill-opacity:1;fill-rule:nonzero;stroke:none"
             d="m 0,0 c 0.031,0.039 0.074,0.07 0.105,0.109 0.008,0.018 0.036,0.057 0.043,0.077 0,0 0.049,0.08 0.069,0.105 C 0.203,0.279 0.197,0.27 0.188,0.254 c 0.009,0.008 0.019,0.029 0.033,0.047 0.105,0.164 0.199,0.328 0.283,0.5 0.476,0.914 0.66,1.892 0.66,2.849 0,2.284 -0.998,4.413 -1.428,5.231 -0.031,0.055 -0.05,0.099 -0.07,0.14 0.238,0.12 0.471,0.241 0.703,0.366 5.002,2.654 9.676,5.896 12.828,9.699 0.748,-2.588 2.623,-9.639 2.623,-15.732 0,-3.758 -0.715,-7.141 -2.859,-8.85 -3.07,-2.463 -7.295,0.221 -7.334,0.244 -0.504,0.314 -3.314,2.059 -5.758,3.492 -0.5,0.291 -0.986,0.576 -1.432,0.83 0,0 0.012,0.004 0.024,0.004 C -0.992,-0.807 -0.445,-0.533 0,0"
             inkscape:connector-curvature="0" /></g><g
           transform="translate(160.8633,61.2559)"
           id="g92"><path
             id="path94"
             style="fill:#c29438;fill-opacity:1;fill-rule:nonzero;stroke:none"
             d="m 0,0 c -0.293,0.584 -0.367,1.158 -0.367,1.596 0,0.082 0.008,0.129 0.015,0.199 C 0.26,1.428 2.324,0.201 4.061,-0.836 3.193,-1.682 1.818,-1.361 1.354,-1.221 0.742,-0.836 0.211,-0.404 0,0"
             inkscape:connector-curvature="0" /></g><g
           transform="translate(48.7559,231.5781)"
           id="g96"><path
             id="path98"
             style="fill:#263d96;fill-opacity:1;fill-rule:nonzero;stroke:none"
             d="m 0,0 c -0.008,-0.008 -0.012,-0.008 -0.025,-0.016 l 0.041,0.03 C 0.016,0.01 0.004,0.006 0,0"
             inkscape:connector-curvature="0" /></g><g
           transform="translate(148.3379,77.3105)"
           id="g100"><path
             id="path102"
             style="fill:#231f20;fill-opacity:1;fill-rule:nonzero;stroke:none"
             d="M 0,0 C -2.518,-0.994 -2.695,-3.334 -2.102,-4.852 -1.475,-6.424 0.256,-7.938 2.664,-6.982 4.797,-6.137 5.5,-4.01 4.701,-1.977 3.893,0.059 2.082,0.83 0,0"
             inkscape:connector-curvature="0" /></g><g
           transform="translate(151.1504,70.9473)"
           id="g104"><path
             id="path106"
             style="fill:#c29438;fill-opacity:1;fill-rule:nonzero;stroke:none"
             d="m 0,0 c -1.564,-0.619 -3.068,0.445 -3.793,2.271 -0.869,2.188 0,3.161 0.918,3.53 C -1.537,6.328 0,5.545 0.783,3.576 1.787,1.055 0.58,0.227 0,0"
             inkscape:connector-curvature="0" /></g><g
           transform="translate(113.1445,70.1738)"
           id="g108"><path
             id="path110"
             style="fill:#231f20;fill-opacity:1;fill-rule:nonzero;stroke:none"
             d="m 0,0 c -0.152,-0.014 -0.377,-0.01 -0.512,0.012 -0.295,0.035 -0.371,0.195 -0.412,0.48 -0.07,0.446 -0.121,1.287 -0.166,2.299 L -1.176,4.65 c -0.078,1.6 -0.086,1.903 -0.086,2.241 0,0.373 0.074,0.521 0.342,0.584 0.113,0.033 0.186,0.05 0.291,0.052 0.098,0.006 0.15,0.037 0.147,0.129 0,0.071 -0.081,0.086 -0.202,0.076 C -1.066,7.723 -1.703,7.664 -1.951,7.648 -2.234,7.641 -2.91,7.629 -3.27,7.611 -3.43,7.604 -3.502,7.568 -3.502,7.508 c 0.004,-0.096 0.068,-0.117 0.174,-0.113 0.117,0.007 0.236,0 0.349,-0.03 C -2.766,7.297 -2.652,7.18 -2.619,6.822 -2.588,6.486 -2.576,6.193 -2.49,4.59 L -2.414,2.727 C -2.355,1.711 -2.32,0.869 -2.34,0.434 -2.355,0.119 -2.414,-0.031 -2.607,-0.092 c -0.084,-0.027 -0.202,-0.043 -0.332,-0.051 -0.118,-0.009 -0.157,-0.074 -0.157,-0.121 0.004,-0.076 0.075,-0.107 0.186,-0.103 0.396,0.021 1.072,0.09 1.293,0.097 0.267,0.014 0.937,0.014 1.588,0.041 0.113,0.008 0.187,0.049 0.187,0.12 C 0.146,-0.059 0.104,0.01 0,0"
             inkscape:connector-curvature="0" /></g><g
           transform="translate(119.6523,78.752)"
           id="g112"><path
             id="path114"
             style="fill:#231f20;fill-opacity:1;fill-rule:nonzero;stroke:none"
             d="m 0,0 c -0.037,-0.002 -0.119,-0.037 -0.27,-0.086 -0.138,-0.043 -0.349,-0.09 -0.662,-0.125 l -3.966,-0.475 c -0.315,-0.037 -0.688,-0.068 -0.983,-0.064 -0.252,0.01 -0.355,0.078 -0.433,0.074 -0.059,-0.01 -0.082,-0.074 -0.09,-0.209 -0.012,-0.097 -0.076,-1.129 -0.061,-1.297 0.01,-0.115 0.049,-0.17 0.104,-0.164 0.066,0.004 0.09,0.059 0.101,0.143 0.012,0.078 0.037,0.223 0.123,0.385 0.121,0.246 0.346,0.351 0.908,0.431 l 1.448,0.211 0.5,-4.24 c 0.119,-0.963 0.22,-1.795 0.232,-2.242 0,-0.315 -0.037,-0.518 -0.232,-0.59 -0.067,-0.031 -0.192,-0.066 -0.334,-0.078 -0.129,-0.01 -0.145,-0.078 -0.145,-0.121 0.008,-0.084 0.082,-0.114 0.199,-0.1 0.399,0.045 1.051,0.164 1.28,0.192 0.275,0.035 0.935,0.076 1.578,0.154 0.113,0.013 0.189,0.056 0.174,0.129 -0.004,0.051 -0.053,0.105 -0.162,0.093 -0.145,-0.011 -0.373,-0.031 -0.508,-0.019 -0.295,0.01 -0.369,0.203 -0.442,0.496 -0.097,0.449 -0.211,1.273 -0.322,2.242 l -0.5,4.24 1.233,0.124 c 0.884,0.089 1.167,-0.196 1.23,-0.471 l 0.018,-0.11 c 0.035,-0.158 0.058,-0.201 0.14,-0.193 0.053,0.008 0.063,0.063 0.063,0.182 C 0.193,-1.213 0.123,-0.436 0.096,-0.217 0.076,-0.057 0.057,0.004 0,0"
             inkscape:connector-curvature="0" /></g><g
           transform="translate(102.5488,71.5762)"
           id="g116"><path
             id="path118"
             style="fill:#231f20;fill-opacity:1;fill-rule:nonzero;stroke:none"
             d="m 0,0 c -0.063,0 -0.09,-0.041 -0.127,-0.15 -0.109,-0.426 -0.25,-0.637 -0.51,-0.729 -0.275,-0.1 -0.677,-0.072 -0.929,-0.039 l -2.305,0.273 c 0,0 -0.305,0.094 -0.496,0.565 -0.031,0.08 -0.043,0.164 -0.069,0.246 -0.117,0.637 -0.31,1.668 -0.525,2.744 0,0 3.725,-0.547 3.887,-0.59 0.361,-0.07 0.472,-0.256 0.496,-0.465 0.012,-0.142 0,-0.271 0,-0.386 -0.004,-0.045 0.012,-0.09 0.078,-0.096 0.098,-0.014 0.111,0.137 0.123,0.221 0.008,0.072 0.074,0.492 0.125,0.703 0.113,0.521 0.162,0.689 0.162,0.756 C -0.082,3.113 -0.113,3.17 -0.15,3.17 -0.203,3.18 -0.244,3.121 -0.33,3.053 -0.43,2.955 -0.578,2.938 -0.814,2.938 -1.008,2.938 -5.07,3.512 -5.07,3.512 -5.32,4.781 -5.549,6.02 -5.674,6.645 -4.898,6.518 -1.373,6.02 -1.221,5.98 c 0.487,-0.105 0.547,-0.261 0.604,-0.451 0.039,-0.131 0.035,-0.316 0.023,-0.394 -0.008,-0.09 0,-0.137 0.067,-0.137 0.082,-0.016 0.117,0.107 0.129,0.156 0.041,0.119 0.115,0.573 0.13,0.684 0.075,0.482 0.145,0.6 0.155,0.67 0,0.043 0,0.101 -0.055,0.111 -0.049,0 -0.107,-0.025 -0.17,-0.037 C -0.41,6.58 -0.578,6.551 -0.756,6.564 -0.934,6.58 -5.602,7.357 -5.977,7.396 -6.076,7.416 -6.174,7.307 -6.336,7.035 l -3.705,-6.078 c -0.303,-0.496 -0.52,-0.777 -0.975,-0.775 -0.084,0.009 -0.199,0.021 -0.297,0.033 -0.07,0.015 -0.113,-0.026 -0.123,-0.084 -0.007,-0.086 0.038,-0.123 0.159,-0.147 0.511,-0.086 1.031,-0.144 1.127,-0.164 0.312,-0.056 0.757,-0.17 1.076,-0.226 0.103,-0.02 0.162,-0.006 0.174,0.08 0.007,0.062 0,0.109 -0.12,0.138 l -0.144,0.024 c -0.299,0.057 -0.369,0.174 -0.334,0.365 0.019,0.115 0.113,0.371 0.256,0.602 l 0.773,1.302 c 0.026,0.061 0.045,0.071 0.104,0.061 L -6.096,1.76 C -6.043,1.75 -6.016,1.73 -6,1.662 l 0.365,-2.221 c 0.028,-0.13 -0.058,-0.218 -0.133,-0.218 -0.095,0.007 -0.127,-0.026 -0.134,-0.09 -0.012,-0.074 0.084,-0.102 0.267,-0.137 0.485,-0.076 1.319,-0.176 1.752,-0.228 0.449,-0.057 0.904,-0.118 1.262,-0.159 0.508,-0.062 1.148,-0.146 1.869,-0.228 0.375,-0.039 0.457,-0.047 0.559,0.217 0.08,0.195 0.228,0.91 0.256,1.142 C 0.078,-0.145 0.078,-0.008 0,0"
             inkscape:connector-curvature="0" /></g><g
           transform="translate(96.3555,73.9434)"
           id="g120"><path
             id="path122"
             style="fill:#c29438;fill-opacity:1;fill-rule:nonzero;stroke:none"
             d="m 0,0 -1.877,0.336 c -0.031,0.01 -0.051,0.031 -0.016,0.088 l 1.405,2.455 c 0.019,0.029 0.047,0.092 0.074,0.086 0.019,0 0.019,-0.065 0.029,-0.108 L 0.047,0.055 C 0.059,0.012 0.047,-0.012 0,0"
             inkscape:connector-curvature="0" /></g><g
           transform="translate(109.2148,77.7695)"
           id="g124"><path
             id="path126"
             style="fill:#231f20;fill-opacity:1;fill-rule:nonzero;stroke:none"
             d="M 0,0 C -0.039,0.008 -0.119,-0.021 -0.271,-0.037 -0.432,-0.059 -0.635,-0.078 -0.938,-0.07 l -4.001,0.103 c -0.319,0.012 -0.696,0.028 -0.983,0.078 -0.244,0.041 -0.348,0.131 -0.426,0.133 -0.058,0 -0.09,-0.058 -0.117,-0.193 -0.027,-0.094 -0.24,-1.102 -0.24,-1.274 -0.004,-0.123 0.016,-0.179 0.082,-0.179 0.062,0 0.094,0.048 0.115,0.136 0.024,0.071 0.07,0.205 0.174,0.354 0.145,0.232 0.393,0.291 0.959,0.291 l 1.471,0 -0.11,-4.268 c -0.019,-0.963 -0.05,-1.797 -0.103,-2.246 -0.043,-0.306 -0.106,-0.5 -0.307,-0.545 -0.086,-0.029 -0.203,-0.035 -0.353,-0.031 -0.118,0 -0.143,-0.062 -0.143,-0.105 -0.016,-0.077 0.053,-0.12 0.166,-0.12 0.395,-0.009 1.072,0.008 1.291,0 0.283,0 0.947,-0.06 1.598,-0.076 0.105,0 0.181,0.033 0.191,0.11 0,0.05 -0.047,0.113 -0.152,0.113 -0.154,0.002 -0.377,0.021 -0.506,0.051 -0.293,0.058 -0.348,0.256 -0.363,0.56 -0.039,0.457 -0.028,1.285 0,2.262 l 0.113,4.271 1.232,-0.06 c 0.885,-0.039 1.129,-0.365 1.149,-0.641 l 0.012,-0.113 c 0.005,-0.16 0.023,-0.215 0.097,-0.215 0.061,0 0.092,0.063 0.104,0.178 0.008,0.273 0.054,1.057 0.054,1.273 C 0.07,-0.059 0.066,0 0,0"
             inkscape:connector-curvature="0" /></g><g
           transform="translate(91.3457,73.3652)"
           id="g128"><path
             id="path130"
             style="fill:#231f20;fill-opacity:1;fill-rule:nonzero;stroke:none"
             d="m 0,0 c -0.08,0.023 -0.117,-0.029 -0.164,-0.123 -0.076,-0.186 -0.264,-0.434 -0.41,-0.533 -0.324,-0.203 -0.692,-0.1 -1.199,0.052 -0.729,0.225 -1.071,0.399 -1.182,0.604 -0.141,0.248 0.045,0.893 0.453,2.188 l 0.543,1.783 c 0.477,1.521 0.561,1.808 0.682,2.123 0.127,0.349 0.252,0.47 0.523,0.437 C -0.637,6.523 -0.49,6.488 -0.385,6.457 -0.26,6.424 -0.203,6.441 -0.18,6.514 -0.152,6.582 -0.215,6.623 -0.354,6.668 -0.719,6.779 -1.49,6.992 -1.715,7.063 -1.975,7.143 -2.564,7.352 -3.002,7.484 -3.143,7.529 -3.217,7.529 -3.234,7.455 -3.258,7.383 -3.217,7.332 -3.119,7.299 -2.996,7.264 -2.875,7.213 -2.813,7.166 -2.541,6.979 -2.496,6.846 -2.572,6.488 -2.656,6.166 -2.748,5.887 -3.217,4.354 L -3.77,2.572 C -4.053,1.646 -4.297,0.854 -4.477,0.438 -4.592,0.148 -4.709,-0.023 -4.91,-0.006 c -0.094,0 -0.205,0.024 -0.342,0.063 C -5.381,0.096 -5.422,0.045 -5.434,0 c -0.023,-0.076 0.024,-0.131 0.147,-0.168 0.199,-0.057 0.435,-0.117 0.66,-0.18 0.225,-0.062 0.43,-0.121 0.535,-0.156 0.391,-0.111 0.772,-0.244 1.248,-0.402 0.463,-0.164 1.002,-0.354 1.672,-0.549 0.496,-0.152 0.551,-0.129 0.686,0.08 0.168,0.273 0.463,1.01 0.498,1.123 C 0.053,-0.133 0.064,-0.018 0,0"
             inkscape:connector-curvature="0" /></g><g
           transform="translate(132.5664,73.625)"
           id="g132"><path
             id="path134"
             style="fill:#231f20;fill-opacity:1;fill-rule:nonzero;stroke:none"
             d="M 0,0 C -0.109,-0.021 -0.223,-0.037 -0.373,-0.051 -0.555,-0.053 -0.861,0.008 -1.455,0.842 -2.443,2.25 -5.086,6.051 -5.453,6.561 -5.602,6.766 -5.67,6.852 -5.822,6.818 -5.91,6.791 -5.961,6.652 -5.996,6.342 l -0.908,-7.071 c -0.071,-0.572 -0.149,-0.927 -0.567,-1.107 -0.082,-0.021 -0.185,-0.053 -0.279,-0.078 -0.016,-0.004 -0.016,-0.012 -0.027,-0.016 -0.024,0.035 -0.073,0.069 -0.151,0.047 -0.138,-0.021 -0.365,-0.053 -0.5,-0.053 -0.295,-0.007 -0.392,0.145 -0.48,0.416 -0.125,0.436 -0.28,1.268 -0.467,2.266 l -0.332,1.828 c -0.293,1.578 -0.35,1.867 -0.389,2.207 -0.043,0.367 0,0.528 0.256,0.625 0.117,0.045 0.194,0.076 0.291,0.094 0.094,0.012 0.143,0.053 0.125,0.148 -0.019,0.067 -0.09,0.077 -0.207,0.053 -0.379,-0.07 -1.004,-0.213 -1.244,-0.254 -0.275,-0.058 -0.943,-0.154 -1.311,-0.218 -0.156,-0.032 -0.216,-0.067 -0.201,-0.124 0.018,-0.107 0.069,-0.119 0.17,-0.103 0.115,0.027 0.244,0.039 0.362,0.021 0.218,-0.037 0.343,-0.14 0.429,-0.49 0.072,-0.332 0.121,-0.619 0.418,-2.195 l 0.338,-1.834 c 0.19,-1.002 0.342,-1.83 0.377,-2.264 0.023,-0.31 0,-0.472 -0.191,-0.553 -0.084,-0.044 -0.194,-0.082 -0.336,-0.101 -0.121,-0.022 -0.149,-0.092 -0.137,-0.141 0.016,-0.07 0.094,-0.099 0.201,-0.074 0.389,0.068 1.049,0.233 1.262,0.268 0.271,0.048 0.937,0.132 1.566,0.257 0.043,0.006 0.078,0.024 0.112,0.04 0.035,-0.063 0.078,-0.075 0.187,-0.055 0.5,0.129 1.004,0.285 1.102,0.316 0.306,0.071 0.748,0.147 1.074,0.221 0.092,0.029 0.139,0.062 0.123,0.156 -0.016,0.057 -0.049,0.1 -0.166,0.071 l -0.145,-0.038 c -0.289,-0.07 -0.406,0.014 -0.457,0.198 -0.019,0.119 -0.043,0.384 -0.015,0.666 l 0.183,1.496 c 0,0.07 0.008,0.08 0.061,0.094 l 2.246,0.556 c 0.055,0.016 0.088,0.004 0.119,-0.053 l 1.25,-1.873 c 0.068,-0.113 0.033,-0.22 -0.031,-0.257 -0.09,-0.03 -0.11,-0.073 -0.09,-0.137 0.016,-0.068 0.129,-0.043 0.299,-0.008 0.814,0.172 1.506,0.344 1.838,0.428 0.369,0.09 0.408,0.129 0.392,0.209 C 0.135,-0.002 0.088,0.025 0,0"
             inkscape:connector-curvature="0" /></g><g
           transform="translate(128.6016,75.7559)"
           id="g136"><path
             id="path138"
             style="fill:#c29438;fill-opacity:1;fill-rule:nonzero;stroke:none"
             d="m 0,0 -1.85,-0.457 c -0.027,-0.01 -0.058,0.01 -0.043,0.064 l 0.28,2.823 c 0,0.035 -0.008,0.101 0.027,0.113 0.023,0 0.043,-0.059 0.063,-0.086 L 0.031,0.074 C 0.043,0.035 0.043,0.01 0,0"
             inkscape:connector-curvature="0" /></g><g
           transform="translate(167.6738,80.3086)"
           id="g140"><path
             id="path142"
             style="fill:#231f20;fill-opacity:1;fill-rule:nonzero;stroke:none"
             d="m 0,0 c 0.143,-0.24 0.217,-0.42 0.07,-0.584 -0.054,-0.074 -0.133,-0.156 -0.261,-0.252 -0.096,-0.08 -0.084,-0.143 -0.057,-0.18 0.039,-0.052 0.121,-0.029 0.213,0.043 0.318,0.254 0.818,0.69 0.971,0.809 0.119,0.094 0.81,0.596 1.273,0.965 0.107,0.08 0.145,0.148 0.107,0.205 -0.031,0.037 -0.097,0.051 -0.16,0 C 2.057,0.918 1.869,0.801 1.738,0.721 1.463,0.568 1.311,0.676 1.117,0.875 0.83,1.162 0.357,1.734 -0.191,2.439 l -0.084,0.104 c -0.032,0.039 -0.02,0.084 0.019,0.109 L 0.473,3.207 C 0.531,3.25 0.588,3.273 0.664,3.27 0.865,3.234 1.598,2.994 2.23,2.848 3.141,2.621 3.832,2.479 4.301,2.586 4.6,2.648 4.758,2.738 5.213,3.098 l 0.201,0.23 C 5.654,3.578 5.84,3.797 5.922,3.883 5.949,3.904 5.969,3.924 5.977,3.939 6.205,4.176 6.555,4.484 6.783,4.723 6.859,4.791 6.885,4.855 6.83,4.906 6.787,4.951 6.74,4.961 6.646,4.867 L 6.539,4.764 C 6.326,4.539 6.182,4.539 6.063,4.662 5.984,4.738 5.848,4.938 5.752,5.172 L 5.225,6.469 C 5.205,6.527 5.205,6.535 5.242,6.574 L 6.934,8.303 C 6.969,8.334 6.996,8.352 7.055,8.326 L 8.982,7.557 C 9.098,7.508 9.098,7.396 9.063,7.334 9.002,7.256 9.006,7.213 9.045,7.174 9.098,7.131 9.18,7.209 9.316,7.334 9.939,7.932 10.463,8.471 10.719,8.727 10.99,9.004 11.01,9.061 10.951,9.121 10.902,9.164 10.844,9.154 10.781,9.084 10.703,9.004 10.615,8.934 10.494,8.836 10.332,8.727 10.049,8.607 9.152,8.928 7.66,9.475 3.67,10.986 3.115,11.176 c -0.219,0.076 -0.324,0.107 -0.427,0 -0.079,-0.08 -0.051,-0.213 0.066,-0.494 L 5.158,4.57 C 5.301,4.213 5.379,3.947 5.309,3.674 5.115,3.631 4.836,3.605 4.438,3.643 3.588,3.729 2.486,3.957 1.105,4.242 1.408,5.469 1.35,6.227 0.92,6.779 0.527,7.285 -0.119,7.396 -0.465,7.367 -1.113,7.299 -1.736,6.881 -2.246,6.477 -2.498,6.279 -3.207,5.688 -3.486,5.469 -3.645,5.346 -4.188,4.951 -4.604,4.623 -4.725,4.523 -4.775,4.457 -4.73,4.404 c 0.042,-0.05 0.115,-0.039 0.197,0.03 0.131,0.091 0.267,0.189 0.345,0.228 0.311,0.125 0.45,0.106 0.663,-0.133 0.201,-0.23 0.365,-0.443 1.267,-1.576 L -1.221,1.625 C -0.67,0.941 -0.209,0.348 0,0"
             inkscape:connector-curvature="0" /></g><g
           transform="translate(172.6855,87.4004)"
           id="g144"><path
             id="path146"
             style="fill:#c29438;fill-opacity:1;fill-rule:nonzero;stroke:none"
             d="m 0,0 c -0.031,-0.023 -0.057,-0.023 -0.074,0.025 l -1.031,2.399 c -0.018,0.035 -0.049,0.08 -0.02,0.109 0.02,0.012 0.061,-0.019 0.096,-0.035 L 1.379,1.496 C 1.414,1.482 1.414,1.455 1.391,1.424 L 0,0 Z"
             inkscape:connector-curvature="0" /></g><g
           transform="translate(165.1426,85.7129)"
           id="g148"><path
             id="path150"
             style="fill:#c29438;fill-opacity:1;fill-rule:nonzero;stroke:none"
             d="M 0,0 C -0.047,0.064 -0.047,0.102 -0.004,0.164 0.064,0.244 0.238,0.408 0.445,0.572 0.922,0.941 1.891,1.264 2.717,0.207 3.207,-0.41 3.188,-0.957 3.078,-1.318 3.016,-1.521 2.92,-1.639 2.602,-1.889 2.404,-2.049 2.152,-2.221 1.941,-2.305 1.865,-2.324 1.826,-2.311 1.756,-2.225 L 0,0 Z"
             inkscape:connector-curvature="0" /></g><g
           transform="translate(156.2871,77.6348)"
           id="g152"><path
             id="path154"
             style="fill:#231f20;fill-opacity:1;fill-rule:nonzero;stroke:none"
             d="M 0,0 -0.477,0.008 C -1.512,0.037 -1.814,0.27 -2.008,0.645 -2.299,1.23 -1.873,1.857 -1.209,2.188 -0.615,2.484 -0.201,2.393 0.012,2.301 0.33,2.178 0.496,1.934 0.539,1.857 0.582,1.754 0.641,1.723 0.699,1.752 0.775,1.797 0.775,1.904 0.684,2.08 0.35,2.756 0.256,3.008 0.211,3.123 0.178,3.188 0.117,3.189 0.023,3.168 -0.252,3.113 -0.764,2.955 -1.354,2.654 -2.629,2.016 -3.33,0.826 -2.809,-0.221 c 0.377,-0.754 1.022,-1.146 2.405,-1.215 l 0.687,-0.037 c 1.045,-0.048 1.326,-0.379 1.506,-0.744 0.311,-0.601 0.07,-1.328 -0.723,-1.724 -0.57,-0.291 -1.375,-0.424 -1.884,0.109 -0.135,0.125 -0.248,0.291 -0.305,0.406 -0.035,0.055 -0.074,0.127 -0.164,0.084 -0.074,-0.031 -0.067,-0.142 -0.008,-0.273 0.066,-0.147 0.291,-0.694 0.52,-1.162 0.097,-0.19 0.152,-0.217 0.318,-0.203 0.484,0.027 1.07,0.265 1.605,0.525 0.497,0.25 1.075,0.598 1.362,1.129 0.437,0.779 0.437,1.418 0.119,2.049 C 2.238,-0.502 1.545,-0.037 0,0"
             inkscape:connector-curvature="0" /></g><g
           transform="translate(165.0371,77.8633)"
           id="g156"><path
             id="path158"
             style="fill:#231f20;fill-opacity:1;fill-rule:nonzero;stroke:none"
             d="m 0,0 c -0.133,-0.086 -0.338,-0.195 -0.465,-0.25 -0.279,-0.117 -0.424,0 -0.594,0.209 -0.259,0.334 -0.664,0.963 -1.125,1.709 l -2.037,3.287 1.114,0.662 c 0.793,0.477 1.179,0.369 1.324,0.172 l 0.06,-0.078 c 0.094,-0.123 0.129,-0.147 0.2,-0.106 0.052,0.03 0.037,0.09 0,0.184 C -1.656,5.996 -2.002,6.613 -2.117,6.777 -2.191,6.904 -2.23,6.949 -2.293,6.91 -2.318,6.893 -2.373,6.83 -2.502,6.727 -2.617,6.627 -2.801,6.494 -3.076,6.32 L -6.621,4.129 C -6.91,3.951 -7.24,3.754 -7.516,3.623 -7.758,3.518 -7.877,3.535 -7.959,3.488 -8,3.455 -8,3.387 -7.959,3.271 -7.939,3.197 -7.621,2.303 -7.537,2.174 -7.48,2.09 -7.439,2.051 -7.377,2.09 c 0.063,0.033 0.055,0.088 0.035,0.166 -0.019,0.066 -0.035,0.199 -0.019,0.369 0.019,0.26 0.187,0.447 0.679,0.762 l 1.287,0.843 2.032,-3.285 c 0.467,-0.744 0.861,-1.384 1.033,-1.754 0.123,-0.255 0.166,-0.443 0.012,-0.589 -0.059,-0.067 -0.161,-0.139 -0.291,-0.221 -0.118,-0.063 -0.118,-0.129 -0.09,-0.17 0.039,-0.057 0.121,-0.051 0.232,0.014 0.334,0.22 0.916,0.615 1.112,0.742 0.253,0.154 0.863,0.482 1.429,0.838 C 0.182,-0.131 0.225,-0.061 0.189,0 0.17,0.041 0.102,0.057 0,0"
             inkscape:connector-curvature="0" /></g><g
           transform="translate(166.3281,99.1973)"
           id="g160"><path
             id="path162"
             style="fill:#c29438;fill-opacity:1;fill-rule:nonzero;stroke:none"
             d="M 0,0 C 0.449,0.367 0.908,0.521 1.385,0.453 1.52,0.439 1.648,0.396 1.777,0.357 1.928,0.277 2.684,-0.168 2.357,-0.998 L 2.246,-1.193 2.098,-1.434 C 1.412,-2.527 0.15,-4.145 -2.059,-6.027 -1.771,-3.797 -1.16,-0.941 0,0"
             inkscape:connector-curvature="0" /></g><g
           transform="translate(59.8867,79.9863)"
           id="g164"><path
             id="path166"
             style="fill:#231f20;fill-opacity:1;fill-rule:nonzero;stroke:none"
             d="M 0,0 C 0.277,0.525 0.477,1.631 -1.227,2.527 -1.545,2.684 -1.928,2.848 -2.387,3.094 -2.564,3.182 -3.135,3.523 -3.631,3.789 -3.771,3.857 -3.844,3.875 -3.883,3.807 -3.918,3.732 -3.873,3.693 -3.771,3.633 -3.643,3.57 -3.484,3.469 -3.43,3.412 -3.146,3.178 -3.162,2.988 -3.316,2.646 -3.465,2.318 -3.607,2.043 -4.395,0.537 L -5.299,-1.188 C -5.768,-2.098 -6.184,-2.871 -6.447,-3.264 -6.629,-3.531 -6.783,-3.717 -7,-3.658 c -0.098,0.019 -0.215,0.054 -0.357,0.135 -0.106,0.054 -0.157,0.046 -0.19,0 -0.039,-0.071 0.018,-0.135 0.139,-0.194 0.185,-0.107 0.437,-0.207 0.65,-0.324 0.231,-0.107 0.438,-0.219 0.541,-0.266 0.143,-0.076 0.422,-0.226 0.686,-0.398 0.267,-0.152 0.531,-0.313 0.64,-0.375 1.721,-0.9 3.067,-0.217 3.614,0.84 0.605,1.152 0.047,2.338 -0.586,3.019 C -1.113,-1.053 -0.424,-0.799 0,0"
             inkscape:connector-curvature="0" /></g><g
           transform="translate(57.2285,75.9043)"
           id="g168"><path
             id="path170"
             style="fill:#c29438;fill-opacity:1;fill-rule:nonzero;stroke:none"
             d="m 0,0 c -0.527,-1.023 -1.365,-0.889 -1.787,-0.666 -0.213,0.111 -0.428,0.232 -0.617,0.471 -0.237,0.287 -0.17,0.474 0.164,1.121 l 1.22,2.336 c 0.028,0.047 0.053,0.056 0.094,0.029 C -0.791,3.225 -0.695,3.172 -0.527,3.08 -0.174,2.867 0,2.682 0.129,2.434 0.566,1.541 0.33,0.613 0,0"
             inkscape:connector-curvature="0" /></g><g
           transform="translate(56.9648,79.3711)"
           id="g172"><path
             id="path174"
             style="fill:#c29438;fill-opacity:1;fill-rule:nonzero;stroke:none"
             d="M 0,0 C -0.213,0.117 -0.344,0.197 -0.432,0.262 -0.457,0.287 -0.48,0.322 -0.434,0.408 L 0.834,2.834 C 0.896,2.951 0.939,2.971 1.014,2.957 1.109,2.934 1.195,2.887 1.33,2.824 2.133,2.395 2.053,1.336 1.695,0.68 1.443,0.197 1.121,-0.088 0.771,-0.166 0.527,-0.234 0.307,-0.158 0,0"
             inkscape:connector-curvature="0" /></g><g
           transform="translate(52.2383,76.5313)"
           id="g176"><path
             id="path178"
             style="fill:#231f20;fill-opacity:1;fill-rule:nonzero;stroke:none"
             d="M 0,0 C -0.109,0.066 -0.225,0.164 -0.334,0.279 -0.5,0.447 -0.668,0.744 -0.449,1.799 -0.09,3.578 0.996,8.301 1.121,8.953 1.172,9.223 1.172,9.346 1.094,9.398 1.004,9.445 0.885,9.391 0.605,9.184 L -5.449,4.805 C -5.934,4.461 -6.307,4.262 -6.748,4.465 -6.838,4.506 -6.959,4.58 -7.039,4.627 -7.105,4.672 -7.141,4.682 -7.186,4.619 -7.236,4.551 -7.189,4.496 -7.078,4.424 -6.623,4.119 -6.123,3.828 -6.027,3.762 -5.744,3.59 -5.395,3.307 -5.111,3.119 c 0.103,-0.064 0.17,-0.082 0.224,-0.004 0.03,0.049 0.008,0.092 -0.097,0.16 l -0.131,0.09 c -0.264,0.18 -0.264,0.35 -0.158,0.518 0.064,0.111 0.263,0.303 0.503,0.48 l 1.346,1.018 c 0.061,0.041 0.092,0.047 0.123,0.021 L -1.326,4.107 C -1.279,4.076 -1.26,4.041 -1.279,3.98 L -1.865,1.549 C -1.896,1.41 -2.01,1.369 -2.086,1.387 c -0.102,0.045 -0.144,0.045 -0.187,0 -0.041,-0.063 0.066,-0.141 0.216,-0.25 0.7,-0.479 1.344,-0.907 1.664,-1.119 0.323,-0.209 0.42,-0.247 0.463,-0.17 C 0.119,-0.088 0.07,-0.051 0,0"
             inkscape:connector-curvature="0" /></g><g
           transform="translate(51.0547,81.2129)"
           id="g180"><path
             id="path182"
             style="fill:#c29438;fill-opacity:1;fill-rule:nonzero;stroke:none"
             d="m 0,0 -1.629,1.07 c -0.035,0.022 -0.019,0.053 0.012,0.086 l 2.316,1.748 c 0.035,0.035 0.076,0.067 0.108,0.045 0.019,-0.01 0,-0.064 -0.016,-0.105 L 0.074,0.016 C 0.074,-0.01 0.043,-0.029 0,0"
             inkscape:connector-curvature="0" /></g><g
           transform="translate(65.5137,79.5684)"
           id="g184"><path
             id="path186"
             style="fill:#231f20;fill-opacity:1;fill-rule:nonzero;stroke:none"
             d="m 0,0 c -2.783,1.131 -4.824,-0.711 -5.582,-2.463 -0.795,-1.808 -0.689,-4.449 1.975,-5.527 2.349,-0.951 4.638,0.299 5.681,2.646 C 3.094,-2.998 2.318,-0.932 0,0"
             inkscape:connector-curvature="0" /></g><g
           transform="translate(66.125,74.373)"
           id="g188"><path
             id="path190"
             style="fill:#c29438;fill-opacity:1;fill-rule:nonzero;stroke:none"
             d="M 0,0 C -1.303,-2.965 -2.963,-2.707 -3.611,-2.436 -5.383,-1.721 -5.715,0.398 -4.777,2.535 -3.66,5.082 -2.16,5.244 -1.094,4.816 0.42,4.199 1.002,2.291 0,0"
             inkscape:connector-curvature="0" /></g><g
           transform="translate(74.3145,67.4121)"
           id="g192"><path
             id="path194"
             style="fill:#231f20;fill-opacity:1;fill-rule:nonzero;stroke:none"
             d="m 0,0 c -0.084,0.021 -0.164,0.059 -0.27,0.113 -0.152,0.086 -0.531,0.291 -0.892,1.082 -0.391,0.854 -0.779,2.014 -1.295,3.485 1.295,0.545 1.834,1.166 2.094,1.947 0.228,0.707 0,1.381 -0.233,1.67 -0.406,0.566 -1.058,0.84 -1.695,1.045 -0.313,0.103 -1.082,0.314 -1.426,0.424 -0.215,0.068 -0.838,0.302 -1.373,0.478 -0.152,0.045 -0.217,0.045 -0.246,-0.031 -0.021,-0.068 0.029,-0.108 0.137,-0.147 0.135,-0.041 0.306,-0.109 0.385,-0.158 0.302,-0.181 0.33,-0.381 0.24,-0.744 C -4.672,8.822 -4.766,8.523 -5.271,6.918 L -5.873,5.053 C -6.188,4.078 -6.455,3.248 -6.645,2.814 -6.793,2.529 -6.912,2.309 -7.119,2.328 -7.223,2.336 -7.352,2.348 -7.506,2.402 -7.623,2.441 -7.674,2.422 -7.693,2.369 -7.717,2.295 -7.654,2.236 -7.521,2.195 -7.119,2.07 -6.479,1.9 -6.281,1.834 c 0.144,-0.051 0.883,-0.318 1.459,-0.5 0.131,-0.043 0.209,-0.037 0.236,0.043 0.02,0.043 -0.008,0.09 -0.094,0.117 -0.115,0.041 -0.328,0.127 -0.476,0.201 -0.287,0.139 -0.272,0.395 -0.201,0.707 0.087,0.459 0.363,1.297 0.666,2.278 l 0.058,0.156 c 0.016,0.059 0.059,0.07 0.098,0.055 L -3.662,4.59 C -3.59,4.566 -3.531,4.539 -3.508,4.457 -3.426,4.254 -3.199,3.387 -2.977,2.678 -2.67,1.68 -2.449,1.061 -2.107,0.68 -1.891,0.449 -1.654,0.314 -1.084,0.135 l 0.953,-0.303 C -0.006,-0.209 0.072,-0.209 0.092,-0.127 0.111,-0.074 0.076,-0.033 0,0"
             inkscape:connector-curvature="0" /></g><g
           transform="translate(70.7207,72.5488)"
           id="g196"><path
             id="path198"
             style="fill:#c29438;fill-opacity:1;fill-rule:nonzero;stroke:none"
             d="M 0,0 C -0.26,0.074 -0.543,0.203 -0.74,0.342 -0.795,0.393 -0.803,0.451 -0.764,0.564 L 0.271,3.779 C 0.295,3.861 0.322,3.902 0.412,3.902 0.52,3.902 0.691,3.852 0.951,3.773 1.549,3.584 2.352,2.844 1.869,1.346 1.59,0.469 1.145,0.082 0.768,-0.055 0.539,-0.133 0.395,-0.133 0,0"
             inkscape:connector-curvature="0" /></g><g
           transform="translate(45.7793,82.6699)"
           id="g200"><path
             id="path202"
             style="fill:#231f20;fill-opacity:1;fill-rule:nonzero;stroke:none"
             d="M 0,0 C -0.064,0.064 -0.131,0.031 -0.203,-0.033 -0.363,-0.172 -0.678,-0.301 -0.883,-0.311 -1.297,-0.34 -1.639,-0.033 -2.092,0.387 -2.76,1.01 -2.922,1.275 -2.949,1.533 -3,1.844 -2.473,2.404 -1.504,3.445 l 1.332,1.43 C 0.982,6.109 1.199,6.334 1.451,6.576 1.734,6.852 1.934,6.926 2.203,6.748 2.32,6.676 2.461,6.553 2.557,6.469 2.658,6.365 2.732,6.334 2.779,6.398 2.832,6.447 2.787,6.518 2.666,6.633 2.328,6.945 1.689,7.502 1.479,7.689 1.25,7.912 0.738,8.438 0.344,8.807 0.211,8.934 0.133,8.971 0.088,8.914 0.033,8.854 0.066,8.791 0.156,8.701 0.27,8.602 0.367,8.49 0.42,8.414 0.646,8.092 0.596,7.902 0.348,7.611 0.121,7.334 -0.088,7.109 -1.238,5.875 L -2.57,4.436 C -3.268,3.695 -3.869,3.057 -4.23,2.756 -4.482,2.547 -4.703,2.41 -4.893,2.537 -4.986,2.594 -5.102,2.668 -5.23,2.793 -5.332,2.885 -5.393,2.895 -5.432,2.855 -5.486,2.799 -5.443,2.719 -5.332,2.611 -5.16,2.449 -4.924,2.262 -4.73,2.078 c 0.21,-0.191 0.396,-0.359 0.498,-0.445 0.347,-0.33 0.646,-0.623 1.007,-1 0.379,-0.363 0.815,-0.789 1.432,-1.367 0.438,-0.42 0.52,-0.42 0.736,-0.284 0.287,0.168 0.907,0.723 1,0.817 C 0.033,-0.105 0.061,-0.063 0,0"
             inkscape:connector-curvature="0" /></g><g
           transform="translate(49.3145,99.5488)"
           id="g204"><path
             id="path206"
             style="fill:#c29438;fill-opacity:1;fill-rule:nonzero;stroke:none"
             d="m 0,0 c 0.127,0.047 0.256,0.09 0.395,0.104 0.478,0.066 0.947,-0.086 1.4,-0.454 1.148,-0.941 1.766,-3.798 2.051,-6.033 -2.213,1.889 -3.471,3.508 -4.16,4.606 0.003,-0.006 -0.114,0.173 -0.114,0.173 l -0.146,0.262 c -0.043,0.102 -0.071,0.201 -0.082,0.295 l 0,0.02 C -0.707,-0.416 -0.145,-0.076 0,0"
             inkscape:connector-curvature="0" /></g><g
           transform="translate(108.2305,96.3477)"
           id="g208"><path
             id="path210"
             style="fill:#c29438;fill-opacity:1;fill-rule:evenodd;stroke:none"
             d="m 0,0 0,0 c -28.756,0 -52.285,23.529 -52.285,52.283 l 0,72.834 52.285,0 52.281,0 c 0.002,-24.277 0.002,-48.556 0,-72.834 C 52.281,23.529 28.752,0.002 0,0"
             inkscape:connector-curvature="0" /></g><g
           transform="translate(158.4473,148.5977)"
           id="g212"><path
             id="path214"
             style="fill:#165096;fill-opacity:1;fill-rule:nonzero;stroke:none"
             d="m 0,0 c -0.012,-13.4 -5.238,-26.008 -14.729,-35.486 -9.474,-9.473 -22.085,-14.7 -35.488,-14.7 -13.41,0 -26.017,5.227 -35.504,14.7 -2.761,2.769 -5.166,5.791 -7.179,9.027 -1.075,1.791 -2.024,3.564 -2.858,5.279 -3.056,6.539 -4.678,13.741 -4.685,21.18 l 0,70.801 L 0,70.799 0,0 Z"
             inkscape:connector-curvature="0" /></g><g
           transform="translate(62.0762,208.0449)"
           id="g216"><path
             id="path218"
             style="fill:#bdbcbc;fill-opacity:1;fill-rule:nonzero;stroke:none"
             d="m 0,0 c 0.547,0.404 3.146,2.291 3.146,2.291 0,0 2.627,-1.902 3.172,-2.295 -0.209,0.645 -1.211,3.731 -1.211,3.731 0,0 2.6,1.89 3.155,2.287 l -3.887,0 c 0,0 -1.008,3.103 -1.217,3.754 C 2.951,9.117 1.939,6.014 1.939,6.014 l -3.949,0 C -1.457,5.611 1.189,3.697 1.189,3.697 1.189,3.697 0.207,0.648 0,0"
             inkscape:connector-curvature="0" /></g><g
           transform="translate(148.1328,208.0449)"
           id="g220"><path
             id="path222"
             style="fill:#bdbcbc;fill-opacity:1;fill-rule:nonzero;stroke:none"
             d="m 0,0 c 0.547,0.404 3.141,2.291 3.141,2.291 0,0 2.632,-1.902 3.179,-2.297 -0.209,0.647 -1.205,3.733 -1.205,3.733 0,0 2.598,1.89 3.145,2.287 l -3.891,0 c 0,0 -1,3.103 -1.217,3.754 C 2.947,9.117 1.943,6.014 1.943,6.014 l -3.953,0 C -1.455,5.611 1.193,3.697 1.193,3.697 1.193,3.697 0.205,0.648 0,0"
             inkscape:connector-curvature="0" /></g><g
           transform="translate(92.1641,110.541)"
           id="g224"><path
             id="path226"
             style="fill:#bdbcbc;fill-opacity:1;fill-rule:nonzero;stroke:none"
             d="M 0,0 C 0,0 -0.998,3.107 -1.211,3.76 -1.42,3.107 -2.424,0 -2.424,0 c 0,0 -3.262,-0.002 -3.957,-0.002 0.559,-0.4 3.207,-2.312 3.207,-2.312 0,0 -0.984,-3.051 -1.197,-3.698 0.551,0.399 3.148,2.289 3.148,2.289 0,0 2.621,-1.892 3.168,-2.293 -0.209,0.651 -1.201,3.729 -1.201,3.729 0,0 2.598,1.889 3.152,2.295 C 3.207,0.008 0,0 0,0"
             inkscape:connector-curvature="0" /></g><g
           transform="translate(126.6973,110.541)"
           id="g228"><path
             id="path230"
             style="fill:#bdbcbc;fill-opacity:1;fill-rule:nonzero;stroke:none"
             d="M 0,0 C 0,0 -1.012,3.107 -1.225,3.76 -1.432,3.107 -2.436,0 -2.436,0 c 0,0 -3.267,-0.002 -3.955,-0.002 0.559,-0.4 3.207,-2.312 3.207,-2.312 0,0 -0.988,-3.051 -1.199,-3.698 0.561,0.399 3.151,2.289 3.151,2.289 0,0 2.625,-1.892 3.171,-2.293 -0.209,0.651 -1.207,3.729 -1.207,3.729 0,0 2.592,1.889 3.143,2.295 C 3.195,0.008 0,0 0,0"
             inkscape:connector-curvature="0" /></g><g
           transform="translate(147.7832,134.8359)"
           id="g232"><path
             id="path234"
             style="fill:#bdbcbc;fill-opacity:1;fill-rule:nonzero;stroke:none"
             d="m 0,0 c 0.547,0.4 3.141,2.293 3.141,2.293 0,0 2.625,-1.902 3.175,-2.297 -0.205,0.647 -1.197,3.733 -1.197,3.733 0,0 2.594,1.882 3.141,2.287 l -3.885,0 c 0,0 -1.008,3.103 -1.215,3.754 C 2.947,9.119 1.936,6.016 1.936,6.016 l -3.957,0 C -1.455,5.607 1.199,3.691 1.199,3.691 1.199,3.691 0.201,0.65 0,0"
             inkscape:connector-curvature="0" /></g><g
           transform="translate(108.2305,112.1699)"
           id="g236"><path
             id="path238"
             style="fill:#c29438;fill-opacity:1;fill-rule:nonzero;stroke:none"
             d="m 0,0 c 20.092,0 36.455,16.342 36.459,36.443 l 0.01,57.037 -72.951,0.002 0,-57.054 C -36.463,16.336 -20.102,0 0,0"
             inkscape:connector-curvature="0" /></g><g
           transform="translate(73.8242,203.5781)"
           id="g240"><path
             id="path242"
             style="fill:#ffffff;fill-opacity:1;fill-rule:nonzero;stroke:none"
             d="m 0,0 68.805,0 0,-54.965 C 68.797,-73.924 53.363,-89.344 34.406,-89.344 15.445,-89.344 0.012,-73.93 0,-54.98 L 0,0 Z"
             inkscape:connector-curvature="0" /></g><g
           transform="translate(66.8008,140.8535)"
           id="g244"><path
             id="path246"
             style="fill:#bdbcbc;fill-opacity:1;fill-rule:nonzero;stroke:none"
             d="M 0,0 C 0,0 -1.004,3.102 -1.215,3.754 -1.428,3.102 -2.432,0 -2.432,0 l -3.953,0 c 0.551,-0.41 3.199,-2.326 3.199,-2.326 0,0 -0.988,-3.039 -1.193,-3.692 0.547,0.401 3.145,2.295 3.145,2.295 0,0 2.627,-1.906 3.181,-2.3 -0.211,0.648 -1.207,3.732 -1.207,3.732 0,0 2.598,1.885 3.153,2.291 L 0,0 Z"
             inkscape:connector-curvature="0" /></g><g
           transform="translate(100.8691,123.3906)"
           id="g248"><path
             id="path250"
             style="fill:#263d96;fill-opacity:1;fill-rule:nonzero;stroke:none"
             d="M 0,0 C 0.012,-0.01 0.012,-0.016 0.012,-0.016 0.012,-0.016 -0.004,0.182 0,0"
             inkscape:connector-curvature="0" /></g><g
           transform="translate(83.8789,161.9258)"
           id="g252"><path
             id="path254"
             style="fill:#231f20;fill-opacity:1;fill-rule:nonzero;stroke:none"
             d="M 0,0 C 0.602,-0.291 1.316,-0.334 1.959,-0.109 2.58,0.107 3.076,0.539 3.348,1.107 3.545,1.518 3.604,1.908 3.604,2.262 3.604,2.326 3.6,2.383 3.592,2.445 4.146,2.596 5.379,2.516 6.67,2.078 L 6.729,2.063 8.059,1.666 C 8.777,1.449 9.922,1.127 11.275,0.842 11.627,0.748 11.627,0.748 11.988,0.133 l 0.496,-0.819 c 1.028,-1.65 2.762,-1.587 3.534,-1.322 0,0 0.255,0.084 0.425,0.145 1.192,-1.221 2.754,-1.108 3.518,-0.809 l 1.234,0.467 -0.978,0.883 c -0.85,0.758 -1.139,1.205 -1.24,1.427 0.81,0.049 1.562,0.145 2.263,0.291 0.908,-1.263 2.467,-2.814 5.08,-4.21 -0.965,-0.426 -3.09,-1.309 -4.92,-1.577 -0.796,-0.111 -3.386,-0.66 -5.025,-2.75 -1.746,0.121 -2.967,-0.355 -3.449,-1.396 -0.457,-1.02 -0.256,-2.01 0.172,-2.658 0.988,-1.51 -0.35,-3.502 -0.35,-3.502 0,0 1.381,-0.045 2.672,1.099 0.078,-0.287 0.166,-0.584 0.275,-0.888 0.834,-2.379 1.905,-3.711 2.692,-4.686 0.59,-0.723 0.892,-1.096 0.892,-1.523 0,-0.274 -0.133,-0.571 -0.381,-0.993 -0.095,-0.134 -1.585,-2.177 -4.544,-3.9 -0.897,-0.504 -1.75,-0.865 -2.467,-1.045 -1.393,-0.351 -1.858,0.096 -1.889,0.223 -0.209,1.262 -1.389,2.162 -2.691,2.031 -0.647,-0.066 -1.229,-0.396 -1.653,-0.879 -0.875,-0.146 -1.539,-0.638 -1.701,-1.371 -0.053,-0.17 -0.086,-0.359 -0.07,-0.555 0.07,-1.371 0.836,-2.097 0.836,-2.097 0,0 0.281,0.806 0.793,1.06 0.127,-0.183 0.271,-0.353 0.445,-0.49 -0.631,-0.406 -1.059,-1.057 -1.133,-1.791 -0.535,-0.43 -0.857,-0.971 -0.857,-1.51 0,-0.062 0.01,-0.123 0.013,-0.183 0.274,-1.752 1.694,-2.141 1.682,-2.164 0.016,0.039 0.145,1.314 0.486,1.505 0.438,-0.216 0.93,-0.316 1.43,-0.269 0.102,0.012 0.205,0.035 0.307,0.057 l 0,-0.034 c 0.019,-0.203 0.07,-0.4 0.144,-0.591 -0.086,-0.243 -0.144,-0.483 -0.144,-0.723 0,-0.223 0.011,-0.451 0.109,-0.65 0.899,-1.85 2.932,-1.452 2.932,-1.452 0,0 -0.598,0.766 -0.512,1.319 l 0,0.011 c 0.057,0 0.115,0 0.17,0.006 0.664,0.067 1.279,0.401 1.703,0.922 0.359,0.442 0.547,0.971 0.547,1.51 0,0.08 -0.008,0.16 -0.02,0.238 -0.046,0.518 -0.246,0.914 -0.464,1.237 0.519,0.55 2.228,1.345 3.982,1.451 0.469,0.031 0.988,-0.069 1.551,-0.176 1.283,-0.238 2.877,-0.539 4.549,0.609 0,0 0.834,0.578 1.322,0.916 0.392,0.168 0.76,0.461 1.074,0.969 0,0 0.129,0.217 0.244,0.4 0.772,0.17 1.617,0.61 2.258,1.756 0,0 0.17,0.303 0.338,0.602 0.631,0.289 1.26,0.842 1.709,1.922 0,0 0.027,0.058 0.027,0.062 0.209,-0.131 0.451,-0.25 0.707,-0.351 0.41,-0.178 0.748,-0.26 0.787,-0.266 -0.003,0.002 0.332,-0.094 0.639,-0.273 0.834,-0.584 1.059,-2.159 1.059,-2.159 0,0 1.013,1.084 1.047,2.493 0.007,0.261 -0.034,0.545 -0.112,0.82 0.582,-0.264 1.248,-0.51 1.973,-0.721 l 0.892,-0.26 c 2.137,-0.669 3.151,-1.14 3.151,-2 0,-0.054 0,-0.111 -0.012,-0.167 -0.285,-2.104 -2.41,-5.651 -4.205,-7.022 -0.685,-0.518 -1.055,-0.533 -1.189,-0.518 -0.498,0.067 -0.676,0.143 -0.739,0.174 -0.347,0.582 -0.89,1.442 -1.98,1.586 -0.543,0.076 -1.09,-0.031 -1.549,-0.299 -0.771,0.149 -1.449,0.08 -1.877,-0.375 -1.182,-1.283 -0.414,-3.373 -0.414,-3.373 0,0 0.701,0.752 1.195,0.871 0.207,-0.609 0.647,-1.111 1.233,-1.398 -0.19,-0.275 -0.322,-0.594 -0.369,-0.957 -0.012,-0.086 -0.012,-0.172 -0.016,-0.258 -0.551,-0.494 -0.713,-1.019 -0.713,-1.424 l 0,-0.058 c 0.09,-1.367 1.727,-2.375 1.727,-2.375 0,0 0.256,1.218 0.523,1.609 0.201,-0.121 0.414,-0.203 0.584,-0.226 0.471,-0.067 0.928,0.015 1.322,0.195 0.196,-0.549 0.602,-0.998 1.118,-1.299 0,-0.031 0.011,-0.055 0.011,-0.088 -0.023,-0.812 -0.748,-1.58 -0.748,-1.58 0,0 1.873,-0.609 3.192,0.533 0.24,0.215 0.408,0.645 0.408,1.221 0,0.045 0,0.096 -0.008,0.146 0.43,0.372 0.705,0.911 0.772,1.541 0.019,0.116 0.019,0.225 0.019,0.336 0,0.856 -0.412,1.477 -0.861,1.844 0,0.002 -0.004,0.002 -0.004,0.002 0,0.184 0.062,0.525 0.314,0.858 0.377,0.5 1.067,0.777 2,0.794 0.16,0.006 0.428,-0.043 0.711,-0.087 1.379,-0.217 3.932,-0.625 5.391,2.125 0,0 0.197,0.369 0.326,0.605 0.701,0.229 1.359,0.65 1.492,1.594 l 0.039,0.312 c 0.701,0.348 1.299,0.957 1.455,2.096 0,0 0.041,0.281 0.061,0.457 1.889,0.678 2.025,3.773 2.025,3.773 0,0 -1.562,-0.943 -2.664,-0.843 0.031,0.285 0.076,0.582 0.076,0.582 0.067,0.424 0.137,0.818 0.137,1.187 0,0.424 -0.09,0.815 -0.361,1.162 -0.5,0.657 -1.434,0.871 -2.688,0.993 -0.523,0.052 -1,0.142 -1.437,0.271 l -0.016,0.008 -0.019,0.025 c -0.276,0.063 -1.139,0.369 -1.385,0.869 -0.037,0.069 -0.067,0.162 -0.067,0.295 0,0.133 0.03,0.293 0.125,0.51 0.092,0.205 0.237,0.406 0.414,0.619 3.075,-1.082 4.624,0.516 5.163,1.293 0.158,0.235 0.39,0.574 0.39,0.92 0,0.18 -0.056,0.365 -0.224,0.535 0,0 -0.032,0.033 -0.043,0.045 0.781,0.492 1.281,1.184 1.459,2.053 l 0.306,1.498 -1.412,-0.602 c -0.287,-0.117 -0.998,-0.328 -1.656,-0.269 0.101,0.471 0.168,0.976 0.199,1.517 1.574,-0.009 3.815,0.276 5.49,1.727 1.28,1.113 1.967,2.701 1.967,4.588 0,1.308 -0.299,2.508 -0.873,3.66 0.318,0.559 0.535,1.221 0.535,1.912 0,0.817 -0.299,1.668 -1.082,2.42 -0.519,0.5 -1.019,0.762 -1.42,0.971 -0.681,0.361 -0.992,0.525 -1.15,1.814 L 50.297,6.523 49.09,4.818 C 48.787,4.381 48.449,3.639 48.438,2.83 c -2.194,1.762 -2.959,3.217 -2.959,5.645 0,0.83 0.314,1.66 0.892,2.461 1.094,-0.676 2.404,-0.969 3.715,-0.79 1.478,0.2 2.789,0.965 3.514,2.051 0.504,0.75 0.838,1.565 1.156,2.356 0.615,1.529 1.121,2.709 3.084,3.638 -1.026,0.887 -3.115,0.754 -4.305,-0.019 0.053,0.459 0.08,0.918 0.08,1.367 0,0.451 -0.027,0.893 -0.062,1.301 -0.006,0.051 -0.006,0.113 -0.006,0.166 0.033,1.992 2.664,4.16 2.664,4.16 0,0 -4.285,0.639 -6.074,-2.707 -0.153,0.709 -0.647,1.146 -0.647,1.146 0,0 0.08,-1.669 -3.072,-3.121 -1.451,-0.666 -2.561,-1.785 -3.018,-3.123 -0.166,-0.486 -0.248,-0.97 -0.248,-1.465 0,-0.615 0.229,-1.357 0.477,-1.968 -1.334,-1.547 -2.043,-3.137 -2.156,-4.91 -0.442,0.101 -0.784,0.203 -1.52,0.492 -0.76,0.289 -1.605,0.865 -1.605,1.98 0,0.123 0.027,0.26 0.05,0.399 1.688,-0.809 3.786,0.076 3.786,0.076 0,0 -2.141,1.197 -2.196,2.836 0,0.179 0.032,0.373 0.09,0.576 l 0.348,0.914 c 0.027,0.068 0.054,0.141 0.09,0.215 0.224,-0.754 0.142,-0.207 0.394,-1.998 0,0 2.026,1.73 2.072,4.769 0.012,0.403 -0.05,0.836 -0.136,1.286 1.215,-0.202 2.793,0.646 2.793,0.646 0,0 -2.274,1.195 -2.918,3.443 2.929,-0.302 4.472,2.461 4.472,2.461 0,0 -2.183,-0.152 -3.132,0.881 -0.209,0.231 -0.319,0.537 -0.37,0.897 1.77,0.545 3.549,-0.817 3.549,-0.817 0,0 -0.302,2.633 -3.156,4.854 1.402,1.836 1.395,3.66 1.395,3.66 0,0 -2.413,-1.197 -3.475,-1.272 0.527,0.981 0.85,1.969 0.814,2.94 -0.041,1.26 -0.492,2.248 -0.492,2.248 0,0 -0.834,-1.58 -2.773,-2.717 -1.371,-0.664 -1.582,-0.687 -2.932,-0.844 0,0 -0.5,-0.06 -0.996,-0.113 -0.395,0.186 -0.834,0.289 -1.291,0.283 -1.09,-0.023 -2.063,-0.668 -2.609,-1.656 -2.375,0.43 -4.026,0.459 -4.895,0.07 -3.266,0.284 -5.213,0.039 -5.779,-0.734 -0.225,-0.324 -0.319,-0.674 -0.319,-1.004 0,-0.387 0.12,-0.752 0.28,-1.018 0,0 0.035,-0.058 0.051,-0.08 -0.182,-0.351 -0.303,-0.744 -0.303,-1.195 0,-0.088 0.008,-0.172 0.008,-0.256 0.058,-0.773 0.439,-1.459 0.834,-1.976 -0.403,-0.075 -0.631,0.043 -0.768,0.144 -1.357,0.987 -1.35,3.77 -1.35,3.77 0,0 -2.459,-1.942 -2.07,-4.621 0.225,-1.557 1.19,-2.233 1.84,-2.545 0.529,-0.252 1.127,-0.354 1.785,-0.328 -0.076,-0.295 -0.127,-0.596 -0.127,-0.922 0,-0.541 0.119,-1.145 0.328,-1.78 -4.844,1.329 -6.363,-2.091 -6.777,-3.498 -0.424,0.262 -0.684,0.485 -0.772,0.579 l 0,4.279 c 0,0.127 -0.058,0.242 -0.156,0.32 l -2.25,1.613 c -0.037,0.026 -0.076,0.047 -0.115,0.061 l -1.59,0.478 -0.082,0.022 c 0.039,0.174 0.047,0.35 0.047,0.529 0,1.367 -1.121,2.471 -2.502,2.471 -0.791,0 -1.465,-0.272 -1.916,-0.762 -0.453,0.604 -1.186,0.951 -2.041,0.951 -0.926,0 -1.717,-0.439 -2.168,-1.156 -0.402,0.406 -0.99,0.641 -1.697,0.641 -1.241,0 -2.276,-1.016 -2.276,-2.264 0,-0.033 0.016,-0.072 0.016,-0.107 -0.016,-0.006 -0.152,-0.037 -0.357,-0.096 -0.551,-0.16 -1.711,-0.51 -3.114,-1.082 -0.082,-0.031 -0.136,-0.078 -0.179,-0.137 0.027,0.028 0.043,0.051 0.066,0.069 -0.098,-0.077 -2.289,-1.762 -2.393,-1.842 -0.101,-0.074 -0.156,-0.196 -0.156,-0.313 l 0,-15.904 C -9.172,7.613 -9,7.443 -8.783,7.443 L -2.186,7.434 C -2.295,7.334 -2.393,7.227 -2.48,7.113 -3.254,7.025 -3.865,6.67 -4.117,6.107 -4.246,5.861 -4.381,5.527 -4.369,5.059 -4.35,4.025 -3.816,3.205 -3.818,3.195 -3.303,4.098 -2.578,4.406 -2.605,4.4 -2.342,3.979 -1.973,3.623 -1.508,3.4 -1.402,3.348 -1.295,3.322 -1.189,3.283 -1.197,3.264 -1.213,3.25 -1.221,3.234 -1.314,3.051 -1.369,2.861 -1.41,2.656 -1.807,2.35 -2.078,1.943 -2.176,1.475 -2.209,1.346 -2.236,1.201 -2.229,1.041 c 0.104,-2.025 2.071,-2.443 2.071,-2.443 -0.137,0.81 -0.19,1.078 -0.008,1.507 C -0.113,0.068 -0.057,0.029 0,0"
             inkscape:connector-curvature="0" /></g><g
           transform="translate(108.1836,136.0156)"
           id="g256"><path
             id="path258"
             style="fill:#ed1c24;fill-opacity:1;fill-rule:nonzero;stroke:none"
             d="m 0,0 c 0.063,-0.172 0.697,-0.162 2.322,-0.043 -1.263,-2.266 -3.443,-1.057 -3.695,-1.52 0,0 -0.252,-0.486 1.211,-0.605 -0.975,-1.586 -2.664,-0.141 -3.725,-0.904 0,0 -0.177,-0.543 1.549,-0.739 -2.06,-1.429 -3.959,-0.193 -5.685,-0.296 -2.006,-0.125 -3.952,-1.032 -4.594,-1.774 -0.235,-0.264 -0.254,-0.598 -0.164,-0.724 0.279,-0.352 0.457,-0.657 0.5,-1.081 0.092,-0.892 -0.641,-1.697 -1.518,-1.781 -0.213,-0.019 -0.43,0 -0.642,0.053 -0.428,-0.438 -0.313,-1.162 -0.039,-1.414 -1.18,0.441 -1.358,1.328 -0.913,2.072 -0.127,0.186 -0.209,0.401 -0.232,0.641 -0.063,0.732 0.496,1.533 1.211,1.758 0.418,0.132 0.488,0.705 0.279,0.962 -0.381,0.45 -1.074,0.178 -1.125,-0.361 -0.078,-1.019 -0.648,-1.564 -1.551,-1.658 -0.513,-0.051 -0.998,0.115 -1.345,0.416 -0.594,-0.188 -1.006,-0.871 -0.881,-1.211 -0.381,0.408 -0.453,0.736 -0.481,1.025 -0.062,0.45 0.356,0.897 0.83,1.17 l 0,0.032 c -0.093,0.89 0.612,1.685 1.543,1.785 0.977,0.099 1.047,-0.366 1.323,-0.358 0.238,0.016 0.383,0.028 0.554,0.252 0.159,0.211 0.19,0.606 -0.086,0.834 -0.357,0.305 -0.685,0.078 -0.685,0.078 -0.219,-0.142 -0.272,-0.152 -0.539,-0.183 -0.897,-0.09 -1.68,0.519 -1.832,1.363 -0.403,-0.025 -1.047,-0.412 -1.1,-0.769 -0.121,0.435 -0.136,0.802 -0.07,1.082 0.131,0.539 0.76,0.793 1.369,0.808 0.268,0.444 0.736,0.76 1.293,0.819 0.887,0.089 1.684,-0.514 1.82,-1.37 0.09,-0.533 0.885,-1.363 2.875,-0.861 0.887,0.221 1.823,0.645 2.668,1.121 l 0,0.014 c 3.264,1.888 4.828,4.158 4.828,4.158 1.702,2.795 -1.324,2.742 -3.127,7.898 -0.589,1.702 -0.697,3.106 -0.492,4.256 -0.461,0.018 -0.904,-0.242 -0.685,-1.373 0.332,-1.744 -1.373,-2.361 -1.373,-2.361 1.09,2.035 -0.944,3.264 -0.237,4.822 0.477,1.059 2.086,1.031 3.075,0.903 1.187,1.794 3.316,2.572 4.777,2.785 2.6,0.383 5.678,1.892 5.678,1.892 0,0 2.006,-0.91 3.06,-1.355 0.908,-0.389 2.815,-0.979 3.633,-2.377 0.813,-1.397 -0.363,-3.006 -0.363,-3.006 0,0 -2.94,1.055 -3.987,-0.18 -1.043,-1.236 0.399,-2.201 0.399,-2.201 0,0 -1.182,-1.142 -3.121,0.42 0,0 -0.617,-0.617 0.662,-1.609 0,0 -1.135,-1.037 -2.979,0 0,0 -0.084,-0.159 -0.189,-0.424 C -0.373,9.088 0.082,7.896 0.697,6.98 2.109,5.176 3.848,4.375 1.703,2.35 2.129,2.111 2.566,2.373 4.332,2.391 3.107,-0.551 0.594,1.498 0,0"
             inkscape:connector-curvature="0" /></g><g
           transform="translate(113.3809,142.9961)"
           id="g260"><path
             id="path262"
             style="fill:#ffffff;fill-opacity:1;fill-rule:nonzero;stroke:none"
             d="m 0,0 c -0.555,-0.342 -1.125,-0.832 -1.424,-1.492 l -0.027,-0.072 c -0.004,-0.01 -0.055,-0.143 -0.055,-0.143 -0.088,-0.248 -0.127,-0.5 -0.127,-0.758 0,-0.457 0.147,-0.904 0.414,-1.324 -0.248,-0.008 -0.488,-0.024 -0.685,-0.035 0.142,0.322 0.216,0.623 0.216,0.902 0,0.996 -0.728,1.791 -1.365,2.483 0,0 -0.761,0.875 -0.791,0.914 -0.334,0.494 -0.674,1.156 -0.674,2.16 0,0.183 0.016,0.379 0.038,0.597 1.419,-0.429 2.509,0.059 2.994,0.498 0,0 0.55,0.5 0.652,0.59 0.445,-0.015 0.803,0.076 1.053,0.155 0.871,0.279 1.34,1.091 1.34,1.091 0,0 -1.079,0.411 -1.094,1.196 0,0.043 -0.027,0.183 0.181,0.435 C 1.102,7.727 2.66,7.5 3.645,7.164 3.309,6.695 2.885,6.158 2.318,5.576 1.109,4.32 -0.031,2.422 -0.031,0.5 -0.031,0.334 -0.012,0.17 0,0"
             inkscape:connector-curvature="0" /></g><g
           transform="translate(128.4551,175.7246)"
           id="g264"><path
             id="path266"
             style="fill:#ed1c24;fill-opacity:1;fill-rule:nonzero;stroke:none"
             d="M 0,0 C -1.289,2.379 -0.18,4.914 2.172,5.953 4.848,7.135 5.025,8.346 5.025,8.346 5.227,5.953 4.416,5.484 3.9,5.027 3.807,4.949 3.373,4.635 3.045,4.15 3.893,4.271 5.033,4.871 5.25,5.641 c 0.676,2.453 1.586,4.632 4.957,5.175 0,0 -2.223,-1.843 -2.033,-3.853 C 8.377,4.85 8.133,2.197 6.313,0.736 7.063,1.115 7.52,1.811 7.52,1.811 8.967,4.539 12.107,4.328 12.107,4.328 9.787,3.658 9.711,0.867 8.354,-1.162 7.119,-3.016 3.816,-3.643 1.637,-1.77 0.764,-2.74 0.1,-3.93 0.1,-5.324 c 0,-2.838 0.986,-4.512 3.472,-6.449 0.848,-0.661 1.729,-1.344 2.539,-2.112 0.114,0.205 0.19,0.678 -0.759,1.483 -1.42,1.197 -0.174,2.957 -0.174,2.957 0.301,-2.549 1.468,-1.994 2.799,-3.27 1.617,-1.545 0.48,-3.31 0.193,-3.699 0.601,-1.063 0.982,-2.281 0.982,-3.713 0,-1.648 -0.586,-3.027 -1.683,-3.978 -1.834,-1.586 -4.557,-1.59 -5.748,-1.504 0.015,-1.19 -0.145,-2.145 -0.399,-2.914 1.264,-0.637 2.953,0.095 2.953,0.095 -0.386,-1.914 -2.752,-2.222 -3.921,-2.26 -0.129,-0.009 -0.227,-0.021 -0.323,-0.041 0.469,-0.324 1.393,-0.712 3.039,-0.511 0,0 -1.166,-2.895 -4.97,-1.242 -0.381,-0.372 -0.709,-0.76 -0.932,-1.245 -0.949,-2.132 1.877,-2.785 1.877,-2.785 l -0.008,-0.017 c 0.486,-0.139 1.018,-0.239 1.59,-0.299 3.193,-0.318 2.242,-1.16 2.014,-3.787 0.033,-0.293 1.232,-0.239 2.586,0.279 -0.368,-2.771 -3.268,-1.402 -3.498,-3.088 0,0 0.648,-0.416 1.593,0.194 -0.347,-2.573 -3.773,-1.42 -3.894,-2.305 0.152,-0.137 0.89,-0.432 2.398,-0.104 -0.228,-1.679 -3.514,-0.634 -3.711,-2.16 0,0 0.938,-0.318 1.973,0.227 -1.484,-2.815 -4.305,-1.582 -5.401,-1.604 -3.238,-0.078 -3.316,-2.748 -2.945,-2.969 0.397,-0.23 0.789,-0.783 0.699,-1.584 -0.078,-0.632 -0.396,-1.048 -0.841,-1.259 0.472,-1.825 -1.493,-1.68 -1.493,-1.68 0.465,0.639 0.309,1.402 0.186,1.623 -0.736,0.242 -1.227,0.971 -1.113,1.756 0.05,0.406 0.263,0.869 0.81,1.184 0.225,0.23 0.201,0.591 -0.097,0.808 -0.288,0.121 -0.551,0.067 -0.67,-0.182 -0.164,-0.193 -0.028,-0.568 -0.071,-0.826 -0.162,-0.883 -0.974,-1.506 -1.869,-1.388 -0.275,0.035 -0.531,0.142 -0.74,0.289 -0.361,-0.159 -0.74,-0.547 -0.723,-1.241 0,0 -1.562,1.26 0.059,2.27 -0.031,0.162 -0.035,0.336 -0.012,0.516 0.117,0.884 0.924,1.437 2.176,1.341 0.598,-0.048 0.697,0.508 0.543,0.756 -0.315,0.489 -0.815,0.051 -0.815,0.051 -0.351,-0.394 -0.912,-0.607 -1.472,-0.535 -0.865,0.123 -1.487,0.9 -1.42,1.756 -0.381,0.123 -0.897,0.051 -1.354,-0.426 0,0 -0.287,2.189 1.932,1.529 0.346,0.287 0.807,0.434 1.279,0.371 0.717,-0.097 1.094,-0.697 1.442,-1.283 0.125,-0.193 0.439,-0.367 1.281,-0.484 2.195,-0.295 5.887,5.215 6.299,8.23 0.232,1.723 -1.58,2.377 -3.713,3.049 -0.283,0.076 -0.58,0.162 -0.891,0.258 -0.746,0.221 -1.396,0.459 -1.97,0.721 -0.823,0.355 -1.582,0.781 -2.184,1.351 -0.41,-0.232 -0.83,-0.668 0.205,-1.213 1.529,-0.81 0.947,-2.406 0.906,-2.523 l 0,-0.014 c 0,0 -0.037,0.651 -0.691,1.135 -0.44,0.275 -0.916,0.394 -0.916,0.394 0,0 -0.295,0.065 -0.676,0.233 -0.236,0.094 -0.449,0.197 -0.646,0.318 -0.207,0.127 -0.381,0.276 -0.532,0.428 -0.48,0.496 -0.683,1.115 -0.461,1.728 0.012,0.034 0.018,0.065 0.03,0.09 0.008,0.018 0.019,0.037 0.027,0.055 0.291,0.658 1.025,1.123 1.568,1.383 -0.535,2.107 0.899,4.295 2.016,5.449 1.928,2.006 2.481,3.57 2.481,3.57 0.384,1.272 1.234,3.43 -5.715,6.102 -4.301,1.658 -6.473,3.799 -7.563,5.525 -0.826,-0.209 -1.691,-0.328 -2.586,-0.382 0.162,0.476 0.399,0.941 0.725,1.205 0.355,0.287 0.799,0.425 1.392,0.388 1.864,-0.131 3.645,0.754 4.922,2.231 0.041,-0.442 0.162,-0.887 0.391,-1.303 0.377,-0.666 1.307,-1.816 3.412,-2.072 l 1.436,-0.18 -0.61,1.314 c -0.115,0.243 -0.404,1.012 -0.404,1.629 0,0.457 0.152,0.561 0.203,0.594 0.672,0.436 1.35,0.945 1.881,1.594 1.687,-2.963 5.26,-2.326 5.26,-2.326 0,0 -1.715,0.961 -1.828,2.802 -0.016,0.147 0.023,0.317 0.07,0.487 0.027,0.041 0.062,0.082 0.062,0.082 0.143,0.201 0.35,0.504 0.536,0.883 0.228,-0.202 0.472,-0.383 0.787,-0.522 0.121,-0.053 0.232,-0.096 0.357,-0.133 0.119,-0.814 0.32,-1.754 0.658,-2.777 1.987,-6.018 3.168,-5.662 5.407,-8.027 1.761,-1.623 2.427,-3.828 2.625,-4.852 0.203,-1.09 1.152,-1.174 1.384,-1.184 0.928,0.069 1.998,0.293 2.684,0.887 0.535,0.469 0.799,1.139 0.799,2.049 0,2.768 -2.051,4.496 -4.514,6.414 -2.639,2.051 -4.406,4.299 -4.406,8.389 0,2.244 1.015,3.931 2.324,5.324"
             inkscape:connector-curvature="0" /></g><g
           transform="translate(130.0371,161.375)"
           id="g268"><path
             id="path270"
             style="fill:#ffffff;fill-opacity:1;fill-rule:nonzero;stroke:none"
             d="m 0,0 c 2.396,-1.859 4.211,-3.4 4.211,-5.777 0,-0.881 -0.303,-1.244 -0.523,-1.438 -0.422,-0.371 -1.192,-0.613 -2.165,-0.687 -0.488,0.025 -0.566,0.398 -0.593,0.527 -0.139,0.758 -0.776,3.371 -2.869,5.293 -0.551,0.58 -1.047,1.012 -1.483,1.391 -1.312,1.129 -2.264,1.947 -3.695,6.291 -0.287,0.859 -0.477,1.664 -0.592,2.375 1.406,-0.067 2.516,0.796 3.004,1.252 l 0,-0.202 C -4.705,4.275 -2.35,1.832 0,0"
             inkscape:connector-curvature="0" /></g><g
           transform="translate(107.9199,182.7891)"
           id="g272"><path
             id="path274"
             style="fill:#ed1c24;fill-opacity:1;fill-rule:nonzero;stroke:none"
             d="M 0,0 C 2.836,-1.404 2.928,1.727 2.928,1.727 6.807,0.229 8.664,2.857 8.869,3.18 8.066,2.488 7.039,2.064 5.914,2.041 l -0.082,0 L 5.803,2.039 C 5.732,2.039 5.654,2.053 5.584,2.053 5.51,2.059 5.438,2.059 5.375,2.066 5.252,2.08 5.127,2.1 5.004,2.119 4.977,2.125 4.949,2.125 4.926,2.131 3.691,2.355 2.273,2.979 0.701,3.348 -1.26,3.811 -1.602,1.291 -1.602,1.291 -3.475,5.154 -1.109,5.99 -1.109,5.99 -1.043,5.855 -0.965,5.738 -0.877,5.631 -0.709,5.422 -0.512,5.256 -0.295,5.121 0.039,4.912 0.453,4.771 0.893,4.688 0.977,4.67 1.066,4.658 1.156,4.645 1.203,4.641 1.244,4.633 1.295,4.629 1.393,4.621 1.49,4.611 1.586,4.611 3.088,4.549 4.709,5.176 5.041,6.672 4.461,7.039 2.672,7.869 -0.154,6.473 -3.223,4.959 -5.309,5.461 -5.844,7.869 c -0.342,1.576 0.854,3.07 0.854,3.07 0,0 0.287,-3.855 2.76,-3.32 2.396,0.516 4.882,2.02 7.334,-0.457 0.089,2.479 -2.381,2.959 -4.352,2.488 -2.16,-0.515 -1.779,-1.593 -1.779,-1.593 0,0 -0.016,0.009 -0.036,0.027 -0.216,0.186 -1.324,1.186 -1.412,2.354 -0.082,1.181 0.618,1.701 1.282,1.933 -0.522,0.065 -1.141,-0.055 -1.141,-0.055 0,0 -0.373,0.618 0.008,1.141 0.586,0.82 5.289,0.391 5.289,0.391 0.865,0.642 4.199,0.043 5.201,-0.159 0.297,1.004 1.137,1.735 2.145,1.752 1.283,0.024 2.349,-1.107 2.369,-2.523 0.031,-1.391 -0.946,-2.539 -2.199,-2.602 0.884,-0.441 3.013,0.588 3.072,2.504 0.054,1.653 -0.901,2.459 -0.901,2.459 1.405,0.162 1.707,0.196 3.204,0.912 1.097,0.526 2.085,1.739 2.085,1.739 0.215,-1.739 -0.634,-3.262 -1.472,-4.313 0.646,-0.199 1.873,-0.115 4.142,1 0,0 -0.298,-1.404 -1.867,-2.709 2.356,-1.213 3.301,-3.326 3.301,-3.326 -1.33,0.781 -3.238,0.035 -3.238,0.035 C 18.611,5.58 21.842,5.693 21.842,5.693 20.51,4.293 18.961,4.355 17.643,4.859 17.895,1.947 19.963,0.6 19.963,0.6 19.324,0.486 18.67,0.332 17.875,0.855 17.758,0.734 17.785,0.473 17.863,0.229 c 0.862,-2.805 -0.562,-4.901 -0.562,-4.901 0,1.813 -1.283,2.875 -1.283,2.875 0.173,-1.762 -0.305,-2.051 -0.747,-3.451 -0.615,-1.957 1.145,-3.176 1.145,-3.176 -2.275,-0.469 -2.873,1.526 -2.873,1.526 0.084,-0.452 0.17,-1.147 0.037,-1.772 -0.318,-1.521 0.361,-2.803 2.063,-3.443 l -0.01,-0.004 c 0.412,-0.104 0.713,-0.104 0.713,-0.104 -3.358,-1.513 -4.262,1.492 -4.262,1.492 0,-1.445 -0.941,-2.351 -1.012,-2.58 -0.545,-1.771 0.924,-2.959 0.924,-2.959 -1.16,0.137 -2.707,1.252 -3.185,2.557 -0.28,0.764 -0.288,2.119 -0.288,2.119 0.079,-1.82 -0.98,-2.898 -2.513,-3.89 -1.233,-0.801 -0.084,-3.237 -0.084,-3.237 -2.838,0.352 -3.494,2.614 -2.998,3.686 0.476,1.07 0.043,2.73 0.043,2.73 -0.5,-2.943 -2.983,-5.463 -5.817,-5.265 -2.836,0.203 -2.978,-2.786 -2.978,-2.786 -1.33,3.366 1.103,5.536 2.558,6.215 1.459,0.686 1.362,2.907 1.362,2.907 -0.633,-1.075 -2.334,-1.809 -4.367,-1.747 -2.02,0.063 -3.397,-1.988 -3.397,-1.988 -0.402,2.471 2.273,5.455 4.639,6.104 0.283,0.078 0.535,0.197 0.791,0.328 -1.119,0.349 -2.813,0.264 -5.067,-1.672 0,0 0.192,3.713 3.918,5.158 -0.33,0.065 -0.658,0.149 -0.976,0.256 -1.498,0.488 -3.033,-0.412 -3.033,-0.412 0,0 0.392,1.207 1.318,2.125 l 0.004,-0.004 0.015,0.021 c 0.366,0.356 0.799,0.667 1.338,0.838 0.657,0.215 2.121,0.043 2.266,0.096 -0.332,0.531 -0.385,0.734 -0.621,0.996 -1.11,1.246 -3.592,0.34 -3.592,0.34 C -6.422,3.395 -2.83,1.41 0,0"
             inkscape:connector-curvature="0" /></g><g
           transform="translate(107.1406,184.0762)"
           id="g276"><path
             id="path278"
             style="fill:#ffffff;fill-opacity:1;fill-rule:nonzero;stroke:none"
             d="M 0,0 C 0.059,0.303 0.248,0.941 0.629,1.201 0.736,1.275 0.926,1.365 1.287,1.275 1.846,1.15 2.385,0.975 2.916,0.811 2.912,0.66 2.908,0.465 2.908,0.465 2.889,0.156 2.754,-0.557 2.393,-0.768 2.063,-0.967 1.467,-0.723 1.148,-0.564 L 0.846,-0.42 C 0.57,-0.279 0.289,-0.143 0,0"
             inkscape:connector-curvature="0" /></g><g
           transform="translate(108.1367,188.5469)"
           id="g280"><path
             id="path282"
             style="fill:#ffffff;fill-opacity:1;fill-rule:nonzero;stroke:none"
             d="M 0,0 C 1.77,0.871 3.018,0.77 3.766,0.518 3.289,-0.115 2.309,-0.379 1.4,-0.344 L 1.16,-0.326 1.047,-0.314 C 1.043,-0.311 0.814,-0.281 0.814,-0.281 0.508,-0.223 0.236,-0.123 0,0"
             inkscape:connector-curvature="0" /></g><g
           transform="translate(101.6113,181.4512)"
           id="g284"><path
             id="path286"
             style="fill:#263d96;fill-opacity:1;fill-rule:nonzero;stroke:none"
             d="m 0,0 c -0.242,-0.02 -0.475,-0.047 -0.664,-0.121 -0.422,-0.152 -0.801,-0.361 -1.129,-0.604 -0.369,0.127 -0.693,0.266 -0.969,0.409 C -2.1,-0.045 -1.002,0.279 0,0"
             inkscape:connector-curvature="0" /></g><g
           transform="translate(97.5703,180.7598)"
           id="g288"><path
             id="path290"
             style="fill:#ed1c24;fill-opacity:1;fill-rule:nonzero;stroke:none"
             d="M 0,0 C 0.352,-0.242 0.84,-0.518 1.465,-0.77 0.545,-1.836 0.154,-3.158 -0.004,-3.912 L 0,0 Z"
             inkscape:connector-curvature="0" /></g><g
           transform="translate(97.5664,176.3164)"
           id="g292"><path
             id="path294"
             style="fill:#ed1c24;fill-opacity:1;fill-rule:nonzero;stroke:none"
             d="M 0,0 C 0.355,0.209 1.646,0.922 2.66,0.998 1.26,-0.299 0.674,-1.891 0.441,-3.158 0.313,-3.057 0.24,-2.988 0.178,-2.922 L 0,-2.779 0,0 Z"
             inkscape:connector-curvature="0" /></g><g
           transform="translate(97.5664,172.2949)"
           id="g296"><path
             id="path298"
             style="fill:#ffffff;fill-opacity:1;fill-rule:nonzero;stroke:none"
             d="m 0,0 c 0.092,-0.064 0.189,-0.131 0.313,-0.211 l 0.015,-1.107 c 0,0 0.164,0.166 0.504,0.353 C 0.453,-1.564 0.164,-2.197 0,-2.842 L 0,0 Z"
             inkscape:connector-curvature="0" /></g><g
           transform="translate(97.5391,169.3438)"
           id="g300"><path
             id="path302"
             style="fill:#ffffff;fill-opacity:1;fill-rule:nonzero;stroke:none"
             d="m 0,0 c -0.031,-0.141 -0.061,-0.275 -0.078,-0.41 -1.983,-0.375 -3.824,-0.494 -5.5,-0.348 -0.547,0.049 -1.527,0.133 -2.221,0.358 -0.435,0.134 -0.765,0.273 -1.014,0.406 L 0,0 Z"
             inkscape:connector-curvature="0" /></g><g
           transform="translate(95.0977,171.2051)"
           id="g304"><path
             id="path306"
             style="fill:#fff200;fill-opacity:1;fill-rule:nonzero;stroke:none"
             d="m 0,0 c 0.105,0.072 0.172,0.195 0.172,0.326 l 0,15.625 c 0.539,-0.383 1.338,-0.955 1.512,-1.09 l 0,-15.939 -0.1,0 -8.549,0 c 0.07,0.215 0.094,0.428 0.094,0.646 0,0.385 -0.094,0.758 -0.26,1.108 1.338,0.42 3.647,0.678 6.764,-0.711 C -0.254,-0.086 -0.104,-0.066 0,0"
             inkscape:connector-curvature="0" /></g><g
           transform="translate(93.125,188.0254)"
           id="g308"><path
             id="path310"
             style="fill:#fff200;fill-opacity:1;fill-rule:nonzero;stroke:none"
             d="M 0,0 C 0.078,-0.023 0.189,-0.061 0.334,-0.1 0.658,-0.199 1.113,-0.338 1.365,-0.416 L 1.361,-15.912 c -3.097,1.224 -5.615,1.01 -7.027,0.453 -0.189,0.182 -0.398,0.336 -0.65,0.457 -0.063,0.033 -0.129,0.064 -0.2,0.088 l 0,11.961 c 0.245,0 0.444,0.182 0.489,0.287 0.55,1.131 0.826,1.236 0.834,1.24 0.015,0.008 0.035,0.01 0.05,0.018 0.393,0.187 0.819,0.412 1.118,0.83 0.205,-0.156 0.441,-0.258 0.662,-0.358 0,0 0.078,-0.029 0.101,-0.05 0.063,-0.055 0.241,-0.282 0.684,-1.207 0.049,-0.118 0.119,-0.256 0.308,-0.289 0.127,-0.018 0.25,0.017 0.338,0.111 0.043,0.047 0.059,0.08 0.121,0.211 0.411,0.857 0.584,1.088 0.651,1.144 C -0.662,-0.85 -0.26,-0.48 0,0"
             inkscape:connector-curvature="0" /></g><g
           transform="translate(83.0996,190.6738)"
           id="g312"><path
             id="path314"
             style="fill:#ed1c24;fill-opacity:1;fill-rule:nonzero;stroke:none"
             d="m 0,0 c 0.697,0 1.211,-0.293 1.412,-0.801 0.063,-0.154 0.213,-0.252 0.371,-0.244 0.164,0.022 0.309,0.125 0.342,0.281 0.225,0.793 0.893,1.28 1.74,1.28 0.797,0 1.403,-0.375 1.668,-1.045 0.049,-0.141 0.188,-0.235 0.342,-0.242 0.158,0 0.283,0.093 0.35,0.228 0.252,0.557 0.83,0.873 1.597,0.873 0.967,0 1.744,-0.768 1.744,-1.713 0,-0.086 -0.005,-0.162 -0.013,-0.244 0,-0.029 -0.008,-0.062 -0.016,-0.088 0,-0.045 -0.012,-0.084 -0.021,-0.127 C 9.498,-1.924 9.471,-2.002 9.439,-2.082 9.424,-2.135 9.396,-2.191 9.373,-2.242 9.363,-2.264 9.355,-2.279 9.344,-2.297 9.313,-2.355 9.281,-2.412 9.246,-2.461 9.223,-2.488 9.203,-2.518 9.184,-2.545 9.164,-2.568 9.145,-2.59 9.121,-2.615 9.092,-2.648 9.057,-2.684 9.021,-2.709 9.01,-2.725 8.998,-2.736 8.979,-2.748 8.936,-2.787 8.877,-2.82 8.826,-2.855 8.809,-2.865 8.793,-2.869 8.781,-2.881 8.715,-2.908 8.66,-2.939 8.594,-2.955 8.389,-3.025 8.191,-3.215 7.818,-3.9 7.475,-3.234 7.283,-3.031 7.105,-2.951 l -0.136,0.06 C 6.582,-2.725 6.396,-2.637 6.264,-2.383 6.193,-2.25 6.059,-2.168 5.898,-2.184 5.75,-2.191 5.623,-2.289 5.57,-2.436 5.414,-2.904 5.092,-3.121 4.568,-3.361 4.289,-3.469 4.01,-3.77 3.68,-4.316 3.344,-3.518 3.158,-3.422 3.061,-3.371 2.525,-3.1 2.264,-2.811 2.125,-2.311 2.092,-2.152 1.947,-2.041 1.783,-2.035 1.625,-2.02 1.475,-2.123 1.412,-2.27 1.303,-2.543 1.113,-2.646 0.711,-2.826 L 0.65,-2.861 c -0.13,-0.063 -0.289,-0.178 -0.701,-0.86 -0.24,0.6 -0.402,0.776 -0.572,0.856 -0.063,0.029 -0.117,0.062 -0.18,0.101 -0.019,0.014 -0.039,0.024 -0.054,0.035 -0.038,0.028 -0.069,0.055 -0.114,0.081 l -0.056,0.058 c -0.028,0.026 -0.063,0.051 -0.09,0.084 -0.016,0.022 -0.035,0.041 -0.053,0.065 -0.023,0.029 -0.043,0.058 -0.066,0.089 -0.02,0.024 -0.035,0.051 -0.051,0.077 -0.024,0.029 -0.035,0.064 -0.059,0.095 -0.008,0.028 -0.019,0.049 -0.039,0.076 -0.011,0.04 -0.021,0.075 -0.037,0.116 -0.008,0.023 -0.019,0.049 -0.027,0.074 -0.018,0.062 -0.031,0.123 -0.043,0.187 -0.012,0.071 -0.016,0.149 -0.016,0.225 C -1.508,-0.67 -0.83,0 0,0"
             inkscape:connector-curvature="0" /></g><g
           transform="translate(80.4824,188.1484)"
           id="g316"><path
             id="path318"
             style="fill:#fff200;fill-opacity:1;fill-rule:nonzero;stroke:none"
             d="M 0,0 C 0.279,0.084 0.473,0.137 0.535,0.154 0.736,-0.34 1.129,-0.754 1.629,-1.004 1.76,-1.16 2.023,-1.861 2.141,-2.211 2.141,-2.232 2.156,-2.254 2.164,-2.27 2.168,-2.287 2.168,-2.307 2.184,-2.316 2.191,-2.334 2.207,-2.344 2.227,-2.363 2.246,-2.389 2.283,-2.414 2.326,-2.434 2.33,-2.443 2.35,-2.457 2.361,-2.457 2.377,-2.465 2.404,-2.469 2.42,-2.475 2.434,-2.479 2.451,-2.482 2.451,-2.482 l 0.028,0 0.027,0 c 0,0 0.023,0 0.043,0.003 0.014,0 0.037,0.004 0.064,0.014 0.02,0.008 0.028,0.008 0.043,0.022 0.02,0.009 0.043,0.017 0.061,0.035 0.01,0.006 0.025,0.019 0.037,0.029 0.014,0.012 0.029,0.035 0.043,0.057 0.008,0.006 0.023,0.015 0.027,0.027 0,0.008 0,0.008 0.014,0.012 0.264,0.512 0.641,1.144 0.773,1.271 0.02,0.012 0.041,0.02 0.041,0.02 0.223,0.105 0.444,0.211 0.637,0.369 0.221,-0.361 0.547,-0.641 1.008,-0.875 0.016,-0.023 0.086,-0.1 0.185,-0.311 l 0,-13.082 c -0.349,0.034 -0.709,-0.005 -1.044,-0.117 -0.838,0.358 -1.67,0.272 -2.211,-0.26 -0.036,-0.029 -0.067,-0.064 -0.098,-0.099 -1.303,0.029 -2.932,-0.108 -4.809,-0.584 l 0,15.012 -0.027,0 C -1.555,-0.48 -0.574,-0.168 0,0"
             inkscape:connector-curvature="0" /></g><g
           transform="translate(75.4922,170.1523)"
           id="g320"><path
             id="path322"
             style="fill:#fff200;fill-opacity:1;fill-rule:nonzero;stroke:none"
             d="m 0,0 0,15.314 c 0.158,0.131 0.461,0.366 1.047,0.821 L 1.527,16.486 1.521,1.512 C 1.521,1.385 1.586,1.266 1.686,1.193 1.791,1.115 1.918,1.104 2.039,1.145 3.699,1.701 5.529,1.84 6.682,1.865 6.395,1.104 6.445,0.305 6.445,0.305 c 0,0 0.848,0.322 1.284,0.244 C 7.732,0.355 7.768,0.17 7.824,-0.01 l -1.402,0 C 6.395,0 6.379,0 6.348,0 L 0,0 Z"
             inkscape:connector-curvature="0" /></g><g
           transform="translate(82.9102,161.8359)"
           id="g324"><path
             id="path326"
             style="fill:#ed1c24;fill-opacity:1;fill-rule:nonzero;stroke:none"
             d="M 0,0 C -0.781,1.018 -0.465,1.879 0.32,2.285 0.314,2.516 0.35,2.744 0.465,2.965 0.803,3.631 1.719,4.031 2.459,3.846 2.893,3.732 3.256,4.189 3.211,4.533 3.121,5.123 2.373,5.264 2.051,4.822 1.428,3.973 0.637,3.811 -0.189,4.215 -0.66,4.441 -0.994,4.846 -1.133,5.295 -1.75,5.451 -2.482,5.08 -2.557,4.717 c -0.107,0.553 0,0.883 0.137,1.15 0.19,0.422 0.791,0.588 1.35,0.567 0.004,0.017 0.009,0.017 0.019,0.029 C -0.66,7.285 0.381,7.594 1.248,7.186 2.145,6.742 1.959,6.301 2.203,6.162 2.42,6.043 2.553,5.982 2.813,6.088 3.068,6.184 3.313,6.504 3.191,6.857 3.049,7.311 2.633,7.295 2.633,7.295 2.369,7.277 2.314,7.299 2.07,7.418 2.014,7.447 1.959,7.484 1.906,7.518 1.846,7.561 1.775,7.605 1.723,7.658 1.664,7.703 1.617,7.756 1.563,7.805 1.496,7.879 1.439,7.955 1.381,8.035 1.381,8.039 1.377,8.041 1.369,8.043 1.322,8.123 1.275,8.215 1.236,8.307 1.066,8.701 1.047,9.158 1.209,9.582 0.852,9.777 0.078,9.785 -0.154,9.508 c 0.076,0.263 0.174,0.484 0.287,0.662 0.072,0.119 0.152,0.226 0.236,0.312 0.399,0.399 1.078,0.282 1.617,-0.037 0.104,0.055 0.219,0.1 0.336,0.137 0.237,0.059 0.479,0.078 0.733,0.041 0.164,-0.033 0.33,-0.078 0.494,-0.158 0.055,-0.024 0.103,-0.051 0.15,-0.08 C 3.727,10.365 3.75,10.342 3.777,10.324 3.998,10.17 4.176,9.975 4.305,9.752 4.541,9.322 4.588,8.787 4.387,8.307 l 0,-0.016 C 4.379,8.256 4.359,8.223 4.355,8.191 4.352,8.18 4.352,8.17 4.352,8.16 4.348,8.133 4.344,8.102 4.344,8.074 l 0,-0.017 C 4.344,8 4.348,7.949 4.359,7.891 4.367,7.879 4.367,7.863 4.379,7.848 4.383,7.834 4.383,7.818 4.387,7.803 4.398,7.764 4.422,7.719 4.443,7.678 4.443,7.666 4.451,7.662 4.455,7.652 4.479,7.605 4.506,7.563 4.541,7.514 4.82,7.125 5.439,6.697 6.586,6.34 7.369,6.088 8.404,5.998 8.979,5.951 c 1.814,-0.156 3.699,-0.012 5.529,0.32 0.051,-1.158 0.601,-2.007 0.601,-2.007 0,0 1.493,2.947 3.606,2.904 0.99,-0.023 1.916,0.117 2.723,0.398 C 21.422,7.559 21.414,7.549 21.406,7.541 20.047,6.906 18.088,5.154 17.99,2.502 c -0.092,-2.361 1.162,-3.008 1.535,-3.147 0.239,-0.33 0.598,-0.72 1.121,-1.189 0,0 -1.99,-0.768 -3.148,1.289 -0.742,1.289 -1.707,1.301 -1.707,1.301 0,0 -0.244,-1.133 0.936,-1.914 0,0 -1.625,-0.565 -2.596,0.984 -0.934,1.51 -0.82,1.672 -1.721,1.887 C 11.146,1.988 10.053,2.287 9.256,2.523 8.516,2.746 8.035,2.895 7.924,2.92 7.906,2.928 7.9,2.93 7.9,2.93 6.445,3.428 5.006,3.521 4.273,3.293 3.932,3.191 3.73,2.916 3.75,2.746 3.789,2.299 3.777,1.938 3.59,1.551 3.195,0.725 2.133,0.418 1.322,0.814 1.123,0.908 0.939,1.043 0.791,1.197 0.189,1.055 -0.098,0.363 0,0"
             inkscape:connector-curvature="0" /></g><g
           transform="translate(106.1523,152.623)"
           id="g328"><path
             id="path330"
             style="fill:#231f20;fill-opacity:1;fill-rule:nonzero;stroke:none"
             d="M 0,0 C -0.098,-3.836 -4.355,-3.596 -4.355,-3.596 0,-4.355 0.566,-0.711 0.566,-0.711 3.789,-0.385 6.576,1.131 6.576,1.131 4.301,0.043 0,0 0,0"
             inkscape:connector-curvature="0" /></g><g
           transform="translate(62.0762,171.7031)"
           id="g332"><path
             id="path334"
             style="fill:#bdbcbc;fill-opacity:1;fill-rule:nonzero;stroke:none"
             d="m 0,0 c 0.547,0.406 3.146,2.289 3.146,2.289 0,0 2.627,-1.893 3.172,-2.291 C 6.109,0.639 5.107,3.73 5.107,3.73 c 0,0 2.6,1.891 3.155,2.284 l -3.887,0 c 0,0 -1.008,3.103 -1.217,3.757 C 2.951,9.117 1.939,6.014 1.939,6.014 l -3.949,0 C -1.457,5.611 1.189,3.701 1.189,3.701 1.189,3.701 0.207,0.643 0,0"
             inkscape:connector-curvature="0" /></g><g
           transform="translate(122.3848,153.1289)"
           id="g336"><path
             id="path338"
             style="fill:#231f20;fill-opacity:1;fill-rule:nonzero;stroke:none"
             d="m 0,0 c 0,0 4.992,-4.082 -2.676,-9.844 0,0 4.78,2.272 5.063,6.033 C 2.588,-1.063 0,0 0,0"
             inkscape:connector-curvature="0" /></g><g
           transform="translate(90.5039,182.7891)"
           id="g340"><path
             id="path342"
             style="fill:#231f20;fill-opacity:1;fill-rule:nonzero;stroke:none"
             d="m 0,0 c -1.633,0 -2.967,-1.451 -2.967,-3.248 0,-0.459 0.108,-0.928 0.338,-1.416 l -0.168,0 c -0.236,0 -0.441,-0.195 -0.441,-0.428 0,-0.244 0.205,-0.437 0.441,-0.437 l 0.889,0 c 0.162,0 0.299,0.076 0.383,0.215 0.074,0.146 0.066,0.312 -0.018,0.453 -0.381,0.591 -0.555,1.107 -0.555,1.613 0,1.312 0.942,2.387 2.098,2.387 1.158,0 2.094,-1.075 2.094,-2.387 0,-0.518 -0.186,-1.051 -0.574,-1.641 C 1.43,-5.021 1.422,-5.188 1.496,-5.336 1.574,-5.475 1.729,-5.563 1.885,-5.563 l 0.949,0 c 0.24,0 0.436,0.198 0.436,0.436 0,0.242 -0.196,0.436 -0.436,0.436 l -0.221,0 c 0.229,0.515 0.354,0.992 0.354,1.443 C 2.967,-1.451 1.641,0 0,0"
             inkscape:connector-curvature="0" /></g><g
           transform="translate(113.2676,187.7695)"
           id="g344"><path
             id="path346"
             style="fill:#231f20;fill-opacity:1;fill-rule:nonzero;stroke:none"
             d="M 0,0 C 0,0 1.979,1.371 0.299,3.961 0.299,3.961 0.756,1.555 0,0"
             inkscape:connector-curvature="0" /></g><g
           transform="translate(111.6738,194.4902)"
           id="g348"><path
             id="path350"
             style="fill:#231f20;fill-opacity:1;fill-rule:nonzero;stroke:none"
             d="m 0,0 c 1.365,0.016 2.928,-0.145 2.928,-0.145 0,0 -1.496,1.383 -2.307,1.37 C -0.182,1.215 0,0 0,0"
             inkscape:connector-curvature="0" /></g><g
           transform="translate(148.1328,171.7031)"
           id="g352"><path
             id="path354"
             style="fill:#bdbcbc;fill-opacity:1;fill-rule:nonzero;stroke:none"
             d="m 0,0 c 0.547,0.406 3.141,2.289 3.141,2.289 0,0 2.632,-1.891 3.179,-2.291 C 6.111,0.639 5.115,3.73 5.115,3.73 c 0,0 2.598,1.891 3.145,2.284 l -3.891,0 c 0,0 -1,3.103 -1.217,3.757 C 2.947,9.117 1.943,6.014 1.943,6.014 l -3.953,0 C -1.455,5.611 1.193,3.699 1.193,3.699 1.193,3.699 0.205,0.643 0,0"
             inkscape:connector-curvature="0" /></g><g
           transform="translate(80.6367,177.4141)"
           id="g356"><path
             id="path358"
             style="fill:#231f20;fill-opacity:1;fill-rule:nonzero;stroke:none"
             d="m 0,0 c -0.049,0 -0.1,0.01 -0.115,0.027 -0.016,0.012 -0.031,0.041 -0.031,0.078 0,0.012 0.007,0.034 0.015,0.065 0.004,0.033 0.024,0.078 0.039,0.148 0.018,0.069 0.051,0.166 0.08,0.278 0.035,0.115 0.082,0.267 0.141,0.455 l 2.125,0 C 2.266,1.021 2.279,0.953 2.311,0.855 2.332,0.76 2.371,0.654 2.402,0.547 2.443,0.443 2.471,0.35 2.49,0.264 2.521,0.174 2.545,0.129 2.545,0.127 2.545,0.045 2.486,0.01 2.383,0 l 0,-0.121 1.59,0 0,0.121 C 3.918,0 3.879,0.025 3.855,0.061 3.816,0.105 3.777,0.188 3.74,0.314 3.643,0.564 3.549,0.863 3.441,1.195 3.324,1.527 3.213,1.865 3.094,2.205 2.982,2.551 2.867,2.893 2.758,3.225 2.643,3.555 2.553,3.859 2.463,4.119 2.383,4.385 2.311,4.596 2.266,4.76 2.207,4.928 2.176,5.023 2.176,5.039 c 0,0.049 0.019,0.086 0.047,0.096 0.027,0.011 0.07,0.025 0.109,0.029 l 0,0.121 -2.195,0 0,-0.121 C 0.172,5.16 0.213,5.146 0.244,5.135 0.283,5.125 0.295,5.102 0.295,5.064 0.295,5.057 0.283,4.98 0.244,4.846 0.188,4.709 0.137,4.531 0.07,4.316 0,4.094 -0.074,3.84 -0.158,3.564 -0.248,3.285 -0.328,2.998 -0.426,2.711 -0.508,2.424 -0.605,2.131 -0.689,1.852 -0.775,1.574 -0.859,1.314 -0.938,1.084 -1.004,0.855 -1.066,0.666 -1.115,0.516 -1.154,0.361 -1.182,0.273 -1.197,0.236 -1.225,0.154 -1.252,0.098 -1.279,0.063 -1.314,0.033 -1.35,0.016 -1.418,0 l 0,-0.121 1.418,0 L 0,0 Z"
             inkscape:connector-curvature="0" /></g><g
           transform="translate(81.7891,181.8594)"
           id="g360"><path
             id="path362"
             style="fill:#fff200;fill-opacity:1;fill-rule:nonzero;stroke:none"
             d="m 0,0 0.885,-2.572 -1.696,0 L 0,0 Z"
             inkscape:connector-curvature="0" /></g><g
           transform="translate(105.1055,208.0449)"
           id="g364"><path
             id="path366"
             style="fill:#bdbcbc;fill-opacity:1;fill-rule:nonzero;stroke:none"
             d="m 0,0 c 0.551,0.404 3.145,2.291 3.145,2.291 0,0 2.628,-1.902 3.187,-2.297 -0.209,0.647 -1.217,3.733 -1.217,3.733 0,0 2.596,1.89 3.153,2.285 l -3.887,0 c 0,0 -1.004,3.105 -1.217,3.756 C 2.961,9.117 1.949,6.012 1.949,6.012 L -2.008,6.014 C -1.447,5.611 1.193,3.697 1.193,3.697 1.193,3.697 0.209,0.648 0,0"
             inkscape:connector-curvature="0" /></g><g
           transform="translate(30.6621,41.5859)"
           id="g368" /><g
           transform="translate(53.7871,26.2891)"
           id="g372" /><g
           transform="translate(73.7031,30.166)"
           id="g376" /><g
           transform="translate(83.7871,31.2598)"
           id="g380" /><g
           transform="translate(106.3828,28.0508)"
           id="g384" /><g
           transform="translate(114.3164,35.1367)"
           id="g388" /><g
           transform="translate(131.0977,34.043)"
           id="g392" /><g
           transform="translate(139.9453,35.1367)"
           id="g396" /><g
           transform="translate(155.9492,28.0508)"
           id="g400" /><g
           transform="translate(167.9707,26.9238)"
           id="g404" /><g
           transform="translate(184.1523,25.4785)"
           id="g408" /></g></g></g></svg>